<?xml version="1.0" encoding="UTF-8" standalone="no"?><svg width="420.834" height="694.065" xmlns="http://www.w3.org/2000/svg" stroke-linejoin="round" stroke-linecap="round" fill-rule="evenodd" fill="none"><rect x="0" y="0" width="420.834" height="694.065" fill="#F2EDDE"/><g transform="translate(100 594.065)"><path d=" M 0,0"/><g transform="translate(220.834 0)"><path d=" M 0,0"/><path d=" M -24.555,0 L 24.555,0 L 24.555,-18.996 L -24.555,-18.996 L -24.555,0" fill="#ECE3CE"/><path d=" M -22.083,-18.996 L 22.083,-18.996 L 22.083,-437.358 L -22.083,-437.358 L -22.083,-18.996" fill="#F2EDDE"/><path d=" M -24.555,0 L -24.555,-18.996 L -22.083,-18.996 L -22.083,-437.358 L 22.083,-437.358 L 22.083,-18.996 L 24.555,-18.996 L 24.555,0" stroke="#8E8B83" stroke-width="1.152"/><path d=" M -19.779,-18.996 L 19.779,-18.996" stroke="#8E8B83" stroke-width="1.152"/><path d=" M -22.083,-67.333 L -20.987,-67.333 M -20.689,-67.333 L -19.275,-67.333 M -18.296,-67.333 L -18.034,-67.333 M -17.994,-67.333 L -17.025,-67.333 M -15.763,-67.333 L -15.118,-67.333 M -13.784,-67.333 L -12.688,-67.333 M -12.39,-67.333 L -10.976,-67.333 M -22.083,-67.333 L -17.667,-67.333 M 22.083,-67.333 L 21.022,-67.333 M 20.984,-67.333 L 20.165,-67.333 M 19.595,-67.333 L 18.71,-67.333 M 17.829,-67.333 L 17.288,-67.333 M 15.88,-67.333 L 14.608,-67.333 M 13.661,-67.333 L 12.599,-67.333 M 12.562,-67.333 L 11.742,-67.333 M 11.173,-67.333 L 10.306,-67.333 M 22.083,-67.333 L 17.667,-67.333 M -22.083,-128.337 L -22.067,-128.337 M -21.261,-128.337 L -20.517,-128.337 M -19.704,-128.337 L -19.603,-128.337 M -19.179,-128.337 L -19.072,-128.337 M -18.361,-128.337 L -18.204,-128.337 M -16.957,-128.337 L -16.94,-128.337 M -16.134,-128.337 L -15.39,-128.337 M -14.577,-128.337 L -14.476,-128.337 M -14.052,-128.337 L -13.945,-128.337 M -13.235,-128.337 L -13.077,-128.337 M -11.83,-128.337 L -11.813,-128.337 M -11.008,-128.337 L -10.306,-128.337 M -22.083,-128.337 L -17.667,-128.337 M 22.083,-128.337 L 20.75,-128.337 M 19.814,-128.337 L 19.441,-128.337 M 18.995,-128.337 L 18.132,-128.337 M 17.203,-128.337 L 16.009,-128.337 M 14.743,-128.337 L 14.237,-128.337 M 13.451,-128.337 L 12.118,-128.337 M 11.181,-128.337 L 10.809,-128.337 M 10.363,-128.337 L 10.306,-128.337 M 22.083,-128.337 L 17.667,-128.337 M -22.083,-189.341 L -21.265,-189.341 M -20.597,-189.341 L -19.817,-189.341 M -18.426,-189.341 L -18.364,-189.341 M -18.045,-189.341 L -17.895,-189.341 M -17.093,-189.341 L -16.215,-189.341 M -16.103,-189.341 L -15.285,-189.341 M -14.616,-189.341 L -13.837,-189.341 M -12.446,-189.341 L -12.383,-189.341 M -12.065,-189.341 L -11.915,-189.341 M -11.113,-189.341 L -10.306,-189.341 M -22.083,-189.341 L -17.667,-189.341 M 22.083,-189.341 L 20.826,-189.341 M 20.338,-189.341 L 19.516,-189.341 M 19.262,-189.341 L 19.048,-189.341 M 18.85,-189.341 L 18.791,-189.341 M 17.832,-189.341 L 17.673,-189.341 M 17.579,-189.341 L 16.322,-189.341 M 15.833,-189.341 L 15.012,-189.341 M 14.757,-189.341 L 14.544,-189.341 M 14.346,-189.341 L 14.287,-189.341 M 13.327,-189.341 L 13.169,-189.341 M 13.074,-189.341 L 11.817,-189.341 M 11.329,-189.341 L 10.507,-189.341 M 22.083,-189.341 L 17.667,-189.341 M -22.083,-250.346 L -22.069,-250.346 M -20.904,-250.346 L -20.162,-250.346 M -19.586,-250.346 L -19.1,-250.346 M -18.934,-250.346 L -18.203,-250.346 M -17.094,-250.346 L -15.796,-250.346 M -14.59,-250.346 L -14.576,-250.346 M -13.411,-250.346 L -12.668,-250.346 M -12.093,-250.346 L -11.607,-250.346 M -11.441,-250.346 L -10.709,-250.346 M -22.083,-250.346 L -17.667,-250.346 M 22.083,-250.346 L 21.551,-250.346 M 21.26,-250.346 L 20.73,-250.346 M 19.819,-250.346 L 19.719,-250.346 M 19.661,-250.346 L 18.738,-250.346 M 18.575,-250.346 L 18.419,-250.346 M 18.193,-250.346 L 17.661,-250.346 M 17.369,-250.346 L 16.839,-250.346 M 15.928,-250.346 L 15.829,-250.346 M 15.77,-250.346 L 14.848,-250.346 M 14.684,-250.346 L 14.528,-250.346 M 14.302,-250.346 L 13.77,-250.346 M 13.478,-250.346 L 12.949,-250.346 M 12.037,-250.346 L 11.938,-250.346 M 11.88,-250.346 L 10.957,-250.346 M 10.793,-250.346 L 10.637,-250.346 M 10.411,-250.346 L 10.306,-250.346 M 22.083,-250.346 L 17.667,-250.346 M -22.083,-311.35 L -20.86,-311.35 M -20.019,-311.35 L -19.687,-311.35 M -18.221,-311.35 L -17.027,-311.35 M -15.698,-311.35 L -15.076,-311.35 M -14.214,-311.35 L -13.329,-311.35 M -12.963,-311.35 L -11.74,-311.35 M -10.899,-311.35 L -10.567,-311.35 M -22.083,-311.35 L -17.667,-311.35 M 22.083,-311.35 L 21.389,-311.35 M 20.929,-311.35 L 19.61,-311.35 M 19.516,-311.35 L 19.18,-311.35 M 18.493,-311.35 L 18.318,-311.35 M 17.299,-311.35 L 16.46,-311.35 M 16.054,-311.35 L 15.36,-311.35 M 14.9,-311.35 L 13.581,-311.35 M 13.487,-311.35 L 13.151,-311.35 M 12.464,-311.35 L 12.288,-311.35 M 11.269,-311.35 L 10.431,-311.35 M 22.083,-311.35 L 17.667,-311.35 M -22.083,-372.354 L -21.711,-372.354 M -20.766,-372.354 L -20.233,-372.354 M -19.334,-372.354 L -18.986,-372.354 M -17.799,-372.354 L -17.219,-372.354 M -17.048,-372.354 L -16.061,-372.354 M -15.997,-372.354 L -15.624,-372.354 M -14.679,-372.354 L -14.147,-372.354 M -13.248,-372.354 L -12.9,-372.354 M -11.713,-372.354 L -11.133,-372.354 M -10.962,-372.354 L -10.306,-372.354 M -22.083,-372.354 L -17.667,-372.354 M 22.083,-372.354 L 20.735,-372.354 M 19.503,-372.354 L 19.075,-372.354 M 18.76,-372.354 L 17.405,-372.354 M 16.322,-372.354 L 15.201,-372.354 M 14.849,-372.354 L 14.141,-372.354 M 12.996,-372.354 L 11.647,-372.354 M 10.415,-372.354 L 10.306,-372.354 M 22.083,-372.354 L 17.667,-372.354 M -22.083,-433.358 L -20.149,-433.358 M -18.359,-433.358 L -17.997,-433.358 M -16.138,-433.358 L -14.784,-433.358 M -13.564,-433.358 L -11.855,-433.358 M -10.547,-433.358 L -8.399,-433.358 M -7.124,-433.358 L -5.19,-433.358 M -3.4,-433.358 L -3.037,-433.358 M -1.179,-433.358 L 0,-433.358 M -22.083,-433.358 L -11.042,-433.358 M 22.083,-433.358 L 21.39,-433.358 M 19.232,-433.358 L 17.365,-433.358 M 17.086,-433.358 L 16.43,-433.358 M 14.737,-433.358 L 12.67,-433.358 M 12.46,-433.358 L 11.924,-433.358 M 11.122,-433.358 L 10.429,-433.358 M 8.271,-433.358 L 6.404,-433.358 M 6.124,-433.358 L 5.469,-433.358 M 3.776,-433.358 L 1.709,-433.358 M 1.499,-433.358 L 0.963,-433.358 M 0.161,-433.358 L 0,-433.358 M 22.083,-433.358 L 11.042,-433.358" stroke="#8E8B83" stroke-width="1.152"/><path d=" M 24.555,-437.358 L -24.555,-437.358 L -20.585,-443.475 L 0,-537.577 L 20.585,-443.475 L 24.555,-437.358" fill="#ECE3CE" stroke="#8E8B83" stroke-width="1.152"/><path d=" M -24.555,-437.358 L -20.168,-437.358 M -20.168,-437.358 L -17.106,-437.358 M -13.575,-437.358 L -9.399,-437.358 M -7.639,-437.358 L -6.17,-437.358 M -3.622,-437.358 L -0.877,-437.358 M 1.35,-437.358 L 1.834,-437.358 M 6.395,-437.358 L 9.457,-437.358 M 12.988,-437.358 L 17.164,-437.358 M 18.924,-437.358 L 19.143,-437.358 M 19.143,-437.358 L 24.555,-437.358 M -20.585,-443.475 L -14.324,-443.475 M -14.324,-443.475 L -12.312,-443.475 M -7.639,-443.475 L -3.275,-443.475 M -2.515,-443.475 L -1.976,-443.475 M 0.942,-443.475 L 3.273,-443.475 M 7.81,-443.475 L 11.763,-443.475 M 14.762,-443.475 L 16.774,-443.475 M 17.866,-443.475 L 20.585,-443.475 M -19.649,-447.753 L -18.048,-447.753 M -18.048,-447.753 L -13.729,-447.753 M -10.996,-447.753 L -6.371,-447.753 M -4.557,-447.753 L -2.599,-447.753 M 0.058,-447.753 L 3.182,-447.753 M 5.187,-447.753 L 8.702,-447.753 M 11.764,-447.753 L 13.285,-447.753 M 13.285,-447.753 L 19.649,-447.753 M -18.713,-452.03 L -12.411,-452.03 M -12.411,-452.03 L -12.154,-452.03 M -8.61,-452.03 L -8.396,-452.03 M -7.613,-452.03 L -5.463,-452.03 M -5.122,-452.03 L -5.05,-452.03 M -3.787,-452.03 L -1.365,-452.03 M 0.692,-452.03 L 0.949,-452.03 M 4.493,-452.03 L 4.707,-452.03 M 5.489,-452.03 L 7.64,-452.03 M 7.98,-452.03 L 8.053,-452.03 M 9.315,-452.03 L 9.827,-452.03 M 9.827,-452.03 L 18.713,-452.03 M -17.778,-456.307 L -14.515,-456.307 M -14.515,-456.307 L -13.072,-456.307 M -11.114,-456.307 L -9.161,-456.307 M -6.042,-456.307 L -4.243,-456.307 M -4.206,-456.307 L -1.195,-456.307 M 0.75,-456.307 L 3.515,-456.307 M 5.676,-456.307 L 7.119,-456.307 M 9.077,-456.307 L 11.03,-456.307 M 14.149,-456.307 L 14.419,-456.307 M 14.419,-456.307 L 17.778,-456.307 M -16.842,-460.585 L -16.245,-460.585 M -16.245,-460.585 L -15.897,-460.585 M -11.462,-460.585 L -8.221,-460.585 M -5.268,-460.585 L -4.841,-460.585 M -0.429,-460.585 L 4.153,-460.585 M 5.482,-460.585 L 6.678,-460.585 M 8.326,-460.585 L 8.674,-460.585 M 11.102,-460.585 L 16.842,-460.585 M -15.906,-464.862 L -10.703,-464.862 M -10.703,-464.862 L -9.816,-464.862 M -8.213,-464.862 L -7.516,-464.862 M -5.347,-464.862 L -2.075,-464.862 M 2.521,-464.862 L 4.669,-464.862 M 6.014,-464.862 L 9.641,-464.862 M 9.641,-464.862 L 15.906,-464.862 M -14.971,-469.139 L -9.495,-469.139 M -9.495,-469.139 L -5.072,-469.139 M -0.374,-469.139 L 0.228,-469.139 M 1.302,-469.139 L 1.396,-469.139 M 2.743,-469.139 L 3.764,-469.139 M 6.813,-469.139 L 8.269,-469.139 M 10.656,-469.139 L 11.99,-469.139 M 11.99,-469.139 L 14.971,-469.139 M -14.035,-473.417 L -9.062,-473.417 M -9.062,-473.417 L -5.183,-473.417 M -0.846,-473.417 L 3.845,-473.417 M 7.109,-473.417 L 11.699,-473.417 M 13.684,-473.417 L 14.035,-473.417 M -13.099,-477.694 L -9.875,-477.694 M -9.875,-477.694 L -7.397,-477.694 M -3.244,-477.694 L 1.292,-477.694 M 5.14,-477.694 L 8.954,-477.694 M 10.753,-477.694 L 13.099,-477.694 M -12.164,-481.971 L -8.555,-481.971 M -8.555,-481.971 L -5.889,-481.971 M -3.746,-481.971 L -0.815,-481.971 M 1.341,-481.971 L 2.2,-481.971 M 5.511,-481.971 L 6.928,-481.971 M 6.928,-481.971 L 12.164,-481.971 M -11.228,-486.249 L -10.575,-486.249 M -10.575,-486.249 L -7.334,-486.249 M -6.387,-486.249 L -5.006,-486.249 M -3.803,-486.249 L -2.537,-486.249 M -0.423,-486.249 L 2.34,-486.249 M 5.303,-486.249 L 5.447,-486.249 M 8.876,-486.249 L 10.358,-486.249 M 10.358,-486.249 L 11.228,-486.249 M -10.292,-490.526 L -9.382,-490.526 M -9.382,-490.526 L -6.439,-490.526 M -3.563,-490.526 L 0.939,-490.526 M 4.696,-490.526 L 8.555,-490.526 M 9.725,-490.526 L 10.018,-490.526 M 10.018,-490.526 L 10.292,-490.526 M -9.357,-494.803 L -9.231,-494.803 M -9.231,-494.803 L -7.031,-494.803 M -4.878,-494.803 L -1.44,-494.803 M -0.501,-494.803 L 0.472,-494.803 M 4.523,-494.803 L 6.27,-494.803 M 7.768,-494.803 L 9.357,-494.803 M -8.421,-499.081 L -8.404,-499.081 M -8.404,-499.081 L -7.79,-499.081 M -6.599,-499.081 L -6.281,-499.081 M -6.055,-499.081 L -3.408,-499.081 M -0.881,-499.081 L 3.152,-499.081 M 4.765,-499.081 L 8.421,-499.081 M -7.485,-503.358 L -7.095,-503.358 M -7.095,-503.358 L -3.023,-503.358 M 0.071,-503.358 L 0.417,-503.358 M 0.611,-503.358 L 0.684,-503.358 M 4.523,-503.358 L 5.208,-503.358 M 5.688,-503.358 L 7.485,-503.358 M -6.55,-507.635 L -4.498,-507.635 M -4.498,-507.635 L -1.921,-507.635 M -0.12,-507.635 L 0.201,-507.635 M 3.321,-507.635 L 3.82,-507.635 M 3.82,-507.635 L 6.55,-507.635 M -5.614,-511.913 L -4.139,-511.913 M -4.139,-511.913 L 0.385,-511.913 M 3.261,-511.913 L 4.997,-511.913 M 4.997,-511.913 L 5.614,-511.913 M -4.678,-516.19 L -2.45,-516.19 M -2.45,-516.19 L -0.483,-516.19 M 1.399,-516.19 L 2.854,-516.19 M 3.589,-516.19 L 3.939,-516.19 M 3.939,-516.19 L 4.678,-516.19 M -3.743,-520.467 L -3.482,-520.467 M -3.482,-520.467 L -0.732,-520.467 M 0.93,-520.467 L 1.886,-520.467 M 3.19,-520.467 L 3.729,-520.467 M 3.729,-520.467 L 3.743,-520.467 M -2.807,-524.745 L -2.384,-524.745 M -2.384,-524.745 L 0.731,-524.745 M 2.649,-524.745 L 2.807,-524.745 M -1.871,-529.022 L -1.827,-529.022 M -1.827,-529.022 L 0.841,-529.022 M 0.841,-529.022 L 1.871,-529.022 M -0.936,-533.299 L -0.813,-533.299 M -0.813,-533.299 L 0.616,-533.299 M 0.616,-533.299 L 0.936,-533.299" stroke="#8E8B83" stroke-width="1.152"/><g transform="translate(0 -537.577)"><path d=" M 0,0"/><path d=" M 1.152,-3.456 Q 1.152,-2.979 0.815,-2.641 Q 0.477,-2.304 0,-2.304 L 0,-2.304 Q -0.477,-2.304 -0.815,-2.641 Q -1.152,-2.979 -1.152,-3.456 L -1.152,-3.456 Q -1.152,-3.933 -0.815,-4.271 Q -0.477,-4.608 0,-4.608 L 0,-4.608 Q 0.477,-4.608 0.815,-4.271 Q 1.152,-3.933 1.152,-3.456 L 1.152,-3.456" stroke="#8E8B83" stroke-width="1.152"/><path d=" M 0,-10.162 L 4.742,-8.581 M 5.318,-8.581 Q 5.318,-8.343 5.149,-8.174 Q 4.98,-8.005 4.742,-8.005 L 4.742,-8.005 Q 4.503,-8.005 4.334,-8.174 Q 4.166,-8.343 4.166,-8.581 L 4.166,-8.581 Q 4.166,-8.82 4.334,-8.989 Q 4.503,-9.157 4.742,-9.157 L 4.742,-9.157 Q 4.98,-9.157 5.149,-8.989 Q 5.318,-8.82 5.318,-8.581 L 5.318,-8.581 M 0,-10.162 L -4.742,-8.581 M -4.166,-8.581 Q -4.166,-8.343 -4.334,-8.174 Q -4.503,-8.005 -4.742,-8.005 L -4.742,-8.005 Q -4.98,-8.005 -5.149,-8.174 Q -5.318,-8.343 -5.318,-8.581 L -5.318,-8.581 Q -5.318,-8.82 -5.149,-8.989 Q -4.98,-9.157 -4.742,-9.157 L -4.742,-9.157 Q -4.503,-9.157 -4.334,-8.989 Q -4.166,-8.82 -4.166,-8.581 L -4.166,-8.581 M 0,-10.162 L -4.742,-11.742 M -4.166,-11.742 Q -4.166,-11.504 -4.334,-11.335 Q -4.503,-11.166 -4.742,-11.166 L -4.742,-11.166 Q -4.98,-11.166 -5.149,-11.335 Q -5.318,-11.504 -5.318,-11.742 L -5.318,-11.742 Q -5.318,-11.981 -5.149,-12.15 Q -4.98,-12.318 -4.742,-12.318 L -4.742,-12.318 Q -4.503,-12.318 -4.334,-12.15 Q -4.166,-11.981 -4.166,-11.742 L -4.166,-11.742 M 0,-10.162 L 4.742,-11.742 M 5.318,-11.742 Q 5.318,-11.504 5.149,-11.335 Q 4.98,-11.166 4.742,-11.166 L 4.742,-11.166 Q 4.503,-11.166 4.334,-11.335 Q 4.166,-11.504 4.166,-11.742 L 4.166,-11.742 Q 4.166,-11.981 4.334,-12.15 Q 4.503,-12.318 4.742,-12.318 L 4.742,-12.318 Q 4.98,-12.318 5.149,-12.15 Q 5.318,-11.981 5.318,-11.742 L 5.318,-11.742" stroke="#8E8B83" stroke-width="1.152"/><path d=" M -7.378,-17.54 L 7.378,-17.54 L 3.689,-19.384 M 7.378,-17.54 L 3.689,-15.695 M -7.378,-19.384 L -5.533,-17.54 L -7.378,-15.695 M -5.533,-19.384 L -3.689,-17.54 L -5.533,-15.695" stroke="#8E8B83" stroke-width="1.152"/><path d=" M -0.576,0 L 0.576,0 L 0.576,-40.374 L -0.576,-40.374 L -0.576,0" fill="#8E8B83"/><path d=" M 0.576,-40.374 Q 0.576,-40.135 0.407,-39.966 Q 0.239,-39.798 0,-39.798 L 0,-39.798 Q -0.239,-39.798 -0.407,-39.966 Q -0.576,-40.135 -0.576,-40.374 L -0.576,-40.374 Q -0.576,-40.612 -0.407,-40.781 Q -0.239,-40.95 0,-40.95 L 0,-40.95 Q 0.239,-40.95 0.407,-40.781 Q 0.576,-40.612 0.576,-40.374 L 0.576,-40.374" stroke="#8E8B83" stroke-width="1.152"/></g></g><g><path d=" M 0,0"/><path d=" M 55.208,-250.048 L 18.403,-193.341 L 73.611,-193.341 L 73.611,-250.048 L 55.208,-250.048" fill="#E9DEC5" stroke="#57554F" stroke-width="1.152"/><path d=" M 27.006,-197.703 L 31.366,-197.703 M 31.366,-197.703 L 38.983,-197.703 M 42.425,-197.703 L 49.471,-197.703 M 53.048,-197.703 L 55.946,-197.703 M 60.847,-197.703 L 64.801,-197.703 M 66.219,-197.703 L 70.309,-197.703 M 71.743,-197.703 L 72.399,-197.703 M 72.399,-197.703 L 73.611,-197.703 M 29.837,-202.065 L 44.447,-202.065 M 44.447,-202.065 L 50.528,-202.065 M 54.77,-202.065 L 58.495,-202.065 M 63.253,-202.065 L 71.323,-202.065 M 71.323,-202.065 L 73.611,-202.065 M 32.668,-206.427 L 36.215,-206.427 M 36.215,-206.427 L 43.507,-206.427 M 48.402,-206.427 L 51.187,-206.427 M 52.847,-206.427 L 53.018,-206.427 M 53.869,-206.427 L 60.642,-206.427 M 61.731,-206.427 L 63.568,-206.427 M 64.984,-206.427 L 72.224,-206.427 M 72.224,-206.427 L 73.611,-206.427 M 35.499,-210.789 L 37.221,-210.789 M 37.221,-210.789 L 43.944,-210.789 M 46.843,-210.789 L 56.069,-210.789 M 58.887,-210.789 L 58.887,-210.789 M 62.041,-210.789 L 66.769,-210.789 M 67.571,-210.789 L 73.611,-210.789 M 38.331,-215.151 L 40.875,-215.151 M 40.875,-215.151 L 46.92,-215.151 M 50.135,-215.151 L 59.48,-215.151 M 64.15,-215.151 L 70.956,-215.151 M 72.043,-215.151 L 73.611,-215.151 M 41.162,-219.514 L 45.94,-219.514 M 45.94,-219.514 L 46.878,-219.514 M 47.769,-219.514 L 52.547,-219.514 M 54.204,-219.514 L 61.333,-219.514 M 64.966,-219.514 L 65.636,-219.514 M 65.897,-219.514 L 72.339,-219.514 M 73.19,-219.514 L 73.611,-219.514 M 43.993,-223.876 L 52.665,-223.876 M 52.665,-223.876 L 53.668,-223.876 M 55.069,-223.876 L 59.672,-223.876 M 62.994,-223.876 L 66.572,-223.876 M 66.572,-223.876 L 73.611,-223.876 M 46.824,-228.238 L 47.672,-228.238 M 47.672,-228.238 L 49.481,-228.238 M 53.459,-228.238 L 59.675,-228.238 M 63.553,-228.238 L 64.449,-228.238 M 66.378,-228.238 L 70.066,-228.238 M 70.828,-228.238 L 73.611,-228.238 M 49.655,-232.6 L 53.034,-232.6 M 53.034,-232.6 L 58.334,-232.6 M 60.691,-232.6 L 63.319,-232.6 M 63.707,-232.6 L 68.146,-232.6 M 69.687,-232.6 L 71.852,-232.6 M 71.852,-232.6 L 73.611,-232.6 M 52.487,-236.962 L 52.493,-236.962 M 52.493,-236.962 L 55.835,-236.962 M 58.157,-236.962 L 59.375,-236.962 M 60.505,-236.962 L 62.39,-236.962 M 66.152,-236.962 L 66.987,-236.962 M 71.479,-236.962 L 72.036,-236.962 M 72.036,-236.962 L 73.611,-236.962 M 55.318,-241.324 L 57.035,-241.324 M 57.035,-241.324 L 57.1,-241.324 M 62.014,-241.324 L 65.193,-241.324 M 68.823,-241.324 L 71.478,-241.324 M 72.978,-241.324 L 73.205,-241.324 M 73.205,-241.324 L 73.611,-241.324 M 58.149,-245.686 L 60.034,-245.686 M 60.034,-245.686 L 68.898,-245.686 M 70.289,-245.686 L 73.611,-245.686" stroke="#57554F" stroke-width="1.152"/><path d=" M 128.82,-311.052 L 92.014,-254.346 L 110.417,-254.346 L 110.417,-311.052 L 128.82,-311.052" fill="#E9DEC5" stroke="#57554F" stroke-width="1.152"/><path d=" M 100.617,-258.708 L 101.395,-258.708 M 101.395,-258.708 L 104.044,-258.708 M 104.044,-258.708 L 104.645,-258.708 M 103.448,-263.07 L 103.5,-263.07 M 103.5,-263.07 L 104.42,-263.07 M 104.42,-263.07 L 104.645,-263.07 M 116.189,-302.328 L 116.298,-302.328 M 116.298,-302.328 L 117.066,-302.328 M 117.349,-302.328 L 117.386,-302.328 M 116.189,-306.69 L 116.297,-306.69 M 116.297,-306.69 L 119.934,-306.69 M 119.934,-306.69 L 120.217,-306.69" stroke="#57554F" stroke-width="1.152"/><path d=" M 165.625,-494.065 L 128.82,-437.358 L 202.431,-437.358 L 165.625,-494.065 L 165.625,-494.065" fill="#E9DEC5" stroke="#57554F" stroke-width="1.152"/><path d=" M 137.423,-441.72 L 140.528,-441.72 M 140.528,-441.72 L 144.188,-441.72 M 148.663,-441.72 L 153.014,-441.72 M 157.922,-441.72 L 165.002,-441.72 M 168.072,-441.72 L 168.99,-441.72 M 172.307,-441.72 L 181.473,-441.72 M 183.632,-441.72 L 187.292,-441.72 M 191.766,-441.72 L 192.018,-441.72 M 192.018,-441.72 L 193.828,-441.72 M 140.254,-446.082 L 141.341,-446.082 M 141.341,-446.082 L 145.067,-446.082 M 148.623,-446.082 L 148.95,-446.082 M 153.465,-446.082 L 157.531,-446.082 M 161.391,-446.082 L 166.196,-446.082 M 169.777,-446.082 L 177.568,-446.082 M 178.595,-446.082 L 182.322,-446.082 M 185.877,-446.082 L 186.204,-446.082 M 189.843,-446.082 L 190.997,-446.082 M 143.085,-450.444 L 152.324,-450.444 M 152.324,-450.444 L 152.688,-450.444 M 154.211,-450.444 L 161.897,-450.444 M 162.642,-450.444 L 163.232,-450.444 M 164.692,-450.444 L 166.279,-450.444 M 166.462,-450.444 L 168.762,-450.444 M 168.776,-450.444 L 169.14,-450.444 M 170.664,-450.444 L 178.349,-450.444 M 179.094,-450.444 L 179.684,-450.444 M 181.144,-450.444 L 182.731,-450.444 M 182.914,-450.444 L 185.215,-450.444 M 185.228,-450.444 L 185.593,-450.444 M 186.504,-450.444 L 188.166,-450.444 M 145.916,-454.806 L 153.651,-454.806 M 153.651,-454.806 L 156.794,-454.806 M 159.027,-454.806 L 162.966,-454.806 M 167.643,-454.806 L 175.425,-454.806 M 177.284,-454.806 L 185.334,-454.806 M 148.747,-459.168 L 151.49,-459.168 M 151.49,-459.168 L 153.253,-459.168 M 154.508,-459.168 L 157.408,-459.168 M 157.529,-459.168 L 159.747,-459.168 M 160.985,-459.168 L 168.036,-459.168 M 172.377,-459.168 L 175.682,-459.168 M 175.682,-459.168 L 182.503,-459.168 M 151.579,-463.53 L 155.696,-463.53 M 155.696,-463.53 L 157.377,-463.53 M 159.998,-463.53 L 166.126,-463.53 M 168.671,-463.53 L 169.854,-463.53 M 173.459,-463.53 L 174.388,-463.53 M 175.972,-463.53 L 178.528,-463.53 M 178.528,-463.53 L 179.672,-463.53 M 154.41,-467.892 L 158.545,-467.892 M 158.545,-467.892 L 158.823,-467.892 M 160.875,-467.892 L 166.076,-467.892 M 167.374,-467.892 L 172.751,-467.892 M 173.235,-467.892 L 174.234,-467.892 M 174.234,-467.892 L 176.841,-467.892 M 157.241,-472.254 L 158.436,-472.254 M 158.436,-472.254 L 164.313,-472.254 M 169.101,-472.254 L 170.49,-472.254 M 170.49,-472.254 L 174.01,-472.254 M 160.072,-476.617 L 160.267,-476.617 M 160.267,-476.617 L 165.522,-476.617 M 167.944,-476.617 L 169.018,-476.617 M 169.018,-476.617 L 171.178,-476.617 M 162.903,-480.979 L 163.09,-480.979 M 163.09,-480.979 L 165.569,-480.979 M 166.993,-480.979 L 167.057,-480.979 M 167.057,-480.979 L 168.347,-480.979" stroke="#57554F" stroke-width="1.152"/><path d=" M 0,0 L 0,-205.87 L 8.066,-205.87 L 16.131,-205.87 L 16.131,-193.341 L 28.74,-193.341 L 28.74,-205.87 L 36.806,-205.87 L 44.871,-205.87 L 44.871,-193.341 L 57.48,-193.341 L 57.48,-205.87 L 65.546,-205.87 L 73.611,-205.87 L 73.611,-266.875 L 80.227,-266.875 L 86.843,-266.875 L 86.843,-254.346 L 97.185,-254.346 L 97.185,-266.875 L 103.801,-266.875 L 110.417,-266.875 L 110.417,-449.887 L 119.118,-449.887 L 127.819,-449.887 L 127.819,-437.358 L 141.422,-437.358 L 141.422,-449.887 L 150.123,-449.887 L 158.824,-449.887 L 158.824,-437.358 L 172.427,-437.358 L 172.427,-449.887 L 181.128,-449.887 L 189.829,-449.887 L 189.829,-437.358 L 203.431,-437.358 L 203.431,-449.887 L 212.133,-449.887 L 220.834,-449.887 L 220.834,0" fill="#F2EDDE" stroke="#57554F" stroke-width="1.152"/><path d=" M -2.472,0 L 223.305,0 L 223.305,-18.996 L -2.472,-18.996 L -2.472,0" fill="#E9DEC5"/><path d=" M 0,-18.996 L -2.472,-18.996 L -2.472,0 L 223.305,0 L 223.305,-18.996 L 220.834,-18.996" stroke="#57554F" stroke-width="1.152" stroke-linejoin="round" stroke-linecap="square"/><path d=" M 2.304,-18.996 L 218.53,-18.996" stroke="#57554F" stroke-width="1.152"/><path d=" M 0,-67.333 L 2.656,-67.333 M 8.147,-67.333 L 8.662,-67.333 M 15.003,-67.333 L 17.212,-67.333 M 22.336,-67.333 L 25.533,-67.333 M 28.722,-67.333 L 33.93,-67.333 M 37.116,-67.333 L 39.772,-67.333 M 45.263,-67.333 L 45.778,-67.333 M 52.119,-67.333 L 54.328,-67.333 M 59.451,-67.333 L 62.648,-67.333 M 0,-67.333 L 31.875,-67.333 M 220.834,-67.333 L 217.649,-67.333 M 216,-67.333 L 212.321,-67.333 M 211.787,-67.333 L 207.544,-67.333 M 202.583,-67.333 L 199.24,-67.333 M 195.589,-67.333 L 193.425,-67.333 M 190.759,-67.333 L 187.574,-67.333 M 185.925,-67.333 L 182.245,-67.333 M 181.712,-67.333 L 177.469,-67.333 M 172.508,-67.333 L 169.165,-67.333 M 165.514,-67.333 L 163.349,-67.333 M 160.684,-67.333 L 157.499,-67.333 M 220.834,-67.333 L 188.959,-67.333" stroke="#57554F" stroke-width="1.152"/><g transform="translate(92.014 -162.839)"><path d=" M 0,0"/><path d=" M -6.421,-10.925 L 6.421,-10.925 L 6.421,10.925 L -6.421,10.925 L -6.421,-10.925" fill="#F2EDDE" stroke="#57554F" stroke-width="1.152"/><path d=" M -3.83,-8.334 L 3.83,-8.334 L 3.83,8.334 L -3.83,8.334 L -3.83,-8.334" fill="#57554F"/><path d=" M 0,-8.334 L 0,8.334 M -3.83,-2.778 L 3.83,-2.778 M -3.83,2.778 L 3.83,2.778" stroke="#F2EDDE" stroke-width="1.152"/><path d=" M -3.83,-8.334 L 3.83,-8.334 L 3.83,8.334 L -3.83,8.334 L -3.83,-8.334" stroke="#57554F" stroke-width="1.152"/></g><g transform="translate(128.82 -162.839)"><path d=" M 0,0"/><path d=" M -6.421,-10.925 L 6.421,-10.925 L 6.421,10.925 L -6.421,10.925 L -6.421,-10.925" fill="#F2EDDE" stroke="#57554F" stroke-width="1.152"/><path d=" M -3.83,-8.334 L 3.83,-8.334 L 3.83,8.334 L -3.83,8.334 L -3.83,-8.334" fill="#57554F"/><path d=" M 0,-8.334 L 0,8.334 M -3.83,-2.778 L 3.83,-2.778 M -3.83,2.778 L 3.83,2.778" stroke="#F2EDDE" stroke-width="1.152"/><path d=" M -3.83,-8.334 L 3.83,-8.334 L 3.83,8.334 L -3.83,8.334 L -3.83,-8.334" stroke="#57554F" stroke-width="1.152"/></g><g transform="translate(128.82 -223.843)"><path d=" M 0,0"/><path d=" M -6.421,-10.925 L 6.421,-10.925 L 6.421,10.925 L -6.421,10.925 L -6.421,-10.925" fill="#F2EDDE" stroke="#57554F" stroke-width="1.152"/><path d=" M -3.83,-8.334 L 3.83,-8.334 L 3.83,8.334 L -3.83,8.334 L -3.83,-8.334" fill="#57554F"/><path d=" M 0,-8.334 L 0,8.334 M -3.83,-2.778 L 3.83,-2.778 M -3.83,2.778 L 3.83,2.778" stroke="#F2EDDE" stroke-width="1.152"/><path d=" M -3.83,-8.334 L 3.83,-8.334 L 3.83,8.334 L -3.83,8.334 L -3.83,-8.334" stroke="#57554F" stroke-width="1.152"/></g><g transform="translate(128.82 -284.848)"><path d=" M 0,0"/><path d=" M -6.421,-10.925 L 6.421,-10.925 L 6.421,10.925 L -6.421,10.925 L -6.421,-10.925" fill="#F2EDDE" stroke="#57554F" stroke-width="1.152"/><path d=" M -3.83,-8.334 L 3.83,-8.334 L 3.83,8.334 L -3.83,8.334 L -3.83,-8.334" fill="#57554F"/><path d=" M 0,-8.334 L 0,8.334 M -3.83,-2.778 L 3.83,-2.778 M -3.83,2.778 L 3.83,2.778" stroke="#F2EDDE" stroke-width="1.152"/><path d=" M -3.83,-8.334 L 3.83,-8.334 L 3.83,8.334 L -3.83,8.334 L -3.83,-8.334" stroke="#57554F" stroke-width="1.152"/></g><g transform="translate(128.82 -406.856)"><path d=" M 0,0"/><path d=" M -6.421,-10.925 L 6.421,-10.925 L 6.421,10.925 L -6.421,10.925 L -6.421,-10.925" fill="#F2EDDE" stroke="#57554F" stroke-width="1.152"/><path d=" M -3.83,-8.334 L 3.83,-8.334 L 3.83,8.334 L -3.83,8.334 L -3.83,-8.334" fill="#57554F"/><path d=" M 0,-8.334 L 0,8.334 M -3.83,-2.778 L 3.83,-2.778 M -3.83,2.778 L 3.83,2.778" stroke="#F2EDDE" stroke-width="1.152"/><path d=" M -3.83,-8.334 L 3.83,-8.334 L 3.83,8.334 L -3.83,8.334 L -3.83,-8.334" stroke="#57554F" stroke-width="1.152"/></g><g transform="translate(165.625 -162.839)"><path d=" M 0,0"/><path d=" M -6.421,-10.925 L 6.421,-10.925 L 6.421,10.925 L -6.421,10.925 L -6.421,-10.925" fill="#F2EDDE" stroke="#57554F" stroke-width="1.152"/><path d=" M -3.83,-8.334 L 3.83,-8.334 L 3.83,8.334 L -3.83,8.334 L -3.83,-8.334" fill="#57554F"/><path d=" M 0,-8.334 L 0,8.334 M -3.83,-2.778 L 3.83,-2.778 M -3.83,2.778 L 3.83,2.778" stroke="#F2EDDE" stroke-width="1.152"/><path d=" M -3.83,-8.334 L 3.83,-8.334 L 3.83,8.334 L -3.83,8.334 L -3.83,-8.334" stroke="#57554F" stroke-width="1.152"/></g><g transform="translate(165.625 -223.843)"><path d=" M 0,0"/><path d=" M -6.421,-10.925 L 6.421,-10.925 L 6.421,10.925 L -6.421,10.925 L -6.421,-10.925" fill="#F2EDDE" stroke="#57554F" stroke-width="1.152"/><path d=" M -3.83,-8.334 L 3.83,-8.334 L 3.83,8.334 L -3.83,8.334 L -3.83,-8.334" fill="#57554F"/><path d=" M 0,-8.334 L 0,8.334 M -3.83,-2.778 L 3.83,-2.778 M -3.83,2.778 L 3.83,2.778" stroke="#F2EDDE" stroke-width="1.152"/><path d=" M -3.83,-8.334 L 3.83,-8.334 L 3.83,8.334 L -3.83,8.334 L -3.83,-8.334" stroke="#57554F" stroke-width="1.152"/></g><g transform="translate(165.625 -284.848)"><path d=" M 0,0"/><path d=" M -6.421,-10.925 L 6.421,-10.925 L 6.421,10.925 L -6.421,10.925 L -6.421,-10.925" fill="#F2EDDE" stroke="#57554F" stroke-width="1.152"/><path d=" M -3.83,-8.334 L 3.83,-8.334 L 3.83,8.334 L -3.83,8.334 L -3.83,-8.334" fill="#57554F"/><path d=" M 0,-8.334 L 0,8.334 M -3.83,-2.778 L 3.83,-2.778 M -3.83,2.778 L 3.83,2.778" stroke="#F2EDDE" stroke-width="1.152"/><path d=" M -3.83,-8.334 L 3.83,-8.334 L 3.83,8.334 L -3.83,8.334 L -3.83,-8.334" stroke="#57554F" stroke-width="1.152"/></g><g transform="translate(165.625 -406.856)"><path d=" M 0,0"/><path d=" M -6.421,-10.925 L 6.421,-10.925 L 6.421,10.925 L -6.421,10.925 L -6.421,-10.925" fill="#F2EDDE" stroke="#57554F" stroke-width="1.152"/><path d=" M -3.83,-8.334 L 3.83,-8.334 L 3.83,8.334 L -3.83,8.334 L -3.83,-8.334" fill="#57554F"/><path d=" M 0,-8.334 L 0,8.334 M -3.83,-2.778 L 3.83,-2.778 M -3.83,2.778 L 3.83,2.778" stroke="#F2EDDE" stroke-width="1.152"/><path d=" M -3.83,-8.334 L 3.83,-8.334 L 3.83,8.334 L -3.83,8.334 L -3.83,-8.334" stroke="#57554F" stroke-width="1.152"/></g><g transform="translate(202.431 -162.839)"><path d=" M 0,0"/><path d=" M -6.421,-10.925 L 6.421,-10.925 L 6.421,10.925 L -6.421,10.925 L -6.421,-10.925" fill="#F2EDDE" stroke="#57554F" stroke-width="1.152"/><path d=" M -3.83,-8.334 L 3.83,-8.334 L 3.83,8.334 L -3.83,8.334 L -3.83,-8.334" fill="#57554F"/><path d=" M 0,-8.334 L 0,8.334 M -3.83,-2.778 L 3.83,-2.778 M -3.83,2.778 L 3.83,2.778" stroke="#F2EDDE" stroke-width="1.152"/><path d=" M -3.83,-8.334 L 3.83,-8.334 L 3.83,8.334 L -3.83,8.334 L -3.83,-8.334" stroke="#57554F" stroke-width="1.152"/></g><g transform="translate(202.431 -223.843)"><path d=" M 0,0"/><path d=" M -6.421,-10.925 L 6.421,-10.925 L 6.421,10.925 L -6.421,10.925 L -6.421,-10.925" fill="#F2EDDE" stroke="#57554F" stroke-width="1.152"/><path d=" M -3.83,-8.334 L 3.83,-8.334 L 3.83,8.334 L -3.83,8.334 L -3.83,-8.334" fill="#57554F"/><path d=" M 0,-8.334 L 0,8.334 M -3.83,-2.778 L 3.83,-2.778 M -3.83,2.778 L 3.83,2.778" stroke="#F2EDDE" stroke-width="1.152"/><path d=" M -3.83,-8.334 L 3.83,-8.334 L 3.83,8.334 L -3.83,8.334 L -3.83,-8.334" stroke="#57554F" stroke-width="1.152"/></g><g transform="translate(202.431 -284.848)"><path d=" M 0,0"/><path d=" M -6.421,-10.925 L 6.421,-10.925 L 6.421,10.925 L -6.421,10.925 L -6.421,-10.925" fill="#F2EDDE" stroke="#57554F" stroke-width="1.152"/><path d=" M -3.83,-8.334 L 3.83,-8.334 L 3.83,8.334 L -3.83,8.334 L -3.83,-8.334" fill="#57554F"/><path d=" M 0,-8.334 L 0,8.334 M -3.83,-2.778 L 3.83,-2.778 M -3.83,2.778 L 3.83,2.778" stroke="#F2EDDE" stroke-width="1.152"/><path d=" M -3.83,-8.334 L 3.83,-8.334 L 3.83,8.334 L -3.83,8.334 L -3.83,-8.334" stroke="#57554F" stroke-width="1.152"/></g><g transform="translate(202.431 -406.856)"><path d=" M 0,0"/><path d=" M -6.421,-10.925 L 6.421,-10.925 L 6.421,10.925 L -6.421,10.925 L -6.421,-10.925" fill="#F2EDDE" stroke="#57554F" stroke-width="1.152"/><path d=" M -3.83,-8.334 L 3.83,-8.334 L 3.83,8.334 L -3.83,8.334 L -3.83,-8.334" fill="#57554F"/><path d=" M 0,-8.334 L 0,8.334 M -3.83,-2.778 L 3.83,-2.778 M -3.83,2.778 L 3.83,2.778" stroke="#F2EDDE" stroke-width="1.152"/><path d=" M -3.83,-8.334 L 3.83,-8.334 L 3.83,8.334 L -3.83,8.334 L -3.83,-8.334" stroke="#57554F" stroke-width="1.152"/></g></g><g><path d=" M 0,0"/><path d=" M -4.995,0.045 L -3.846,-0.045 L -4.102,-1.949 L -4.262,-3.011 L -4.409,-3.86 L -4.617,-4.912 L -5.021,-6.793 L -5.4,-6.733 L -5.211,-4.824 L -5.123,-3.768 L -5.073,-2.926 L -5.035,-1.869 L -4.995,0.045" fill="#57554F"/><path d=" M -9.636,0.128 L -8.513,-0.128 L -9.079,-2.126 L -9.447,-3.237 L -9.803,-4.111 L -10.318,-5.165 L -11.322,-7.008 L -11.668,-6.842 L -10.866,-4.917 L -10.477,-3.85 L -10.228,-2.993 L -9.988,-1.897 L -9.636,0.128" fill="#57554F"/><path d=" M -20.647,0.33 L -19.702,-0.33 L -21.043,-2.069 L -21.925,-2.966 L -22.771,-3.56 L -23.952,-4.112 L -26.2,-4.882 L -26.341,-4.525 L -24.208,-3.555 L -23.168,-2.94 L -22.49,-2.358 L -21.783,-1.483 L -20.647,0.33" fill="#57554F"/><path d=" M 224.732,0.013 L 225.884,-0.013 L 225.736,-1.78 L 225.649,-2.764 L 225.575,-3.551 L 225.475,-4.532 L 225.287,-6.296 L 224.904,-6.279 L 224.875,-4.507 L 224.855,-3.524 L 224.834,-2.739 L 224.8,-1.757 L 224.732,0.013" fill="#57554F"/><path d=" M 226.551,-0.121 L 227.677,0.121 L 228.111,-2.41 L 228.407,-3.785 L 228.711,-4.864 L 229.183,-6.206 L 230.148,-8.62 L 229.798,-8.777 L 228.629,-6.441 L 228.032,-5.111 L 227.622,-4.016 L 227.199,-2.626 L 226.551,-0.121" fill="#57554F"/><path d=" M 232.682,-0.165 L 233.786,0.165 L 234.317,-1.986 L 234.671,-3.137 L 235.031,-4.024 L 235.589,-5.116 L 236.733,-7.073 L 236.411,-7.283 L 235.074,-5.431 L 234.388,-4.357 L 233.913,-3.449 L 233.426,-2.28 L 232.682,-0.165" fill="#57554F"/><path d=" M 246.439,-0.333 L 247.379,0.333 L 248.115,-0.887 L 248.564,-1.464 L 248.994,-1.846 L 249.673,-2.26 L 251.094,-2.924 L 250.957,-3.282 L 249.424,-2.821 L 248.603,-2.472 L 248.004,-2.078 L 247.38,-1.479 L 246.439,-0.333" fill="#57554F"/><path d=" M -55.208,0 L -53.658,0 M -52.994,0 L -49.346,0 M -47.487,0 L -42.476,0 M -37.137,0 L -34.154,0 M -33.62,0 L -30.329,0 M -26.157,0 L -24.607,0 M -23.943,0 L -20.294,0 M -18.435,0 L -13.425,0 M -8.085,0 L -5.103,0 M -4.569,0 L -1.278,0 M 2.894,0 L 4.444,0 M 5.109,0 L 8.757,0 M 10.616,0 L 15.626,0 M 20.966,0 L 23.948,0 M 24.482,0 L 27.773,0 M 31.945,0 L 33.496,0 M 34.16,0 L 37.808,0 M 39.667,0 L 44.678,0 M 50.017,0 L 53,0 M 53.534,0 L 56.824,0 M 60.997,0 L 62.547,0 M 63.211,0 L 66.86,0 M 68.718,0 L 73.729,0 M 79.069,0 L 82.051,0 M 82.585,0 L 85.876,0 M 90.048,0 L 91.598,0 M 92.262,0 L 95.911,0 M 97.77,0 L 102.78,0 M 108.12,0 L 111.102,0 M 111.636,0 L 114.927,0 M 119.099,0 L 120.65,0 M 121.314,0 L 124.962,0 M 126.821,0 L 131.832,0 M 137.171,0 L 140.153,0 M 140.687,0 L 143.978,0 M 148.151,0 L 149.701,0 M 150.365,0 L 154.013,0 M 155.872,0 L 160.883,0 M 166.222,0 L 169.205,0 M 169.739,0 L 173.03,0 M 177.202,0 L 178.752,0 M 179.416,0 L 183.065,0 M 184.924,0 L 189.934,0 M 195.274,0 L 198.256,0 M 198.79,0 L 202.081,0 M 206.253,0 L 207.803,0 M 208.468,0 L 212.116,0 M 213.975,0 L 218.985,0 M 224.325,0 L 227.307,0 M 227.841,0 L 231.132,0 M 235.304,0 L 236.855,0 M 237.519,0 L 241.167,0 M 243.026,0 L 248.037,0 M 253.376,0 L 256.359,0 M 256.893,0 L 260.183,0 M 264.356,0 L 265.906,0 M 266.57,0 L 270.218,0 M 272.077,0 L 276.042,0 M -18.403,0 L 239.237,0" stroke="#57554F" stroke-width="1.152"/></g><g><path d=" M 0,0"/><path d=" M 73.611,-189.044 L 73.611,-132.337 L 92.014,-132.337 L 55.208,-189.044 L 73.611,-189.044" fill="#E5D6B7" stroke="#000000" stroke-width="1.152"/><path d=" M 79.383,-136.699 L 80.117,-136.699 M 80.117,-136.699 L 82.114,-136.699 M 82.114,-136.699 L 83.411,-136.699 M 79.383,-141.061 L 79.79,-141.061 M 79.79,-141.061 L 80.57,-141.061 M 80.57,-141.061 L 80.58,-141.061 M 66.643,-180.319 L 66.689,-180.319 M 66.689,-180.319 L 67.759,-180.319 M 67.759,-180.319 L 67.84,-180.319 M 63.811,-184.682 L 65.366,-184.682 M 65.366,-184.682 L 67.296,-184.682 M 67.296,-184.682 L 67.84,-184.682" stroke="#000000" stroke-width="1.152"/><path d=" M 110.417,-128.039 L 110.417,-71.333 L 202.431,-71.333 L 165.625,-128.039 L 110.417,-128.039" fill="#E5D6B7" stroke="#000000" stroke-width="1.152"/><path d=" M 110.417,-75.695 L 110.687,-75.695 M 110.687,-75.695 L 120.059,-75.695 M 122.886,-75.695 L 130.648,-75.695 M 131.151,-75.695 L 134.613,-75.695 M 137.286,-75.695 L 138.453,-75.695 M 140.04,-75.695 L 145.129,-75.695 M 149.411,-75.695 L 158.783,-75.695 M 161.61,-75.695 L 169.372,-75.695 M 169.875,-75.695 L 173.337,-75.695 M 176.01,-75.695 L 177.177,-75.695 M 178.764,-75.695 L 183.727,-75.695 M 183.727,-75.695 L 193.828,-75.695 M 110.417,-80.057 L 115.1,-80.057 M 115.1,-80.057 L 120.24,-80.057 M 120.882,-80.057 L 129.761,-80.057 M 134.426,-80.057 L 142.88,-80.057 M 147.214,-80.057 L 152.625,-80.057 M 154.462,-80.057 L 154.872,-80.057 M 158.79,-80.057 L 163.93,-80.057 M 164.572,-80.057 L 173.451,-80.057 M 178.116,-80.057 L 186.57,-80.057 M 188.253,-80.057 L 190.997,-80.057 M 110.417,-84.419 L 118.193,-84.419 M 118.193,-84.419 L 121.688,-84.419 M 125.754,-84.419 L 127.671,-84.419 M 131.36,-84.419 L 134.249,-84.419 M 137.121,-84.419 L 138.41,-84.419 M 141.059,-84.419 L 141.417,-84.419 M 145.223,-84.419 L 148.718,-84.419 M 152.784,-84.419 L 154.701,-84.419 M 158.391,-84.419 L 161.279,-84.419 M 164.151,-84.419 L 165.44,-84.419 M 168.089,-84.419 L 168.448,-84.419 M 172.253,-84.419 L 175.748,-84.419 M 179.814,-84.419 L 181.731,-84.419 M 185.421,-84.419 L 187.473,-84.419 M 187.473,-84.419 L 188.166,-84.419 M 110.417,-88.781 L 121.325,-88.781 M 121.325,-88.781 L 125.352,-88.781 M 126.635,-88.781 L 127.675,-88.781 M 129.876,-88.781 L 130.09,-88.781 M 134.309,-88.781 L 134.376,-88.781 M 134.826,-88.781 L 139.541,-88.781 M 143.389,-88.781 L 147.417,-88.781 M 148.7,-88.781 L 149.739,-88.781 M 151.941,-88.781 L 152.154,-88.781 M 156.374,-88.781 L 156.44,-88.781 M 156.891,-88.781 L 161.605,-88.781 M 165.454,-88.781 L 169.482,-88.781 M 170.765,-88.781 L 171.804,-88.781 M 174.006,-88.781 L 174.219,-88.781 M 178.438,-88.781 L 178.505,-88.781 M 178.956,-88.781 L 181.37,-88.781 M 181.37,-88.781 L 185.334,-88.781 M 110.417,-93.143 L 124.926,-93.143 M 124.926,-93.143 L 130.09,-93.143 M 134.663,-93.143 L 137.66,-93.143 M 138.041,-93.143 L 142.031,-93.143 M 144.659,-93.143 L 153.143,-93.143 M 156.166,-93.143 L 163.789,-93.143 M 167.373,-93.143 L 172.373,-93.143 M 172.373,-93.143 L 182.503,-93.143 M 110.417,-97.505 L 111.416,-97.505 M 111.416,-97.505 L 118.141,-97.505 M 119.258,-97.505 L 122.144,-97.505 M 125.413,-97.505 L 130.504,-97.505 M 131.927,-97.505 L 134.61,-97.505 M 136.674,-97.505 L 140.739,-97.505 M 145.074,-97.505 L 151.799,-97.505 M 152.916,-97.505 L 155.802,-97.505 M 159.071,-97.505 L 164.161,-97.505 M 165.585,-97.505 L 168.268,-97.505 M 170.332,-97.505 L 174.396,-97.505 M 176.807,-97.505 L 179.672,-97.505 M 110.417,-101.867 L 120.159,-101.867 M 120.159,-101.867 L 129.233,-101.867 M 131.73,-101.867 L 139.85,-101.867 M 142.261,-101.867 L 142.424,-101.867 M 146.627,-101.867 L 152.756,-101.867 M 153.235,-101.867 L 157.232,-101.867 M 162.188,-101.867 L 171.262,-101.867 M 173.759,-101.867 L 175.709,-101.867 M 175.709,-101.867 L 176.841,-101.867 M 110.417,-106.229 L 119.35,-106.229 M 119.35,-106.229 L 119.977,-106.229 M 120.745,-106.229 L 122,-106.229 M 122.235,-106.229 L 127.85,-106.229 M 128.562,-106.229 L 131.326,-106.229 M 133.964,-106.229 L 142.343,-106.229 M 143.717,-106.229 L 144.344,-106.229 M 145.112,-106.229 L 146.367,-106.229 M 146.602,-106.229 L 152.217,-106.229 M 152.929,-106.229 L 155.693,-106.229 M 158.331,-106.229 L 166.71,-106.229 M 168.084,-106.229 L 168.711,-106.229 M 169.479,-106.229 L 170.734,-106.229 M 170.969,-106.229 L 173.641,-106.229 M 173.641,-106.229 L 174.01,-106.229 M 110.417,-110.591 L 112.339,-110.591 M 112.339,-110.591 L 118.983,-110.591 M 123.952,-110.591 L 131.38,-110.591 M 132.998,-110.591 L 135.721,-110.591 M 140.531,-110.591 L 146.044,-110.591 M 146.986,-110.591 L 154.125,-110.591 M 154.819,-110.591 L 154.832,-110.591 M 154.832,-110.591 L 171.178,-110.591 M 110.417,-114.953 L 117.857,-114.953 M 117.857,-114.953 L 123.356,-114.953 M 125.451,-114.953 L 127.614,-114.953 M 130.051,-114.953 L 130.56,-114.953 M 133.401,-114.953 L 138.501,-114.953 M 139.137,-114.953 L 143.06,-114.953 M 143.109,-114.953 L 148.609,-114.953 M 150.703,-114.953 L 152.866,-114.953 M 155.304,-114.953 L 155.812,-114.953 M 158.654,-114.953 L 161.772,-114.953 M 161.772,-114.953 L 168.347,-114.953 M 110.417,-119.315 L 120.686,-119.315 M 120.686,-119.315 L 124.79,-119.315 M 125.147,-119.315 L 133.283,-119.315 M 133.805,-119.315 L 136.161,-119.315 M 136.287,-119.315 L 137.246,-119.315 M 141.676,-119.315 L 146.617,-119.315 M 148.435,-119.315 L 152.539,-119.315 M 152.896,-119.315 L 161.032,-119.315 M 161.554,-119.315 L 163.91,-119.315 M 164.036,-119.315 L 164.996,-119.315 M 165.166,-119.315 L 165.516,-119.315 M 110.417,-123.677 L 123.012,-123.677 M 123.012,-123.677 L 128.177,-123.677 M 130.456,-123.677 L 132.801,-123.677 M 134.825,-123.677 L 142.166,-123.677 M 143.032,-123.677 L 147.295,-123.677 M 149.013,-123.677 L 152.265,-123.677 M 154.663,-123.677 L 158.095,-123.677 M 158.095,-123.677 L 162.685,-123.677" stroke="#000000" stroke-width="1.152"/><path d=" M 0,0 L 0,-205.87 L 8.066,-205.87 L 16.131,-205.87 L 16.131,-193.341 L 28.74,-193.341 L 28.74,-205.87 L 36.806,-205.87 L 44.871,-205.87 L 44.871,-193.341 L 57.48,-193.341 L 57.48,-205.87 L 65.546,-205.87 L 73.611,-205.87 L 73.611,-144.866 L 80.227,-144.866 L 86.843,-144.866 L 86.843,-132.337 L 97.185,-132.337 L 97.185,-144.866 L 103.801,-144.866 L 110.417,-144.866 L 110.417,-83.862 L 119.118,-83.862 L 127.819,-83.862 L 127.819,-71.333 L 141.422,-71.333 L 141.422,-83.862 L 150.123,-83.862 L 158.824,-83.862 L 158.824,-71.333 L 172.427,-71.333 L 172.427,-83.862 L 181.128,-83.862 L 189.829,-83.862 L 189.829,-71.333 L 203.431,-71.333 L 203.431,-83.862 L 212.133,-83.862 L 220.834,-83.862 L 220.834,0" fill="#F2EDDE" stroke="#000000" stroke-width="1.152"/><path d=" M -2.472,0 L 223.305,0 L 223.305,-18.996 L -2.472,-18.996 L -2.472,0" fill="#E5D6B7"/><path d=" M 0,-18.996 L -2.472,-18.996 L -2.472,0 L 223.305,0 L 223.305,-18.996 L 220.834,-18.996" stroke="#000000" stroke-width="1.152" stroke-linejoin="round" stroke-linecap="square"/><path d=" M 2.304,-18.996 L 218.53,-18.996" stroke="#000000" stroke-width="1.152"/><path d=" M 0,-67.333 L 1.714,-67.333 M 7.318,-67.333 L 9.048,-67.333 M 9.959,-67.333 L 15.639,-67.333 M 19.024,-67.333 L 19.951,-67.333 M 25.548,-67.333 L 28.161,-67.333 M 31.088,-67.333 L 32.801,-67.333 M 38.406,-67.333 L 40.136,-67.333 M 41.046,-67.333 L 46.727,-67.333 M 50.112,-67.333 L 51.038,-67.333 M 56.636,-67.333 L 59.249,-67.333 M 62.175,-67.333 L 63.749,-67.333 M 0,-67.333 L 31.875,-67.333 M 220.834,-67.333 L 218.975,-67.333 M 215.128,-67.333 L 210.342,-67.333 M 208.559,-67.333 L 202.204,-67.333 M 196.13,-67.333 L 194.689,-67.333 M 193.217,-67.333 L 186.929,-67.333 M 183.943,-67.333 L 182.084,-67.333 M 178.238,-67.333 L 173.451,-67.333 M 171.668,-67.333 L 165.313,-67.333 M 159.24,-67.333 L 157.798,-67.333 M 220.834,-67.333 L 188.959,-67.333" stroke="#000000" stroke-width="1.152"/><g transform="translate(18.403 -40.831)"><path d=" M 0,0"/><path d=" M -6.421,-10.925 L 6.421,-10.925 L 6.421,10.925 L -6.421,10.925 L -6.421,-10.925" fill="#F2EDDE" stroke="#000000" stroke-width="1.152"/><path d=" M -3.83,-8.334 L 3.83,-8.334 L 3.83,8.334 L -3.83,8.334 L -3.83,-8.334" fill="#000000"/><path d=" M 0,-8.334 L 0,8.334 M -3.83,-2.778 L 3.83,-2.778 M -3.83,2.778 L 3.83,2.778" stroke="#F2EDDE" stroke-width="1.152"/><path d=" M -3.83,-8.334 L 3.83,-8.334 L 3.83,8.334 L -3.83,8.334 L -3.83,-8.334" stroke="#000000" stroke-width="1.152"/></g><g transform="translate(55.208 -40.831)"><path d=" M 0,0"/><path d=" M -6.421,-10.925 L 6.421,-10.925 L 6.421,10.925 L -6.421,10.925 L -6.421,-10.925" fill="#F2EDDE" stroke="#000000" stroke-width="1.152"/><path d=" M -3.83,-8.334 L 3.83,-8.334 L 3.83,8.334 L -3.83,8.334 L -3.83,-8.334" fill="#000000"/><path d=" M 0,-8.334 L 0,8.334 M -3.83,-2.778 L 3.83,-2.778 M -3.83,2.778 L 3.83,2.778" stroke="#F2EDDE" stroke-width="1.152"/><path d=" M -3.83,-8.334 L 3.83,-8.334 L 3.83,8.334 L -3.83,8.334 L -3.83,-8.334" stroke="#000000" stroke-width="1.152"/></g><g transform="translate(92.014 -40.831)"><path d=" M 0,0"/><path d=" M -6.421,-10.925 L 6.421,-10.925 L 6.421,10.925 L -6.421,10.925 L -6.421,-10.925" fill="#F2EDDE" stroke="#000000" stroke-width="1.152"/><path d=" M -3.83,-8.334 L 3.83,-8.334 L 3.83,8.334 L -3.83,8.334 L -3.83,-8.334" fill="#000000"/><path d=" M 0,-8.334 L 0,8.334 M -3.83,-2.778 L 3.83,-2.778 M -3.83,2.778 L 3.83,2.778" stroke="#F2EDDE" stroke-width="1.152"/><path d=" M -3.83,-8.334 L 3.83,-8.334 L 3.83,8.334 L -3.83,8.334 L -3.83,-8.334" stroke="#000000" stroke-width="1.152"/></g><g transform="translate(165.625 -10.329)"><path d=" M 0,0"/><g transform="translate(-18.403 -38.836)"><path d=" M 0,0"/><path d=" M -2.117,0 L 2.117,0 L 3.19,-8.566 L -3.19,-8.566" fill="#F2EDDE"/><path d=" M -2.117,0 L 2.117,0" stroke="#000000" stroke-width="1.152"/><path d=" M 0,-10.656 L 3.19,-8.566 L -3.19,-8.566" fill="#000000" stroke="#000000" stroke-width="1.152"/><path d=" M -2.117,0 L -3.19,-8.566 M 2.117,0 L 3.19,-8.566 M 0,0 L 0,-8.566 M 0,-10.656 L 0,-12.746" stroke="#000000" stroke-width="1.152"/></g><g transform="translate(18.403 -38.836)"><path d=" M 0,0"/><path d=" M -2.117,0 L 2.117,0 L 3.19,-8.566 L -3.19,-8.566" fill="#F2EDDE"/><path d=" M -2.117,0 L 2.117,0" stroke="#000000" stroke-width="1.152"/><path d=" M 0,-10.656 L 3.19,-8.566 L -3.19,-8.566" fill="#000000" stroke="#000000" stroke-width="1.152"/><path d=" M -2.117,0 L -3.19,-8.566 M 2.117,0 L 3.19,-8.566 M 0,0 L 0,-8.566 M 0,-10.656 L 0,-12.746" stroke="#000000" stroke-width="1.152"/></g><g><path d=" M 0,0"/><path d=" M -10.767,0 L 10.767,0 L 10.767,-41.427 L -10.767,-41.427 L -10.767,0" fill="#F2EDDE" stroke="#000000" stroke-width="1.152"/><path d=" M -8.176,0 L 8.176,0 L 8.176,-38.836 L -8.176,-38.836 L -8.176,0" fill="#E5D6B7" stroke="#000000" stroke-width="1.152"/><path d=" M -4.088,0 L -4.088,-38.836 M 0,0 L 0,-38.836 M 4.088,0 L 4.088,-38.836" stroke="#000000" stroke-width="1.152"/><path d=" M -4.088,-21.418 L -4.088,-16.418" stroke="#000000" stroke-width="2"/></g><g transform="translate(0 10.329)"><path d=" M 0,0"/><path d=" M -14.585,0 L 14.585,0 L 14.585,-10.329 L -14.585,-10.329 L -14.585,0" fill="#F2EDDE" stroke="#000000" stroke-width="1.152"/><path d=" M -14.585,-3.443 L 14.585,-3.443 M -14.585,-6.886 L 14.585,-6.886" stroke="#000000" stroke-width="1.152"/></g></g></g><g><path d=" M 0,0"/><path d=" M -3.561,-0.051 L -2.413,0.051 L -2.283,-2.627 L -2.185,-4.106 L -2.075,-5.284 L -1.898,-6.759 L -1.529,-9.422 L -1.907,-9.49 L -2.49,-6.86 L -2.788,-5.389 L -2.995,-4.204 L -3.215,-2.718 L -3.561,-0.051" fill="#000000"/><path d=" M -6.163,0.059 L -5.018,-0.059 L -5.415,-2.856 L -5.669,-4.413 L -5.91,-5.655 L -6.26,-7.193 L -6.943,-9.94 L -7.319,-9.861 L -6.849,-7.076 L -6.621,-5.533 L -6.477,-4.3 L -6.345,-2.75 L -6.163,0.059" fill="#000000"/><path d=" M -10.492,0.013 L -9.341,-0.013 L -9.505,-2.51 L -9.603,-3.899 L -9.689,-5.01 L -9.806,-6.396 L -10.028,-8.889 L -10.411,-8.871 L -10.405,-6.37 L -10.409,-4.983 L -10.419,-3.874 L -10.441,-2.487 L -10.492,0.013" fill="#000000"/><path d=" M -16.397,0.125 L -15.273,-0.125 L -15.784,-1.927 L -16.116,-2.931 L -16.436,-3.721 L -16.897,-4.674 L -17.795,-6.339 L -18.143,-6.177 L -17.448,-4.432 L -17.112,-3.466 L -16.898,-2.692 L -16.694,-1.703 L -16.397,0.125" fill="#000000"/><path d=" M -26.861,0.167 L -25.759,-0.167 L -26.586,-2.52 L -27.129,-3.818 L -27.658,-4.823 L -28.425,-6.014 L -29.922,-8.069 L -30.242,-7.856 L -28.937,-5.695 L -28.298,-4.485 L -27.884,-3.5 L -27.475,-2.222 L -26.861,0.167" fill="#000000"/><path d=" M -30.017,0.197 L -28.935,-0.197 L -29.893,-2.511 L -30.524,-3.778 L -31.139,-4.745 L -32.027,-5.867 L -33.757,-7.771 L -34.052,-7.525 L -32.504,-5.495 L -31.747,-4.349 L -31.255,-3.404 L -30.763,-2.159 L -30.017,0.197" fill="#000000"/><path d=" M -40.88,0.274 L -39.868,-0.274 L -40.928,-2.009 L -41.628,-2.938 L -42.306,-3.604 L -43.266,-4.305 L -45.105,-5.406 L -45.319,-5.088 L -43.628,-3.816 L -42.807,-3.071 L -42.275,-2.425 L -41.733,-1.52 L -40.88,0.274" fill="#000000"/><path d=" M 223.02,-0.031 L 224.171,0.031 L 224.156,-1.68 L 224.157,-2.626 L 224.171,-3.382 L 224.203,-4.329 L 224.281,-6.041 L 223.899,-6.082 L 223.606,-4.391 L 223.453,-3.446 L 223.343,-2.686 L 223.221,-1.736 L 223.02,-0.031" fill="#000000"/><path d=" M 225.885,-0.008 L 227.037,0.008 L 226.949,-1.531 L 226.903,-2.385 L 226.869,-3.068 L 226.829,-3.923 L 226.763,-5.464 L 226.379,-5.474 L 226.23,-3.938 L 226.149,-3.084 L 226.087,-2.4 L 226.013,-1.545 L 225.885,-0.008" fill="#000000"/><path d=" M 233.49,-0.119 L 234.618,0.119 L 234.899,-1.741 L 235.094,-2.75 L 235.299,-3.54 L 235.621,-4.528 L 236.287,-6.313 L 235.935,-6.467 L 235.065,-4.759 L 234.618,-3.783 L 234.308,-2.976 L 233.987,-1.954 L 233.49,-0.119" fill="#000000"/><path d=" M 241.365,-0.174 L 242.463,0.174 L 243.141,-2.31 L 243.59,-3.638 L 244.044,-4.657 L 244.743,-5.905 L 246.169,-8.128 L 245.854,-8.349 L 244.238,-6.236 L 243.411,-5.009 L 242.84,-3.969 L 242.256,-2.622 L 241.365,-0.174" fill="#000000"/><path d=" M 250.461,-0.272 L 251.477,0.272 L 252.278,-1.448 L 252.788,-2.315 L 253.288,-2.936 L 254.063,-3.655 L 255.662,-4.888 L 255.445,-5.205 L 253.697,-4.141 L 252.783,-3.464 L 252.137,-2.824 L 251.471,-1.933 L 250.461,-0.272" fill="#000000"/><path d=" M 256.647,-0.388 L 257.498,0.388 L 258.56,-0.93 L 259.192,-1.517 L 259.782,-1.862 L 260.696,-2.165 L 262.588,-2.54 L 262.536,-2.92 L 260.576,-2.772 L 259.521,-2.559 L 258.738,-2.221 L 257.909,-1.618 L 256.647,-0.388" fill="#000000"/><path d=" M -55.208,0 L -52.74,0 M -51.305,0 L -48.494,0 M -41.489,0 L -35.039,0 M -32.021,0 L -25.63,0 M -19.445,0 L -15.766,0 M -10.944,0 L -8.475,0 M -7.04,0 L -4.23,0 M 2.775,0 L 9.225,0 M 12.243,0 L 18.634,0 M 24.82,0 L 28.499,0 M 33.32,0 L 35.789,0 M 37.224,0 L 40.034,0 M 47.039,0 L 53.489,0 M 56.507,0 L 62.899,0 M 69.084,0 L 72.763,0 M 77.584,0 L 80.053,0 M 81.488,0 L 84.299,0 M 91.303,0 L 97.753,0 M 100.772,0 L 107.163,0 M 113.348,0 L 117.027,0 M 121.848,0 L 124.317,0 M 125.752,0 L 128.563,0 M 135.567,0 L 142.017,0 M 145.036,0 L 151.427,0 M 157.612,0 L 161.291,0 M 166.112,0 L 168.581,0 M 170.016,0 L 172.827,0 M 179.832,0 L 186.282,0 M 189.3,0 L 195.691,0 M 201.876,0 L 205.555,0 M 210.377,0 L 212.845,0 M 214.28,0 L 217.091,0 M 224.096,0 L 230.546,0 M 233.564,0 L 239.955,0 M 246.14,0 L 249.819,0 M 254.641,0 L 257.11,0 M 258.545,0 L 261.355,0 M 268.36,0 L 274.81,0 M -18.403,0 L 239.237,0" stroke="#000000" stroke-width="1.152"/></g></g><style/><defs/></svg>