<?xml version="1.0" encoding="UTF-8" standalone="no"?><svg width="420.834" height="694.065" xmlns="http://www.w3.org/2000/svg" stroke-linejoin="round" stroke-linecap="round" fill-rule="evenodd" fill="none"><rect x="0" y="0" width="420.834" height="694.065" fill="#F2EDDE"/><g transform="translate(100 594.065)"><path d=" M 0,0"/><g><path d=" M 0,0"/><path d=" M 55.208,-494.065 L 18.403,-437.358 L 92.014,-437.358 L 55.208,-494.065 L 55.208,-494.065" fill="#E5D6B7" stroke="#000000" stroke-width="1.152"/><path d=" M 27.006,-441.72 L 30.755,-441.72 M 30.755,-441.72 L 32.987,-441.72 M 36.268,-441.72 L 45.319,-441.72 M 45.725,-441.72 L 53.821,-441.72 M 57.09,-441.72 L 57.835,-441.72 M 61.145,-441.72 L 62.497,-441.72 M 63.426,-441.72 L 65.658,-441.72 M 68.939,-441.72 L 77.991,-441.72 M 78.396,-441.72 L 82.332,-441.72 M 82.332,-441.72 L 83.411,-441.72 M 29.837,-446.082 L 33.06,-446.082 M 33.06,-446.082 L 40.887,-446.082 M 43.855,-446.082 L 50.481,-446.082 M 53.676,-446.082 L 62.361,-446.082 M 64.445,-446.082 L 69.383,-446.082 M 73.388,-446.082 L 75.35,-446.082 M 75.35,-446.082 L 80.58,-446.082 M 32.668,-450.444 L 46.241,-450.444 M 46.241,-450.444 L 55.76,-450.444 M 60.542,-450.444 L 60.989,-450.444 M 65.207,-450.444 L 66.68,-450.444 M 66.68,-450.444 L 77.749,-450.444 M 35.499,-454.806 L 41.769,-454.806 M 41.769,-454.806 L 43.89,-454.806 M 48.209,-454.806 L 54.656,-454.806 M 57.564,-454.806 L 67.044,-454.806 M 69.323,-454.806 L 74.755,-454.806 M 74.755,-454.806 L 74.918,-454.806 M 38.331,-459.168 L 43.456,-459.168 M 43.456,-459.168 L 50.315,-459.168 M 52.518,-459.168 L 58.579,-459.168 M 62.328,-459.168 L 70.076,-459.168 M 70.347,-459.168 L 71.087,-459.168 M 71.087,-459.168 L 72.086,-459.168 M 41.162,-463.53 L 44.446,-463.53 M 44.446,-463.53 L 52.927,-463.53 M 57.252,-463.53 L 65.624,-463.53 M 68.096,-463.53 L 69.255,-463.53 M 43.993,-467.892 L 44.446,-467.892 M 44.446,-467.892 L 44.964,-467.892 M 48.151,-467.892 L 52.869,-467.892 M 53.484,-467.892 L 55.672,-467.892 M 58.098,-467.892 L 62.177,-467.892 M 63.329,-467.892 L 66.424,-467.892 M 46.824,-472.254 L 47.893,-472.254 M 47.893,-472.254 L 56.664,-472.254 M 60.057,-472.254 L 63.135,-472.254 M 63.248,-472.254 L 63.593,-472.254 M 49.655,-476.617 L 50.678,-476.617 M 50.678,-476.617 L 53.823,-476.617 M 55.386,-476.617 L 56.048,-476.617 M 59.762,-476.617 L 60.762,-476.617 M 52.487,-480.979 L 52.768,-480.979 M 52.768,-480.979 L 56.24,-480.979 M 56.24,-480.979 L 57.93,-480.979" stroke="#000000" stroke-width="1.152"/><path d=" M 110.417,-311.052 L 110.417,-254.346 L 128.82,-254.346 L 92.014,-311.052 L 110.417,-311.052" fill="#E5D6B7" stroke="#000000" stroke-width="1.152"/><path d=" M 116.189,-258.708 L 116.96,-258.708 M 116.96,-258.708 L 119.862,-258.708 M 119.862,-258.708 L 120.217,-258.708 M 116.189,-263.07 L 116.232,-263.07 M 116.232,-263.07 L 117.364,-263.07 M 117.364,-263.07 L 117.386,-263.07 M 103.448,-302.328 L 103.489,-302.328 M 103.489,-302.328 L 104.467,-302.328 M 104.467,-302.328 L 104.645,-302.328 M 100.617,-306.69 L 102.027,-306.69 M 102.027,-306.69 L 102.323,-306.69 M 102.661,-306.69 L 103.95,-306.69 M 103.95,-306.69 L 104.645,-306.69" stroke="#000000" stroke-width="1.152"/><path d=" M 147.223,-250.048 L 147.223,-193.341 L 202.431,-193.341 L 165.625,-250.048 L 147.223,-250.048" fill="#E5D6B7" stroke="#000000" stroke-width="1.152"/><path d=" M 147.223,-197.703 L 156.667,-197.703 M 156.667,-197.703 L 166.057,-197.703 M 167.326,-197.703 L 174.768,-197.703 M 177.548,-197.703 L 180.175,-197.703 M 180.175,-197.703 L 193.828,-197.703 M 147.223,-202.065 L 156.976,-202.065 M 156.976,-202.065 L 157.678,-202.065 M 158.35,-202.065 L 161.719,-202.065 M 162.268,-202.065 L 169.106,-202.065 M 173.343,-202.065 L 178.358,-202.065 M 183.187,-202.065 L 186.016,-202.065 M 186.016,-202.065 L 190.997,-202.065 M 147.223,-206.427 L 151.495,-206.427 M 151.495,-206.427 L 160.147,-206.427 M 163.553,-206.427 L 172.705,-206.427 M 175.538,-206.427 L 180.453,-206.427 M 181.736,-206.427 L 188.166,-206.427 M 147.223,-210.789 L 149.092,-210.789 M 149.092,-210.789 L 153.793,-210.789 M 156.576,-210.789 L 162.165,-210.789 M 167.013,-210.789 L 167.14,-210.789 M 168.186,-210.789 L 171.659,-210.789 M 172.932,-210.789 L 178.158,-210.789 M 179.009,-210.789 L 181.5,-210.789 M 181.5,-210.789 L 185.334,-210.789 M 147.223,-215.151 L 149.056,-215.151 M 149.056,-215.151 L 153.37,-215.151 M 154.476,-215.151 L 161.553,-215.151 M 164.226,-215.151 L 169.05,-215.151 M 170.42,-215.151 L 179.901,-215.151 M 180.843,-215.151 L 180.945,-215.151 M 180.945,-215.151 L 182.503,-215.151 M 147.223,-219.514 L 147.921,-219.514 M 147.921,-219.514 L 150.098,-219.514 M 152.257,-219.514 L 161.189,-219.514 M 162.489,-219.514 L 163.454,-219.514 M 164.001,-219.514 L 171.144,-219.514 M 174.537,-219.514 L 178.408,-219.514 M 178.408,-219.514 L 179.672,-219.514 M 147.223,-223.876 L 149.451,-223.876 M 149.451,-223.876 L 153.956,-223.876 M 154.324,-223.876 L 154.872,-223.876 M 156.036,-223.876 L 160.625,-223.876 M 163.379,-223.876 L 164.158,-223.876 M 165.614,-223.876 L 166.983,-223.876 M 170.107,-223.876 L 174.612,-223.876 M 174.98,-223.876 L 175.528,-223.876 M 176.263,-223.876 L 176.841,-223.876 M 147.223,-228.238 L 148.984,-228.238 M 148.984,-228.238 L 151.325,-228.238 M 155.627,-228.238 L 161.69,-228.238 M 166.082,-228.238 L 173.205,-228.238 M 173.205,-228.238 L 174.01,-228.238 M 147.223,-232.6 L 148.084,-232.6 M 148.084,-232.6 L 156.162,-232.6 M 159.093,-232.6 L 162.555,-232.6 M 164.354,-232.6 L 170.011,-232.6 M 170.011,-232.6 L 171.178,-232.6 M 147.223,-236.962 L 147.998,-236.962 M 147.998,-236.962 L 148.783,-236.962 M 152.583,-236.962 L 152.623,-236.962 M 154.46,-236.962 L 159.508,-236.962 M 159.713,-236.962 L 165.405,-236.962 M 166.389,-236.962 L 168.347,-236.962 M 147.223,-241.324 L 148.708,-241.324 M 148.708,-241.324 L 155.339,-241.324 M 159.263,-241.324 L 164.805,-241.324 M 164.805,-241.324 L 165.516,-241.324 M 147.223,-245.686 L 150.098,-245.686 M 150.098,-245.686 L 155.964,-245.686 M 157.656,-245.686 L 159.584,-245.686 M 159.783,-245.686 L 162.685,-245.686" stroke="#000000" stroke-width="1.152"/><path d=" M 0,0 L 0,-449.887 L 8.701,-449.887 L 17.402,-449.887 L 17.402,-437.358 L 31.005,-437.358 L 31.005,-449.887 L 39.706,-449.887 L 48.407,-449.887 L 48.407,-437.358 L 62.01,-437.358 L 62.01,-449.887 L 70.711,-449.887 L 79.412,-449.887 L 79.412,-437.358 L 93.015,-437.358 L 93.015,-449.887 L 101.716,-449.887 L 110.417,-449.887 L 110.417,-266.875 L 117.033,-266.875 L 123.649,-266.875 L 123.649,-254.346 L 133.991,-254.346 L 133.991,-266.875 L 140.607,-266.875 L 147.223,-266.875 L 147.223,-205.87 L 155.288,-205.87 L 163.354,-205.87 L 163.354,-193.341 L 175.963,-193.341 L 175.963,-205.87 L 184.028,-205.87 L 192.094,-205.87 L 192.094,-193.341 L 204.703,-193.341 L 204.703,-205.87 L 212.768,-205.87 L 220.834,-205.87 L 220.834,0" fill="#F2EDDE" stroke="#000000" stroke-width="1.152"/><path d=" M -2.472,0 L 223.305,0 L 223.305,-18.996 L -2.472,-18.996 L -2.472,0" fill="#E5D6B7"/><path d=" M 0,-18.996 L -2.472,-18.996 L -2.472,0 L 223.305,0 L 223.305,-18.996 L 220.834,-18.996" stroke="#000000" stroke-width="1.152" stroke-linejoin="round" stroke-linecap="square"/><path d=" M 2.304,-18.996 L 218.53,-18.996" stroke="#000000" stroke-width="1.152"/><path d=" M 0,-67.333 L 2.935,-67.333 M 8.739,-67.333 L 9.749,-67.333 M 12.307,-67.333 L 18.385,-67.333 M 22.804,-67.333 L 28.735,-67.333 M 31.838,-67.333 L 31.926,-67.333 M 36.933,-67.333 L 39.867,-67.333 M 45.671,-67.333 L 46.682,-67.333 M 49.24,-67.333 L 55.317,-67.333 M 59.736,-67.333 L 63.749,-67.333 M 0,-67.333 L 31.875,-67.333 M 220.834,-67.333 L 219.902,-67.333 M 215.583,-67.333 L 212.618,-67.333 M 211.959,-67.333 L 209.135,-67.333 M 207.393,-67.333 L 202.056,-67.333 M 200.926,-67.333 L 196.816,-67.333 M 193.043,-67.333 L 192.111,-67.333 M 187.793,-67.333 L 184.828,-67.333 M 184.168,-67.333 L 181.344,-67.333 M 179.602,-67.333 L 174.266,-67.333 M 173.135,-67.333 L 169.026,-67.333 M 165.252,-67.333 L 164.32,-67.333 M 160.002,-67.333 L 157.085,-67.333 M 220.834,-67.333 L 188.959,-67.333" stroke="#000000" stroke-width="1.152"/><g transform="translate(55.208 -101.835)"><path d=" M 0,0"/><path d=" M -6.421,-10.925 L 6.421,-10.925 L 6.421,10.925 L -6.421,10.925 L -6.421,-10.925" fill="#F2EDDE" stroke="#000000" stroke-width="1.152"/><path d=" M -3.83,-8.334 L 3.83,-8.334 L 3.83,8.334 L -3.83,8.334 L -3.83,-8.334" fill="#000000"/><path d=" M 0,-8.334 L 0,8.334 M -3.83,-2.778 L 3.83,-2.778 M -3.83,2.778 L 3.83,2.778" stroke="#F2EDDE" stroke-width="1.152"/><path d=" M -3.83,-8.334 L 3.83,-8.334 L 3.83,8.334 L -3.83,8.334 L -3.83,-8.334" stroke="#000000" stroke-width="1.152"/></g><g transform="translate(55.208 -223.843)"><path d=" M 0,0"/><path d=" M -6.421,-10.925 L 6.421,-10.925 L 6.421,10.925 L -6.421,10.925 L -6.421,-10.925" fill="#F2EDDE" stroke="#000000" stroke-width="1.152"/><path d=" M -3.83,-8.334 L 3.83,-8.334 L 3.83,8.334 L -3.83,8.334 L -3.83,-8.334" fill="#000000"/><path d=" M 0,-8.334 L 0,8.334 M -3.83,-2.778 L 3.83,-2.778 M -3.83,2.778 L 3.83,2.778" stroke="#F2EDDE" stroke-width="1.152"/><path d=" M -3.83,-8.334 L 3.83,-8.334 L 3.83,8.334 L -3.83,8.334 L -3.83,-8.334" stroke="#000000" stroke-width="1.152"/></g><g transform="translate(55.208 -406.856)"><path d=" M 0,0"/><path d=" M -6.421,-10.925 L 6.421,-10.925 L 6.421,10.925 L -6.421,10.925 L -6.421,-10.925" fill="#F2EDDE" stroke="#000000" stroke-width="1.152"/><path d=" M -3.83,-8.334 L 3.83,-8.334 L 3.83,8.334 L -3.83,8.334 L -3.83,-8.334" fill="#000000"/><path d=" M 0,-8.334 L 0,8.334 M -3.83,-2.778 L 3.83,-2.778 M -3.83,2.778 L 3.83,2.778" stroke="#F2EDDE" stroke-width="1.152"/><path d=" M -3.83,-8.334 L 3.83,-8.334 L 3.83,8.334 L -3.83,8.334 L -3.83,-8.334" stroke="#000000" stroke-width="1.152"/></g><g transform="translate(92.014 -101.835)"><path d=" M 0,0"/><path d=" M -6.421,-10.925 L 6.421,-10.925 L 6.421,10.925 L -6.421,10.925 L -6.421,-10.925" fill="#F2EDDE" stroke="#000000" stroke-width="1.152"/><path d=" M -3.83,-8.334 L 3.83,-8.334 L 3.83,8.334 L -3.83,8.334 L -3.83,-8.334" fill="#000000"/><path d=" M 0,-8.334 L 0,8.334 M -3.83,-2.778 L 3.83,-2.778 M -3.83,2.778 L 3.83,2.778" stroke="#F2EDDE" stroke-width="1.152"/><path d=" M -3.83,-8.334 L 3.83,-8.334 L 3.83,8.334 L -3.83,8.334 L -3.83,-8.334" stroke="#000000" stroke-width="1.152"/></g><g transform="translate(92.014 -223.843)"><path d=" M 0,0"/><path d=" M -6.421,-10.925 L 6.421,-10.925 L 6.421,10.925 L -6.421,10.925 L -6.421,-10.925" fill="#F2EDDE" stroke="#000000" stroke-width="1.152"/><path d=" M -3.83,-8.334 L 3.83,-8.334 L 3.83,8.334 L -3.83,8.334 L -3.83,-8.334" fill="#000000"/><path d=" M 0,-8.334 L 0,8.334 M -3.83,-2.778 L 3.83,-2.778 M -3.83,2.778 L 3.83,2.778" stroke="#F2EDDE" stroke-width="1.152"/><path d=" M -3.83,-8.334 L 3.83,-8.334 L 3.83,8.334 L -3.83,8.334 L -3.83,-8.334" stroke="#000000" stroke-width="1.152"/></g><g transform="translate(92.014 -406.856)"><path d=" M 0,0"/><path d=" M -6.421,-10.925 L 6.421,-10.925 L 6.421,10.925 L -6.421,10.925 L -6.421,-10.925" fill="#F2EDDE" stroke="#000000" stroke-width="1.152"/><path d=" M -3.83,-8.334 L 3.83,-8.334 L 3.83,8.334 L -3.83,8.334 L -3.83,-8.334" fill="#000000"/><path d=" M 0,-8.334 L 0,8.334 M -3.83,-2.778 L 3.83,-2.778 M -3.83,2.778 L 3.83,2.778" stroke="#F2EDDE" stroke-width="1.152"/><path d=" M -3.83,-8.334 L 3.83,-8.334 L 3.83,8.334 L -3.83,8.334 L -3.83,-8.334" stroke="#000000" stroke-width="1.152"/></g><g transform="translate(128.82 -101.835)"><path d=" M 0,0"/><path d=" M -6.421,-10.925 L 6.421,-10.925 L 6.421,10.925 L -6.421,10.925 L -6.421,-10.925" fill="#F2EDDE" stroke="#000000" stroke-width="1.152"/><path d=" M -3.83,-8.334 L 3.83,-8.334 L 3.83,8.334 L -3.83,8.334 L -3.83,-8.334" fill="#000000"/><path d=" M 0,-8.334 L 0,8.334 M -3.83,-2.778 L 3.83,-2.778 M -3.83,2.778 L 3.83,2.778" stroke="#F2EDDE" stroke-width="1.152"/><path d=" M -3.83,-8.334 L 3.83,-8.334 L 3.83,8.334 L -3.83,8.334 L -3.83,-8.334" stroke="#000000" stroke-width="1.152"/></g><g transform="translate(165.625 -101.835)"><path d=" M 0,0"/><path d=" M -6.421,-10.925 L 6.421,-10.925 L 6.421,10.925 L -6.421,10.925 L -6.421,-10.925" fill="#F2EDDE" stroke="#000000" stroke-width="1.152"/><path d=" M -3.83,-8.334 L 3.83,-8.334 L 3.83,8.334 L -3.83,8.334 L -3.83,-8.334" fill="#000000"/><path d=" M 0,-8.334 L 0,8.334 M -3.83,-2.778 L 3.83,-2.778 M -3.83,2.778 L 3.83,2.778" stroke="#F2EDDE" stroke-width="1.152"/><path d=" M -3.83,-8.334 L 3.83,-8.334 L 3.83,8.334 L -3.83,8.334 L -3.83,-8.334" stroke="#000000" stroke-width="1.152"/></g><g transform="translate(202.431 -101.835)"><path d=" M 0,0"/><path d=" M -6.421,-10.925 L 6.421,-10.925 L 6.421,10.925 L -6.421,10.925 L -6.421,-10.925" fill="#F2EDDE" stroke="#000000" stroke-width="1.152"/><path d=" M -3.83,-8.334 L 3.83,-8.334 L 3.83,8.334 L -3.83,8.334 L -3.83,-8.334" fill="#000000"/><path d=" M 0,-8.334 L 0,8.334 M -3.83,-2.778 L 3.83,-2.778 M -3.83,2.778 L 3.83,2.778" stroke="#F2EDDE" stroke-width="1.152"/><path d=" M -3.83,-8.334 L 3.83,-8.334 L 3.83,8.334 L -3.83,8.334 L -3.83,-8.334" stroke="#000000" stroke-width="1.152"/></g></g><g><path d=" M 0,0"/><path d=" M -3.801,0.061 L -2.656,-0.061 L -2.974,-2.014 L -3.175,-3.103 L -3.364,-3.972 L -3.635,-5.045 L -4.16,-6.956 L -4.535,-6.874 L -4.223,-4.924 L -4.074,-3.845 L -3.983,-2.985 L -3.904,-1.904 L -3.801,0.061" fill="#000000"/><path d=" M -9.662,0.105 L -8.53,-0.105 L -9.11,-2.648 L -9.487,-4.062 L -9.852,-5.181 L -10.383,-6.547 L -11.423,-8.96 L -11.781,-8.822 L -10.948,-6.342 L -10.541,-4.966 L -10.28,-3.862 L -10.028,-2.461 L -9.662,0.105" fill="#000000"/><path d=" M -24.517,0.376 L -23.644,-0.376 L -24.886,-1.659 L -25.703,-2.296 L -26.478,-2.671 L -27.529,-2.938 L -29.49,-3.191 L -29.562,-2.814 L -27.68,-2.339 L -26.77,-1.988 L -26.182,-1.612 L -25.558,-0.991 L -24.517,0.376" fill="#000000"/><path d=" M 223.517,-0.043 L 224.666,0.043 L 224.727,-2.247 L 224.78,-3.512 L 224.844,-4.521 L 224.953,-5.786 L 225.184,-8.069 L 224.804,-8.126 L 224.359,-5.87 L 224.129,-4.609 L 223.968,-3.594 L 223.794,-2.323 L 223.517,-0.043" fill="#000000"/><path d=" M 225.445,-0.055 L 226.591,0.055 L 226.732,-2.544 L 226.837,-3.978 L 226.953,-5.12 L 227.14,-6.55 L 227.529,-9.131 L 227.152,-9.204 L 226.55,-6.658 L 226.241,-5.233 L 226.027,-4.083 L 225.801,-2.642 L 225.445,-0.055" fill="#000000"/><path d=" M 229.653,-0.023 L 230.804,0.023 L 230.786,-2.192 L 230.786,-3.42 L 230.798,-4.401 L 230.829,-5.63 L 230.901,-7.846 L 230.519,-7.877 L 230.23,-5.676 L 230.08,-4.449 L 229.972,-3.465 L 229.851,-2.234 L 229.653,-0.023" fill="#000000"/><path d=" M 235.894,-0.092 L 237.032,0.092 L 237.149,-1.315 L 237.237,-2.081 L 237.336,-2.685 L 237.499,-3.445 L 237.841,-4.827 L 237.477,-4.948 L 236.925,-3.625 L 236.64,-2.873 L 236.439,-2.256 L 236.227,-1.479 L 235.894,-0.092" fill="#000000"/><path d=" M 241.716,-0.094 L 242.853,0.094 L 243.16,-2.441 L 243.374,-3.828 L 243.599,-4.925 L 243.95,-6.294 L 244.669,-8.764 L 244.305,-8.887 L 243.377,-6.477 L 242.903,-5.116 L 242.577,-4.007 L 242.239,-2.608 L 241.716,-0.094" fill="#000000"/><path d=" M 257.389,-0.213 L 258.459,0.213 L 259.363,-2.342 L 259.955,-3.686 L 260.544,-4.696 L 261.447,-5.907 L 263.287,-8.036 L 263.007,-8.298 L 260.99,-6.305 L 259.955,-5.121 L 259.238,-4.089 L 258.504,-2.723 L 257.389,-0.213" fill="#000000"/><path d=" M 261.892,-0.308 L 262.865,0.308 L 263.78,-1.334 L 264.352,-2.138 L 264.906,-2.691 L 265.764,-3.303 L 267.533,-4.312 L 267.361,-4.655 L 265.464,-3.836 L 264.466,-3.278 L 263.753,-2.71 L 263.013,-1.882 L 261.892,-0.308" fill="#000000"/><path d=" M -55.208,0 L -53.86,0 M -49.783,0 L -49.446,0 M -47.544,0 L -44.753,0 M -40.497,0 L -40.434,0 M -38.132,0 L -35.926,0 M -32.682,0 L -31.333,0 M -27.257,0 L -26.92,0 M -25.018,0 L -22.226,0 M -17.971,0 L -17.908,0 M -15.605,0 L -13.4,0 M -10.156,0 L -8.807,0 M -4.731,0 L -4.393,0 M -2.492,0 L 0.3,0 M 4.556,0 L 4.618,0 M 6.921,0 L 9.127,0 M 12.371,0 L 13.72,0 M 17.796,0 L 18.133,0 M 20.035,0 L 22.826,0 M 27.082,0 L 27.145,0 M 29.447,0 L 31.653,0 M 34.897,0 L 36.246,0 M 40.322,0 L 40.66,0 M 42.561,0 L 45.353,0 M 49.608,0 L 49.671,0 M 51.974,0 L 54.18,0 M 57.424,0 L 58.773,0 M 62.849,0 L 63.186,0 M 65.088,0 L 67.879,0 M 72.135,0 L 72.198,0 M 74.5,0 L 76.706,0 M 79.95,0 L 81.299,0 M 85.375,0 L 85.713,0 M 87.614,0 L 90.406,0 M 94.661,0 L 94.724,0 M 97.027,0 L 99.233,0 M 102.477,0 L 103.825,0 M 107.902,0 L 108.239,0 M 110.141,0 L 112.932,0 M 117.188,0 L 117.251,0 M 119.553,0 L 121.759,0 M 125.003,0 L 126.352,0 M 130.428,0 L 130.766,0 M 132.667,0 L 135.459,0 M 139.714,0 L 139.777,0 M 142.08,0 L 144.286,0 M 147.53,0 L 148.878,0 M 152.955,0 L 153.292,0 M 155.194,0 L 157.985,0 M 162.241,0 L 162.304,0 M 164.606,0 L 166.812,0 M 170.056,0 L 171.405,0 M 175.481,0 L 175.819,0 M 177.72,0 L 180.512,0 M 184.767,0 L 184.83,0 M 187.133,0 L 189.338,0 M 192.582,0 L 193.931,0 M 198.007,0 L 198.345,0 M 200.246,0 L 203.038,0 M 207.294,0 L 207.356,0 M 209.659,0 L 211.865,0 M 215.109,0 L 216.458,0 M 220.534,0 L 220.871,0 M 222.773,0 L 225.564,0 M 229.82,0 L 229.883,0 M 232.185,0 L 234.391,0 M 237.635,0 L 238.984,0 M 243.06,0 L 243.398,0 M 245.299,0 L 248.091,0 M 252.346,0 L 252.409,0 M 254.712,0 L 256.918,0 M 260.162,0 L 261.511,0 M 265.587,0 L 265.924,0 M 267.826,0 L 270.617,0 M 274.873,0 L 274.936,0 M -18.403,0 L 239.237,0" stroke="#000000" stroke-width="1.152"/></g><g><path d=" M 0,0"/><path d=" M -24.555,0 L 24.555,0 L 24.555,-18.996 L -24.555,-18.996 L -24.555,0" fill="#E5D6B7"/><path d=" M -22.083,-18.996 L 22.083,-18.996 L 22.083,-437.358 L -22.083,-437.358 L -22.083,-18.996" fill="#F2EDDE"/><path d=" M -24.555,0 L -24.555,-18.996 L -22.083,-18.996 L -22.083,-437.358 L 22.083,-437.358 L 22.083,-18.996 L 24.555,-18.996 L 24.555,0" stroke="#000000" stroke-width="1.152"/><path d=" M -19.779,-18.996 L 19.779,-18.996" stroke="#000000" stroke-width="1.152"/><path d=" M -22.083,-67.333 L -21.278,-67.333 M -20.676,-67.333 L -19.683,-67.333 M -19.598,-67.333 L -19.212,-67.333 M -19.129,-67.333 L -18.184,-67.333 M -16.964,-67.333 L -16.942,-67.333 M -15.672,-67.333 L -14.867,-67.333 M -14.265,-67.333 L -13.272,-67.333 M -13.187,-67.333 L -12.8,-67.333 M -12.718,-67.333 L -11.773,-67.333 M -10.553,-67.333 L -10.531,-67.333 M -22.083,-67.333 L -17.667,-67.333 M 22.083,-67.333 L 20.714,-67.333 M 19.417,-67.333 L 18.141,-67.333 M 17.344,-67.333 L 16.082,-67.333 M 15.253,-67.333 L 14.962,-67.333 M 14.758,-67.333 L 13.645,-67.333 M 13.602,-67.333 L 12.233,-67.333 M 10.936,-67.333 L 10.306,-67.333 M 22.083,-67.333 L 17.667,-67.333 M -22.083,-128.337 L -21.648,-128.337 M -21.184,-128.337 L -20.031,-128.337 M -19.304,-128.337 L -18.393,-128.337 M -17.254,-128.337 L -15.86,-128.337 M -15.527,-128.337 L -14.171,-128.337 M -13.969,-128.337 L -13.533,-128.337 M -13.07,-128.337 L -11.917,-128.337 M -11.189,-128.337 L -10.306,-128.337 M -22.083,-128.337 L -17.667,-128.337 M 22.083,-128.337 L 21.971,-128.337 M 21.35,-128.337 L 20.674,-128.337 M 20.239,-128.337 L 19.437,-128.337 M 19.408,-128.337 L 18.568,-128.337 M 18.483,-128.337 L 17.149,-128.337 M 16.173,-128.337 L 16.061,-128.337 M 15.439,-128.337 L 14.763,-128.337 M 14.328,-128.337 L 13.526,-128.337 M 13.497,-128.337 L 12.657,-128.337 M 12.572,-128.337 L 11.238,-128.337 M 22.083,-128.337 L 17.667,-128.337 M -22.083,-189.341 L -20.834,-189.341 M -20.802,-189.341 L -20.123,-189.341 M -19.517,-189.341 L -19.517,-189.341 M -19.171,-189.341 L -18.736,-189.341 M -17.745,-189.341 L -17.519,-189.341 M -17.483,-189.341 L -16.234,-189.341 M -16.202,-189.341 L -15.523,-189.341 M -14.917,-189.341 L -14.917,-189.341 M -14.571,-189.341 L -14.136,-189.341 M -13.145,-189.341 L -12.919,-189.341 M -12.883,-189.341 L -11.634,-189.341 M -11.602,-189.341 L -10.923,-189.341 M -10.317,-189.341 L -10.317,-189.341 M -22.083,-189.341 L -17.667,-189.341 M 22.083,-189.341 L 21.936,-189.341 M 20.617,-189.341 L 20.091,-189.341 M 18.958,-189.341 L 18.914,-189.341 M 18.675,-189.341 L 18.497,-189.341 M 17.896,-189.341 L 16.599,-189.341 M 15.258,-189.341 L 15.11,-189.341 M 13.791,-189.341 L 13.265,-189.341 M 12.132,-189.341 L 12.088,-189.341 M 11.849,-189.341 L 11.672,-189.341 M 11.07,-189.341 L 10.306,-189.341 M 22.083,-189.341 L 17.667,-189.341 M -22.083,-250.346 L -21.746,-250.346 M -20.959,-250.346 L -20.159,-250.346 M -20.124,-250.346 L -19.328,-250.346 M -18.664,-250.346 L -18.126,-250.346 M -17.824,-250.346 L -16.585,-250.346 M -16.111,-250.346 L -15.773,-250.346 M -14.987,-250.346 L -14.186,-250.346 M -14.151,-250.346 L -13.356,-250.346 M -12.691,-250.346 L -12.153,-250.346 M -11.852,-250.346 L -10.612,-250.346 M -22.083,-250.346 L -17.667,-250.346 M 22.083,-250.346 L 21.122,-250.346 M 20.668,-250.346 L 19.449,-250.346 M 18.56,-250.346 L 17.509,-250.346 M 16.244,-250.346 L 15.182,-250.346 M 14.247,-250.346 L 12.832,-250.346 M 12.496,-250.346 L 11.536,-250.346 M 11.081,-250.346 L 10.306,-250.346 M 22.083,-250.346 L 17.667,-250.346 M -22.083,-311.35 L -20.996,-311.35 M -20.002,-311.35 L -19.32,-311.35 M -18.991,-311.35 L -17.983,-311.35 M -17.873,-311.35 L -16.471,-311.35 M -16.273,-311.35 L -16.005,-311.35 M -15.883,-311.35 L -14.795,-311.35 M -13.801,-311.35 L -13.119,-311.35 M -12.791,-311.35 L -11.782,-311.35 M -11.673,-311.35 L -10.306,-311.35 M -22.083,-311.35 L -17.667,-311.35 M 22.083,-311.35 L 20.718,-311.35 M 19.335,-311.35 L 18.893,-311.35 M 17.749,-311.35 L 17.327,-311.35 M 15.883,-311.35 L 14.679,-311.35 M 14.517,-311.35 L 13.132,-311.35 M 12.494,-311.35 L 11.129,-311.35 M 22.083,-311.35 L 17.667,-311.35 M -22.083,-372.354 L -21.542,-372.354 M -20.743,-372.354 L -19.441,-372.354 M -18.14,-372.354 L -17.31,-372.354 M -17.215,-372.354 L -16.431,-372.354 M -15.375,-372.354 L -15.343,-372.354 M -14.616,-372.354 L -14.074,-372.354 M -13.275,-372.354 L -11.973,-372.354 M -10.672,-372.354 L -10.306,-372.354 M -22.083,-372.354 L -17.667,-372.354 M 22.083,-372.354 L 21.046,-372.354 M 20.823,-372.354 L 20.31,-372.354 M 19.113,-372.354 L 18.538,-372.354 M 17.5,-372.354 L 16.51,-372.354 M 15.249,-372.354 L 14.265,-372.354 M 13.896,-372.354 L 12.859,-372.354 M 12.636,-372.354 L 12.123,-372.354 M 10.925,-372.354 L 10.351,-372.354 M 22.083,-372.354 L 17.667,-372.354 M -22.083,-433.358 L -21.497,-433.358 M -19.886,-433.358 L -18.902,-433.358 M -18.881,-433.358 L -18.877,-433.358 M -17.147,-433.358 L -16.029,-433.358 M -14.336,-433.358 L -12.703,-433.358 M -11.689,-433.358 L -11.103,-433.358 M -9.492,-433.358 L -8.508,-433.358 M -8.487,-433.358 L -8.483,-433.358 M -6.753,-433.358 L -5.635,-433.358 M -3.942,-433.358 L -2.31,-433.358 M -1.296,-433.358 L -0.709,-433.358 M -22.083,-433.358 L -11.042,-433.358 M 22.083,-433.358 L 20.92,-433.358 M 19.837,-433.358 L 18.578,-433.358 M 16.893,-433.358 L 14.809,-433.358 M 14.099,-433.358 L 13.955,-433.358 M 12.655,-433.358 L 11.978,-433.358 M 11.909,-433.358 L 10.746,-433.358 M 9.662,-433.358 L 8.404,-433.358 M 6.719,-433.358 L 4.634,-433.358 M 3.925,-433.358 L 3.78,-433.358 M 2.481,-433.358 L 1.804,-433.358 M 1.735,-433.358 L 0.572,-433.358 M 22.083,-433.358 L 11.042,-433.358" stroke="#000000" stroke-width="1.152"/><path d=" M 24.555,-437.358 L -24.555,-437.358 L -20.585,-443.475 L 0,-537.577 L 20.585,-443.475 L 24.555,-437.358" fill="#E5D6B7" stroke="#000000" stroke-width="1.152"/><path d=" M -24.555,-437.358 L -20.81,-437.358 M -20.81,-437.358 L -17.516,-437.358 M -14.244,-437.358 L -14.186,-437.358 M -9.642,-437.358 L -8.231,-437.358 M -3.804,-437.358 L 0.034,-437.358 M 4.517,-437.358 L 6.358,-437.358 M 10.634,-437.358 L 13.927,-437.358 M 17.199,-437.358 L 17.257,-437.358 M 21.128,-437.358 L 24.555,-437.358 M -20.585,-443.475 L -15.803,-443.475 M -15.803,-443.475 L -13.694,-443.475 M -10.045,-443.475 L -7.169,-443.475 M -7.151,-443.475 L -2.459,-443.475 M -2.342,-443.475 L 0.138,-443.475 M 1.67,-443.475 L 1.848,-443.475 M 2.37,-443.475 L 4.479,-443.475 M 8.128,-443.475 L 11.004,-443.475 M 11.022,-443.475 L 15.629,-443.475 M 15.629,-443.475 L 20.585,-443.475 M -19.649,-447.753 L -16.966,-447.753 M -16.966,-447.753 L -14.239,-447.753 M -13.808,-447.753 L -12.178,-447.753 M -8.866,-447.753 L -7.035,-447.753 M -5.88,-447.753 L -5.782,-447.753 M -3.191,-447.753 L 0.96,-447.753 M 2.123,-447.753 L 4.851,-447.753 M 5.282,-447.753 L 6.911,-447.753 M 10.224,-447.753 L 12.006,-447.753 M 12.006,-447.753 L 19.649,-447.753 M -18.713,-452.03 L -15.922,-452.03 M -15.922,-452.03 L -14.136,-452.03 M -10.571,-452.03 L -6.209,-452.03 M -1.828,-452.03 L 2.074,-452.03 M 5.266,-452.03 L 9.021,-452.03 M 9.021,-452.03 L 18.713,-452.03 M -17.778,-456.307 L -11.923,-456.307 M -11.923,-456.307 L -8.197,-456.307 M -4.633,-456.307 L -1.805,-456.307 M 0.86,-456.307 L 2.549,-456.307 M 3.427,-456.307 L 5.79,-456.307 M 8.954,-456.307 L 9.635,-456.307 M 11.662,-456.307 L 15.387,-456.307 M 16.239,-456.307 L 17.778,-456.307 M -16.842,-460.585 L -11.977,-460.585 M -11.977,-460.585 L -7.493,-460.585 M -4.475,-460.585 L -3.364,-460.585 M -2.632,-460.585 L -0.795,-460.585 M 2.483,-460.585 L 6.841,-460.585 M 10.532,-460.585 L 16.842,-460.585 M -15.906,-464.862 L -12.877,-464.862 M -12.877,-464.862 L -8.194,-464.862 M -3.697,-464.862 L -1.138,-464.862 M 2.094,-464.862 L 5.593,-464.862 M 7.044,-464.862 L 8.37,-464.862 M 11.342,-464.862 L 15.906,-464.862 M -14.971,-469.139 L -13.052,-469.139 M -13.052,-469.139 L -9.574,-469.139 M -6.12,-469.139 L -4.384,-469.139 M -3.16,-469.139 L 0.648,-469.139 M 1.817,-469.139 L 3.871,-469.139 M 5.687,-469.139 L 14.971,-469.139 M -14.035,-473.417 L -10.254,-473.417 M -10.254,-473.417 L -8.896,-473.417 M -6.709,-473.417 L -4.416,-473.417 M -1.425,-473.417 L 2.561,-473.417 M 6.644,-473.417 L 6.957,-473.417 M 10.245,-473.417 L 10.568,-473.417 M 10.568,-473.417 L 14.035,-473.417 M -13.099,-477.694 L -9.399,-477.694 M -9.399,-477.694 L -6.873,-477.694 M -3.191,-477.694 L -2.67,-477.694 M 0.061,-477.694 L 1.784,-477.694 M 4.876,-477.694 L 8.883,-477.694 M 12.616,-477.694 L 12.708,-477.694 M 12.708,-477.694 L 13.099,-477.694 M -12.164,-481.971 L -10.615,-481.971 M -10.615,-481.971 L -7.81,-481.971 M -4.432,-481.971 L -4.242,-481.971 M -2.071,-481.971 L 1.052,-481.971 M 4.214,-481.971 L 7.615,-481.971 M 8.827,-481.971 L 11.149,-481.971 M 11.149,-481.971 L 12.164,-481.971 M -11.228,-486.249 L -8.548,-486.249 M -8.548,-486.249 L -8.546,-486.249 M -7.859,-486.249 L -4.391,-486.249 M -4.019,-486.249 L -0.899,-486.249 M 2.433,-486.249 L 3.708,-486.249 M 3.956,-486.249 L 6.861,-486.249 M 9.407,-486.249 L 11.228,-486.249 M -10.292,-490.526 L -8.894,-490.526 M -8.894,-490.526 L -4.924,-490.526 M -0.121,-490.526 L 1.596,-490.526 M 2.789,-490.526 L 2.79,-490.526 M 5.464,-490.526 L 8.868,-490.526 M 8.979,-490.526 L 9.399,-490.526 M 9.399,-490.526 L 10.292,-490.526 M -9.357,-494.803 L -6.285,-494.803 M -6.285,-494.803 L -4.945,-494.803 M -0.05,-494.803 L 1.288,-494.803 M 1.893,-494.803 L 4.019,-494.803 M 5.794,-494.803 L 6.15,-494.803 M 7.664,-494.803 L 9.357,-494.803 M -8.421,-499.081 L -8.069,-499.081 M -8.069,-499.081 L -5.059,-499.081 M -1.297,-499.081 L -1.181,-499.081 M 2.985,-499.081 L 5.372,-499.081 M 5.407,-499.081 L 5.493,-499.081 M 5.493,-499.081 L 8.421,-499.081 M -7.485,-503.358 L -7.404,-503.358 M -7.404,-503.358 L -5.49,-503.358 M -5.43,-503.358 L -3.929,-503.358 M -2.116,-503.358 L -0.013,-503.358 M 1.422,-503.358 L 1.941,-503.358 M 4.886,-503.358 L 5.338,-503.358 M 6.337,-503.358 L 7.142,-503.358 M 7.142,-503.358 L 7.485,-503.358 M -6.55,-507.635 L -5.863,-507.635 M -5.863,-507.635 L -4.465,-507.635 M -3.368,-507.635 L 0.712,-507.635 M 4.842,-507.635 L 6.55,-507.635 M -5.614,-511.913 L -4.74,-511.913 M -4.74,-511.913 L -4.008,-511.913 M -3.123,-511.913 L 1.405,-511.913 M 4.286,-511.913 L 5.614,-511.913 M -4.678,-516.19 L -3.501,-516.19 M -3.501,-516.19 L -2.608,-516.19 M 2.245,-516.19 L 3.818,-516.19 M 3.818,-516.19 L 4.678,-516.19 M -3.743,-520.467 L -3.018,-520.467 M -3.018,-520.467 L 0.886,-520.467 M 2.667,-520.467 L 3.405,-520.467 M 3.405,-520.467 L 3.743,-520.467 M -2.807,-524.745 L -1.931,-524.745 M -1.931,-524.745 L 2.175,-524.745 M 2.175,-524.745 L 2.807,-524.745 M -1.871,-529.022 L -1.496,-529.022 M -1.496,-529.022 L 0.735,-529.022 M 0.878,-529.022 L 1.507,-529.022 M 1.507,-529.022 L 1.871,-529.022 M -0.936,-533.299 L -0.906,-533.299 M -0.906,-533.299 L 0.718,-533.299 M 0.718,-533.299 L 0.936,-533.299" stroke="#000000" stroke-width="1.152"/><g transform="translate(-15.615 -71.333)"><path d=" M 0,0"/><path d=" M -2.708,-8.334 L 2.708,-8.334 L 2.708,8.334 L -2.708,8.334 L -2.708,-8.334" fill="#F2EDDE" stroke="#000000" stroke-width="1.152"/><path d=" M -2.708,-8.334 L 2.708,-8.334 L 2.708,8.334 L -2.708,8.334 L -2.708,-8.334" fill="#000000"/><path d=" M 0,-8.334 L 0,8.334 M -2.708,-2.778 L 2.708,-2.778 M -2.708,2.778 L 2.708,2.778" stroke="#F2EDDE" stroke-width="1.152"/><path d=" M -2.708,-8.334 L 2.708,-8.334 L 2.708,8.334 L -2.708,8.334 L -2.708,-8.334" stroke="#000000" stroke-width="1.152"/></g><g transform="translate(-15.615 -132.337)"><path d=" M 0,0"/><path d=" M -2.708,-8.334 L 2.708,-8.334 L 2.708,8.334 L -2.708,8.334 L -2.708,-8.334" fill="#F2EDDE" stroke="#000000" stroke-width="1.152"/><path d=" M -2.708,-8.334 L 2.708,-8.334 L 2.708,8.334 L -2.708,8.334 L -2.708,-8.334" fill="#000000"/><path d=" M 0,-8.334 L 0,8.334 M -2.708,-2.778 L 2.708,-2.778 M -2.708,2.778 L 2.708,2.778" stroke="#F2EDDE" stroke-width="1.152"/><path d=" M -2.708,-8.334 L 2.708,-8.334 L 2.708,8.334 L -2.708,8.334 L -2.708,-8.334" stroke="#000000" stroke-width="1.152"/></g><g transform="translate(-15.615 -193.341)"><path d=" M 0,0"/><path d=" M -2.708,-8.334 L 2.708,-8.334 L 2.708,8.334 L -2.708,8.334 L -2.708,-8.334" fill="#F2EDDE" stroke="#000000" stroke-width="1.152"/><path d=" M -2.708,-8.334 L 2.708,-8.334 L 2.708,8.334 L -2.708,8.334 L -2.708,-8.334" fill="#000000"/><path d=" M 0,-8.334 L 0,8.334 M -2.708,-2.778 L 2.708,-2.778 M -2.708,2.778 L 2.708,2.778" stroke="#F2EDDE" stroke-width="1.152"/><path d=" M -2.708,-8.334 L 2.708,-8.334 L 2.708,8.334 L -2.708,8.334 L -2.708,-8.334" stroke="#000000" stroke-width="1.152"/></g><g transform="translate(-15.615 -254.346)"><path d=" M 0,0"/><path d=" M -2.708,-8.334 L 2.708,-8.334 L 2.708,8.334 L -2.708,8.334 L -2.708,-8.334" fill="#F2EDDE" stroke="#000000" stroke-width="1.152"/><path d=" M -2.708,-8.334 L 2.708,-8.334 L 2.708,8.334 L -2.708,8.334 L -2.708,-8.334" fill="#000000"/><path d=" M 0,-8.334 L 0,8.334 M -2.708,-2.778 L 2.708,-2.778 M -2.708,2.778 L 2.708,2.778" stroke="#F2EDDE" stroke-width="1.152"/><path d=" M -2.708,-8.334 L 2.708,-8.334 L 2.708,8.334 L -2.708,8.334 L -2.708,-8.334" stroke="#000000" stroke-width="1.152"/></g><g transform="translate(-15.615 -315.35)"><path d=" M 0,0"/><path d=" M -2.708,-8.334 L 2.708,-8.334 L 2.708,8.334 L -2.708,8.334 L -2.708,-8.334" fill="#F2EDDE" stroke="#000000" stroke-width="1.152"/><path d=" M -2.708,-8.334 L 2.708,-8.334 L 2.708,8.334 L -2.708,8.334 L -2.708,-8.334" fill="#000000"/><path d=" M 0,-8.334 L 0,8.334 M -2.708,-2.778 L 2.708,-2.778 M -2.708,2.778 L 2.708,2.778" stroke="#F2EDDE" stroke-width="1.152"/><path d=" M -2.708,-8.334 L 2.708,-8.334 L 2.708,8.334 L -2.708,8.334 L -2.708,-8.334" stroke="#000000" stroke-width="1.152"/></g><g transform="translate(-15.615 -376.354)"><path d=" M 0,0"/><path d=" M -2.708,-8.334 L 2.708,-8.334 L 2.708,8.334 L -2.708,8.334 L -2.708,-8.334" fill="#F2EDDE" stroke="#000000" stroke-width="1.152"/><path d=" M -2.708,-8.334 L 2.708,-8.334 L 2.708,8.334 L -2.708,8.334 L -2.708,-8.334" fill="#000000"/><path d=" M 0,-8.334 L 0,8.334 M -2.708,-2.778 L 2.708,-2.778 M -2.708,2.778 L 2.708,2.778" stroke="#F2EDDE" stroke-width="1.152"/><path d=" M -2.708,-8.334 L 2.708,-8.334 L 2.708,8.334 L -2.708,8.334 L -2.708,-8.334" stroke="#000000" stroke-width="1.152"/></g><g transform="translate(0 -537.577)"><path d=" M 0,0"/><path d=" M 1.152,-3.456 Q 1.152,-2.979 0.815,-2.641 Q 0.477,-2.304 0,-2.304 L 0,-2.304 Q -0.477,-2.304 -0.815,-2.641 Q -1.152,-2.979 -1.152,-3.456 L -1.152,-3.456 Q -1.152,-3.933 -0.815,-4.271 Q -0.477,-4.608 0,-4.608 L 0,-4.608 Q 0.477,-4.608 0.815,-4.271 Q 1.152,-3.933 1.152,-3.456 L 1.152,-3.456" stroke="#000000" stroke-width="1.152"/><path d=" M 0,-10.162 L 4.742,-8.581 M 5.318,-8.581 Q 5.318,-8.343 5.149,-8.174 Q 4.98,-8.005 4.742,-8.005 L 4.742,-8.005 Q 4.503,-8.005 4.334,-8.174 Q 4.166,-8.343 4.166,-8.581 L 4.166,-8.581 Q 4.166,-8.82 4.334,-8.989 Q 4.503,-9.157 4.742,-9.157 L 4.742,-9.157 Q 4.98,-9.157 5.149,-8.989 Q 5.318,-8.82 5.318,-8.581 L 5.318,-8.581 M 0,-10.162 L -4.742,-8.581 M -4.166,-8.581 Q -4.166,-8.343 -4.334,-8.174 Q -4.503,-8.005 -4.742,-8.005 L -4.742,-8.005 Q -4.98,-8.005 -5.149,-8.174 Q -5.318,-8.343 -5.318,-8.581 L -5.318,-8.581 Q -5.318,-8.82 -5.149,-8.989 Q -4.98,-9.157 -4.742,-9.157 L -4.742,-9.157 Q -4.503,-9.157 -4.334,-8.989 Q -4.166,-8.82 -4.166,-8.581 L -4.166,-8.581 M 0,-10.162 L -4.742,-11.742 M -4.166,-11.742 Q -4.166,-11.504 -4.334,-11.335 Q -4.503,-11.166 -4.742,-11.166 L -4.742,-11.166 Q -4.98,-11.166 -5.149,-11.335 Q -5.318,-11.504 -5.318,-11.742 L -5.318,-11.742 Q -5.318,-11.981 -5.149,-12.15 Q -4.98,-12.318 -4.742,-12.318 L -4.742,-12.318 Q -4.503,-12.318 -4.334,-12.15 Q -4.166,-11.981 -4.166,-11.742 L -4.166,-11.742 M 0,-10.162 L 4.742,-11.742 M 5.318,-11.742 Q 5.318,-11.504 5.149,-11.335 Q 4.98,-11.166 4.742,-11.166 L 4.742,-11.166 Q 4.503,-11.166 4.334,-11.335 Q 4.166,-11.504 4.166,-11.742 L 4.166,-11.742 Q 4.166,-11.981 4.334,-12.15 Q 4.503,-12.318 4.742,-12.318 L 4.742,-12.318 Q 4.98,-12.318 5.149,-12.15 Q 5.318,-11.981 5.318,-11.742 L 5.318,-11.742" stroke="#000000" stroke-width="1.152"/><path d=" M -7.378,-17.54 L 7.378,-17.54 L 3.689,-19.384 M 7.378,-17.54 L 3.689,-15.695 M -7.378,-19.384 L -5.533,-17.54 L -7.378,-15.695 M -5.533,-19.384 L -3.689,-17.54 L -5.533,-15.695" stroke="#000000" stroke-width="1.152"/><path d=" M -0.576,0 L 0.576,0 L 0.576,-40.374 L -0.576,-40.374 L -0.576,0" fill="#000000"/><path d=" M 0.576,-40.374 Q 0.576,-40.135 0.407,-39.966 Q 0.239,-39.798 0,-39.798 L 0,-39.798 Q -0.239,-39.798 -0.407,-39.966 Q -0.576,-40.135 -0.576,-40.374 L -0.576,-40.374 Q -0.576,-40.612 -0.407,-40.781 Q -0.239,-40.95 0,-40.95 L 0,-40.95 Q 0.239,-40.95 0.407,-40.781 Q 0.576,-40.612 0.576,-40.374 L 0.576,-40.374" stroke="#000000" stroke-width="1.152"/></g></g></g><style/><defs/></svg>