<?xml version="1.0" encoding="UTF-8" standalone="no"?><svg width="347.223" height="694.065" xmlns="http://www.w3.org/2000/svg" stroke-linejoin="round" stroke-linecap="round" fill-rule="evenodd" fill="none"><rect x="0" y="0" width="347.223" height="694.065" fill="#F2EDDE"/><g transform="translate(100 594.065)"><path d=" M 0,0"/><g><path d=" M 0,0"/><path d=" M 55.208,-250.048 L 18.403,-193.341 L 128.82,-193.341 L 92.014,-250.048 L 55.208,-250.048" fill="#ECE3CE" stroke="#8E8B83" stroke-width="1.152"/><path d=" M 27.006,-197.703 L 31.151,-197.703 M 31.151,-197.703 L 37.243,-197.703 M 39.267,-197.703 L 40.922,-197.703 M 45.661,-197.703 L 51.198,-197.703 M 53.401,-197.703 L 62.581,-197.703 M 64.608,-197.703 L 68.589,-197.703 M 72.181,-197.703 L 78.274,-197.703 M 80.298,-197.703 L 81.952,-197.703 M 86.692,-197.703 L 92.229,-197.703 M 94.432,-197.703 L 103.612,-197.703 M 103.798,-197.703 L 120.217,-197.703 M 29.837,-202.065 L 43.434,-202.065 M 43.434,-202.065 L 44.834,-202.065 M 48.241,-202.065 L 53.609,-202.065 M 57.027,-202.065 L 63.508,-202.065 M 65.918,-202.065 L 69.371,-202.065 M 72.795,-202.065 L 79.522,-202.065 M 83.274,-202.065 L 84.674,-202.065 M 88.081,-202.065 L 93.449,-202.065 M 96.867,-202.065 L 103.348,-202.065 M 105.66,-202.065 L 117.386,-202.065 M 32.668,-206.427 L 54.728,-206.427 M 54.728,-206.427 L 55.432,-206.427 M 57.697,-206.427 L 65.911,-206.427 M 70.268,-206.427 L 72.627,-206.427 M 74.508,-206.427 L 81.07,-206.427 M 83.839,-206.427 L 92.082,-206.427 M 95.715,-206.427 L 96.419,-206.427 M 98.685,-206.427 L 106.898,-206.427 M 111.255,-206.427 L 111.723,-206.427 M 111.723,-206.427 L 114.554,-206.427 M 35.499,-210.789 L 47.886,-210.789 M 47.886,-210.789 L 53.711,-210.789 M 54.094,-210.789 L 61.919,-210.789 M 63.846,-210.789 L 66.952,-210.789 M 71.33,-210.789 L 80.455,-210.789 M 80.478,-210.789 L 86.222,-210.789 M 87.746,-210.789 L 93.572,-210.789 M 93.955,-210.789 L 101.412,-210.789 M 101.412,-210.789 L 111.723,-210.789 M 38.331,-215.151 L 39.697,-215.151 M 39.697,-215.151 L 48.35,-215.151 M 49.274,-215.151 L 51.311,-215.151 M 53.634,-215.151 L 58.84,-215.151 M 61.149,-215.151 L 65.968,-215.151 M 70.613,-215.151 L 75.422,-215.151 M 75.583,-215.151 L 84.237,-215.151 M 85.16,-215.151 L 87.198,-215.151 M 89.52,-215.151 L 94.727,-215.151 M 97.035,-215.151 L 99.094,-215.151 M 99.094,-215.151 L 108.892,-215.151 M 41.162,-219.514 L 44.325,-219.514 M 44.325,-219.514 L 45.017,-219.514 M 47.467,-219.514 L 53.476,-219.514 M 54.282,-219.514 L 62.528,-219.514 M 66.982,-219.514 L 75.849,-219.514 M 78.254,-219.514 L 85.809,-219.514 M 86.863,-219.514 L 87.555,-219.514 M 89.976,-219.514 L 106.061,-219.514 M 43.993,-223.876 L 50.763,-223.876 M 50.763,-223.876 L 57.039,-223.876 M 57.776,-223.876 L 64.999,-223.876 M 68.419,-223.876 L 71.09,-223.876 M 71.671,-223.876 L 80.241,-223.876 M 84.837,-223.876 L 90.966,-223.876 M 95.671,-223.876 L 98.948,-223.876 M 98.948,-223.876 L 103.23,-223.876 M 46.824,-228.238 L 50.333,-228.238 M 50.333,-228.238 L 59.645,-228.238 M 64.195,-228.238 L 67.118,-228.238 M 70.774,-228.238 L 77.884,-228.238 M 78.48,-228.238 L 78.59,-228.238 M 81.353,-228.238 L 86.844,-228.238 M 88.041,-228.238 L 89.912,-228.238 M 89.912,-228.238 L 100.398,-228.238 M 49.655,-232.6 L 55.03,-232.6 M 55.03,-232.6 L 62.542,-232.6 M 63.669,-232.6 L 70.461,-232.6 M 75.242,-232.6 L 83.396,-232.6 M 86.139,-232.6 L 94.218,-232.6 M 94.218,-232.6 L 97.567,-232.6 M 52.487,-236.962 L 59.588,-236.962 M 59.588,-236.962 L 60.406,-236.962 M 62.686,-236.962 L 65.345,-236.962 M 69.361,-236.962 L 74.875,-236.962 M 79.022,-236.962 L 85.759,-236.962 M 88.928,-236.962 L 92.527,-236.962 M 92.527,-236.962 L 94.736,-236.962 M 55.318,-241.324 L 58.134,-241.324 M 58.134,-241.324 L 67.057,-241.324 M 71.172,-241.324 L 77.491,-241.324 M 80.556,-241.324 L 89.924,-241.324 M 91.695,-241.324 L 91.905,-241.324 M 58.149,-245.686 L 63.026,-245.686 M 63.026,-245.686 L 64.217,-245.686 M 67.186,-245.686 L 74.085,-245.686 M 79.055,-245.686 L 81.657,-245.686 M 81.657,-245.686 L 89.074,-245.686" stroke="#8E8B83" stroke-width="1.152"/><path d=" M 0,0 L 0,-205.87 L 9.058,-205.87 L 18.116,-205.87 L 18.116,-193.341 L 32.277,-193.341 L 32.277,-205.87 L 41.335,-205.87 L 50.393,-205.87 L 50.393,-193.341 L 64.553,-193.341 L 64.553,-205.87 L 73.611,-205.87 L 82.669,-205.87 L 82.669,-193.341 L 96.83,-193.341 L 96.83,-205.87 L 105.888,-205.87 L 114.946,-205.87 L 114.946,-193.341 L 129.106,-193.341 L 129.106,-205.87 L 138.164,-205.87 L 147.223,-205.87 L 147.223,0" fill="#F2EDDE" stroke="#8E8B83" stroke-width="1.152"/><path d=" M -2.472,0 L 149.694,0 L 149.694,-18.996 L -2.472,-18.996 L -2.472,0" fill="#ECE3CE"/><path d=" M 0,-18.996 L -2.472,-18.996 L -2.472,0 L 149.694,0 L 149.694,-18.996 L 147.223,-18.996" stroke="#8E8B83" stroke-width="1.152" stroke-linejoin="round" stroke-linecap="square"/><path d=" M 2.304,-18.996 L 144.919,-18.996" stroke="#8E8B83" stroke-width="1.152"/><path d=" M 0,-67.333 L 4.749,-67.333 M 8.768,-67.333 L 13.779,-67.333 M 14.088,-67.333 L 15.494,-67.333 M 18.631,-67.333 L 20.392,-67.333 M 22.538,-67.333 L 23.22,-67.333 M 24.953,-67.333 L 29.702,-67.333 M 33.721,-67.333 L 38.732,-67.333 M 39.041,-67.333 L 40.447,-67.333 M 43.584,-67.333 L 45.345,-67.333 M 47.491,-67.333 L 48.173,-67.333 M 49.906,-67.333 L 52.051,-67.333 M 0,-67.333 L 26.026,-67.333 M 147.223,-67.333 L 143.605,-67.333 M 140.641,-67.333 L 138.999,-67.333 M 137.272,-67.333 L 135.074,-67.333 M 130.211,-67.333 L 127.438,-67.333 M 126.62,-67.333 L 125.466,-67.333 M 120.777,-67.333 L 117.159,-67.333 M 114.195,-67.333 L 112.553,-67.333 M 110.826,-67.333 L 108.629,-67.333 M 103.766,-67.333 L 100.992,-67.333 M 100.174,-67.333 L 99.02,-67.333 M 147.223,-67.333 L 121.197,-67.333" stroke="#8E8B83" stroke-width="1.152"/></g><g><path d=" M 0,0"/><path d=" M -3.713,-0.011 L -2.561,0.011 L -2.624,-2.275 L -2.654,-3.543 L -2.672,-4.558 L -2.687,-5.827 L -2.704,-8.115 L -3.088,-8.13 L -3.286,-5.85 L -3.391,-4.581 L -3.47,-3.565 L -3.56,-2.295 L -3.713,-0.011" fill="#8E8B83"/><path d=" M -5.133,0.08 L -3.992,-0.08 L -4.38,-2.069 L -4.627,-3.179 L -4.864,-4.062 L -5.203,-5.146 L -5.865,-7.07 L -6.235,-6.964 L -5.783,-4.989 L -5.566,-3.897 L -5.43,-3.026 L -5.305,-1.926 L -5.133,0.08" fill="#8E8B83"/><path d=" M -14.472,0.154 L -13.362,-0.154 L -14.032,-2.167 L -14.47,-3.283 L -14.896,-4.153 L -15.512,-5.188 L -16.71,-6.979 L -17.04,-6.782 L -16.037,-4.892 L -15.549,-3.84 L -15.235,-2.99 L -14.928,-1.892 L -14.472,0.154" fill="#8E8B83"/><path d=" M -20.816,0.176 L -19.719,-0.176 L -20.332,-1.732 L -20.734,-2.595 L -21.123,-3.262 L -21.681,-4.04 L -22.758,-5.364 L -23.07,-5.141 L -22.183,-3.705 L -21.755,-2.907 L -21.482,-2.261 L -21.216,-1.417 L -20.816,0.176" fill="#8E8B83"/><path d=" M 150.408,-0.055 L 151.555,0.055 L 151.704,-2.631 L 151.814,-4.112 L 151.936,-5.293 L 152.132,-6.77 L 152.537,-9.437 L 152.16,-9.51 L 151.541,-6.878 L 151.225,-5.406 L 151.005,-4.218 L 150.773,-2.729 L 150.408,-0.055" fill="#8E8B83"/><path d=" M 153.848,-0.029 L 154.999,0.029 L 154.996,-2.024 L 155.005,-3.161 L 155.027,-4.068 L 155.071,-5.206 L 155.173,-7.259 L 154.791,-7.298 L 154.474,-5.264 L 154.309,-4.129 L 154.191,-3.217 L 154.061,-2.077 L 153.848,-0.029" fill="#8E8B83"/><path d=" M 159.306,-0.165 L 160.41,0.165 L 160.725,-1.261 L 160.937,-2.018 L 161.156,-2.6 L 161.504,-3.324 L 162.229,-4.634 L 161.908,-4.844 L 160.99,-3.64 L 160.514,-2.934 L 160.18,-2.332 L 159.835,-1.556 L 159.306,-0.165" fill="#8E8B83"/><path d=" M 166.255,-0.194 L 167.34,0.194 L 167.89,-1.665 L 168.253,-2.645 L 168.619,-3.389 L 169.188,-4.298 L 170.36,-5.92 L 170.061,-6.162 L 168.706,-4.663 L 168.006,-3.777 L 167.518,-3.011 L 167.017,-2.011 L 166.255,-0.194" fill="#8E8B83"/><path d=" M 174.917,-0.268 L 175.937,0.268 L 176.505,-1.04 L 176.864,-1.694 L 177.218,-2.164 L 177.778,-2.718 L 178.948,-3.684 L 178.726,-3.997 L 177.405,-3.199 L 176.707,-2.686 L 176.209,-2.196 L 175.694,-1.517 L 174.917,-0.268" fill="#8E8B83"/><path d=" M -55.208,0 L -53.732,0 M -47.581,0 L -44.611,0 M -41.843,0 L -41.185,0 M -33.854,0 L -29.91,0 M -25.553,0 L -20.758,0 M -14.924,0 L -13.447,0 M -7.297,0 L -4.326,0 M -1.558,0 L -0.9,0 M 6.431,0 L 10.375,0 M 14.732,0 L 19.527,0 M 25.361,0 L 26.838,0 M 32.988,0 L 35.959,0 M 38.727,0 L 39.385,0 M 46.716,0 L 50.66,0 M 55.017,0 L 59.812,0 M 65.646,0 L 67.123,0 M 73.273,0 L 76.244,0 M 79.012,0 L 79.67,0 M 87.001,0 L 90.945,0 M 95.302,0 L 100.097,0 M 105.931,0 L 107.407,0 M 113.558,0 L 116.529,0 M 119.297,0 L 119.955,0 M 127.286,0 L 131.229,0 M 135.587,0 L 140.382,0 M 146.216,0 L 147.692,0 M 153.843,0 L 156.814,0 M 159.582,0 L 160.24,0 M 167.571,0 L 171.514,0 M 175.872,0 L 180.667,0 M 186.501,0 L 187.977,0 M 194.128,0 L 197.099,0 M 199.867,0 L 200.525,0 M -18.403,0 L 165.625,0" stroke="#8E8B83" stroke-width="1.152"/></g><g><path d=" M 0,0"/><path d=" M 55.208,-189.044 L 18.403,-132.337 L 73.611,-132.337 L 73.611,-189.044 L 55.208,-189.044" fill="#EBE1CA" stroke="#76736C" stroke-width="1.152"/><path d=" M 27.006,-136.699 L 29.26,-136.699 M 29.26,-136.699 L 33.459,-136.699 M 37.546,-136.699 L 43.382,-136.699 M 48.093,-136.699 L 52.179,-136.699 M 57.025,-136.699 L 64.909,-136.699 M 65.205,-136.699 L 70.707,-136.699 M 71.08,-136.699 L 73.611,-136.699 M 29.837,-141.061 L 33.578,-141.061 M 33.578,-141.061 L 42.873,-141.061 M 45.5,-141.061 L 46.831,-141.061 M 50.219,-141.061 L 58.072,-141.061 M 62.887,-141.061 L 69.67,-141.061 M 70.857,-141.061 L 73.611,-141.061 M 32.668,-145.423 L 34.728,-145.423 M 34.728,-145.423 L 41.522,-145.423 M 42.58,-145.423 L 50.969,-145.423 M 55.581,-145.423 L 63.402,-145.423 M 63.474,-145.423 L 63.854,-145.423 M 63.854,-145.423 L 73.611,-145.423 M 35.499,-149.785 L 41.864,-149.785 M 41.864,-149.785 L 50.42,-149.785 M 53.464,-149.785 L 61.313,-149.785 M 61.954,-149.785 L 65.464,-149.785 M 70.094,-149.785 L 72.559,-149.785 M 72.559,-149.785 L 73.611,-149.785 M 38.331,-154.147 L 41.217,-154.147 M 41.217,-154.147 L 46.822,-154.147 M 47.002,-154.147 L 55.123,-154.147 M 57.729,-154.147 L 59.811,-154.147 M 61.596,-154.147 L 70.349,-154.147 M 70.39,-154.147 L 73.478,-154.147 M 73.478,-154.147 L 73.611,-154.147 M 41.162,-158.509 L 48.886,-158.509 M 48.886,-158.509 L 52.916,-158.509 M 53.78,-158.509 L 61.546,-158.509 M 61.546,-158.509 L 73.611,-158.509 M 43.993,-162.871 L 49.541,-162.871 M 49.541,-162.871 L 49.94,-162.871 M 53.723,-162.871 L 59.624,-162.871 M 61.82,-162.871 L 67.048,-162.871 M 67.048,-162.871 L 73.611,-162.871 M 46.824,-167.233 L 47.538,-167.233 M 47.538,-167.233 L 49.981,-167.233 M 50.74,-167.233 L 52.136,-167.233 M 54.503,-167.233 L 56.503,-167.233 M 61.069,-167.233 L 65.481,-167.233 M 70.431,-167.233 L 72.618,-167.233 M 72.618,-167.233 L 73.611,-167.233 M 49.655,-171.595 L 50.525,-171.595 M 50.525,-171.595 L 54.648,-171.595 M 57.153,-171.595 L 64.437,-171.595 M 65.524,-171.595 L 69.037,-171.595 M 69.037,-171.595 L 73.611,-171.595 M 52.487,-175.957 L 59.362,-175.957 M 59.362,-175.957 L 62.28,-175.957 M 63.317,-175.957 L 63.399,-175.957 M 65.267,-175.957 L 68.385,-175.957 M 70.45,-175.957 L 72.501,-175.957 M 72.501,-175.957 L 73.611,-175.957 M 55.318,-180.319 L 58.896,-180.319 M 58.896,-180.319 L 64.455,-180.319 M 65.457,-180.319 L 66.499,-180.319 M 67.839,-180.319 L 68.066,-180.319 M 71.182,-180.319 L 71.828,-180.319 M 71.828,-180.319 L 73.611,-180.319 M 58.149,-184.682 L 60.771,-184.682 M 60.771,-184.682 L 67.803,-184.682 M 71.557,-184.682 L 72.901,-184.682 M 72.901,-184.682 L 73.611,-184.682" stroke="#76736C" stroke-width="1.152"/><path d=" M 0,0 L 0,-144.866 L 8.066,-144.866 L 16.131,-144.866 L 16.131,-132.337 L 28.74,-132.337 L 28.74,-144.866 L 36.806,-144.866 L 44.871,-144.866 L 44.871,-132.337 L 57.48,-132.337 L 57.48,-144.866 L 65.546,-144.866 L 73.611,-144.866 L 73.611,-266.875 L 81.677,-266.875 L 89.742,-266.875 L 89.742,-254.346 L 102.351,-254.346 L 102.351,-266.875 L 110.417,-266.875 L 118.483,-266.875 L 118.483,-254.346 L 131.091,-254.346 L 131.091,-266.875 L 139.157,-266.875 L 147.223,-266.875 L 147.223,0" fill="#F2EDDE" stroke="#76736C" stroke-width="1.152"/><path d=" M -2.472,0 L 149.694,0 L 149.694,-18.996 L -2.472,-18.996 L -2.472,0" fill="#EBE1CA"/><path d=" M 0,-18.996 L -2.472,-18.996 L -2.472,0 L 149.694,0 L 149.694,-18.996 L 147.223,-18.996" stroke="#76736C" stroke-width="1.152" stroke-linejoin="round" stroke-linecap="square"/><path d=" M 2.304,-18.996 L 144.919,-18.996" stroke="#76736C" stroke-width="1.152"/><path d=" M 0,-67.333 L 3.345,-67.333 M 5.204,-67.333 L 9.646,-67.333 M 9.934,-67.333 L 12.922,-67.333 M 16.463,-67.333 L 17.748,-67.333 M 20.225,-67.333 L 25.118,-67.333 M 27.388,-67.333 L 30.733,-67.333 M 32.592,-67.333 L 37.035,-67.333 M 37.322,-67.333 L 40.311,-67.333 M 43.851,-67.333 L 45.137,-67.333 M 47.614,-67.333 L 52.051,-67.333 M 0,-67.333 L 26.026,-67.333 M 147.223,-67.333 L 142.618,-67.333 M 141.455,-67.333 L 137.747,-67.333 M 132.949,-67.333 L 128.432,-67.333 M 125.499,-67.333 L 123.697,-67.333 M 118.703,-67.333 L 116.984,-67.333 M 116.422,-67.333 L 111.817,-67.333 M 110.655,-67.333 L 106.947,-67.333 M 102.149,-67.333 L 97.632,-67.333 M 147.223,-67.333 L 121.197,-67.333" stroke="#76736C" stroke-width="1.152"/><g transform="translate(18.403 -101.835)"><path d=" M 0,0"/><path d=" M -6.421,-10.925 L 6.421,-10.925 L 6.421,10.925 L -6.421,10.925 L -6.421,-10.925" fill="#F2EDDE" stroke="#76736C" stroke-width="1.152"/><path d=" M -3.83,-8.334 L 3.83,-8.334 L 3.83,8.334 L -3.83,8.334 L -3.83,-8.334" fill="#76736C"/><path d=" M 0,-8.334 L 0,8.334 M -3.83,-2.778 L 3.83,-2.778 M -3.83,2.778 L 3.83,2.778" stroke="#F2EDDE" stroke-width="1.152"/><path d=" M -3.83,-8.334 L 3.83,-8.334 L 3.83,8.334 L -3.83,8.334 L -3.83,-8.334" stroke="#76736C" stroke-width="1.152"/></g><g transform="translate(55.208 -101.835)"><path d=" M 0,0"/><path d=" M -6.421,-10.925 L 6.421,-10.925 L 6.421,10.925 L -6.421,10.925 L -6.421,-10.925" fill="#F2EDDE" stroke="#76736C" stroke-width="1.152"/><path d=" M -3.83,-8.334 L 3.83,-8.334 L 3.83,8.334 L -3.83,8.334 L -3.83,-8.334" fill="#76736C"/><path d=" M 0,-8.334 L 0,8.334 M -3.83,-2.778 L 3.83,-2.778 M -3.83,2.778 L 3.83,2.778" stroke="#F2EDDE" stroke-width="1.152"/><path d=" M -3.83,-8.334 L 3.83,-8.334 L 3.83,8.334 L -3.83,8.334 L -3.83,-8.334" stroke="#76736C" stroke-width="1.152"/></g></g><g><path d=" M 0,0"/><path d=" M -7.851,-0.054 L -6.704,0.054 L -6.621,-1.965 L -6.554,-3.078 L -6.476,-3.964 L -6.346,-5.075 L -6.072,-7.083 L -6.449,-7.155 L -6.937,-5.182 L -7.188,-4.076 L -7.364,-3.182 L -7.552,-2.062 L -7.851,-0.054" fill="#76736C"/><path d=" M -8.249,0.087 L -7.111,-0.087 L -7.453,-1.618 L -7.672,-2.474 L -7.878,-3.155 L -8.173,-3.987 L -8.745,-5.455 L -9.112,-5.34 L -8.75,-3.816 L -8.577,-2.976 L -8.472,-2.308 L -8.377,-1.463 L -8.249,0.087" fill="#76736C"/><path d=" M -15.106,0.192 L -14.021,-0.192 L -14.675,-1.72 L -15.105,-2.565 L -15.523,-3.213 L -16.119,-3.959 L -17.268,-5.216 L -17.568,-4.976 L -16.603,-3.597 L -16.137,-2.827 L -15.841,-2.201 L -15.549,-1.377 L -15.106,0.192" fill="#76736C"/><path d=" M -25.968,0.345 L -25.047,-0.345 L -26.115,-1.597 L -26.822,-2.242 L -27.498,-2.654 L -28.425,-3.006 L -30.16,-3.449 L -30.279,-3.083 L -28.647,-2.433 L -27.862,-2.012 L -27.36,-1.607 L -26.834,-0.983 L -25.968,0.345" fill="#76736C"/><path d=" M 149.599,0.019 L 150.75,-0.019 L 150.565,-2.414 L 150.453,-3.747 L 150.353,-4.813 L 150.215,-6.143 L 149.951,-8.532 L 149.568,-8.507 L 149.616,-6.106 L 149.634,-4.775 L 149.637,-3.711 L 149.629,-2.381 L 149.599,0.019" fill="#76736C"/><path d=" M 153.228,-0.1 L 154.362,0.1 L 154.641,-2.102 L 154.836,-3.304 L 155.04,-4.252 L 155.362,-5.437 L 156.024,-7.576 L 155.663,-7.707 L 154.794,-5.632 L 154.349,-4.457 L 154.041,-3.495 L 153.722,-2.281 L 153.228,-0.1" fill="#76736C"/><path d=" M 156.779,-0.018 L 157.931,0.018 L 157.868,-1.463 L 157.839,-2.283 L 157.821,-2.938 L 157.807,-3.76 L 157.79,-5.242 L 157.407,-5.266 L 157.208,-3.795 L 157.102,-2.975 L 157.023,-2.317 L 156.933,-1.494 L 156.779,-0.018" fill="#76736C"/><path d=" M 164.301,-0.176 L 165.398,0.176 L 166.106,-2.384 L 166.576,-3.751 L 167.049,-4.801 L 167.778,-6.084 L 169.263,-8.368 L 168.95,-8.59 L 167.275,-6.418 L 166.418,-5.155 L 165.827,-4.085 L 165.222,-2.698 L 164.301,-0.176" fill="#76736C"/><path d=" M 167.005,-0.084 L 168.145,0.084 L 168.259,-1.429 L 168.345,-2.255 L 168.442,-2.909 L 168.601,-3.73 L 168.937,-5.221 L 168.569,-5.332 L 168.023,-3.895 L 167.742,-3.081 L 167.544,-2.416 L 167.335,-1.579 L 167.005,-0.084" fill="#76736C"/><path d=" M 180.377,-0.245 L 181.42,0.245 L 182.145,-1.546 L 182.612,-2.465 L 183.075,-3.139 L 183.793,-3.938 L 185.271,-5.333 L 185.024,-5.626 L 183.383,-4.385 L 182.529,-3.621 L 181.93,-2.926 L 181.313,-1.983 L 180.377,-0.245" fill="#76736C"/><path d=" M 187.975,-0.311 L 188.945,0.311 L 189.949,-1.446 L 190.577,-2.306 L 191.185,-2.895 L 192.121,-3.541 L 194.046,-4.596 L 193.879,-4.942 L 191.828,-4.077 L 190.751,-3.487 L 189.983,-2.884 L 189.185,-2 L 187.975,-0.311" fill="#76736C"/><path d=" M -55.208,0 L -54.455,0 M -50.865,0 L -45.619,0 M -41.319,0 L -40.452,0 M -37.233,0 L -31.21,0 M -31.17,0 L -30.226,0 M -30.06,0 L -29.306,0 M -25.717,0 L -20.47,0 M -16.171,0 L -15.304,0 M -12.085,0 L -6.061,0 M -6.022,0 L -5.078,0 M -4.912,0 L -4.158,0 M -0.568,0 L 4.678,0 M 8.977,0 L 9.845,0 M 13.064,0 L 19.087,0 M 19.126,0 L 20.071,0 M 20.237,0 L 20.99,0 M 24.58,0 L 29.826,0 M 34.126,0 L 34.993,0 M 38.212,0 L 44.235,0 M 44.275,0 L 45.219,0 M 45.385,0 L 46.139,0 M 49.728,0 L 54.975,0 M 59.274,0 L 60.141,0 M 63.36,0 L 69.384,0 M 69.423,0 L 70.367,0 M 70.533,0 L 71.287,0 M 74.877,0 L 80.123,0 M 84.422,0 L 85.29,0 M 88.509,0 L 94.532,0 M 94.571,0 L 95.516,0 M 95.681,0 L 96.435,0 M 100.025,0 L 105.271,0 M 109.571,0 L 110.438,0 M 113.657,0 L 119.68,0 M 119.72,0 L 120.664,0 M 120.83,0 L 121.584,0 M 125.173,0 L 130.42,0 M 134.719,0 L 135.586,0 M 138.805,0 L 144.829,0 M 144.868,0 L 145.812,0 M 145.978,0 L 146.732,0 M 150.322,0 L 155.568,0 M 159.867,0 L 160.735,0 M 163.954,0 L 169.977,0 M 170.016,0 L 170.961,0 M 171.126,0 L 171.88,0 M 175.47,0 L 180.716,0 M 185.016,0 L 185.883,0 M 189.102,0 L 195.125,0 M 195.165,0 L 196.109,0 M 196.275,0 L 197.029,0 M 200.618,0 L 202.431,0 M -18.403,0 L 165.625,0" stroke="#76736C" stroke-width="1.152"/></g><g transform="translate(0 -10.329) scale(-1 1)"><path d=" M 0,0"/><g transform="translate(0 -38.836)"><path d=" M 0,0"/><path d=" M 0,-13.322 L 12.269,-13.322" stroke="#302F2C" stroke-width="1.152"/><path d=" M 6.134,-13.322 Q 5.163,-13.322 4.239,-13.022 Q 3.315,-12.722 2.529,-12.151 Q 1.743,-11.58 1.172,-10.794 Q 0.6,-10.008 0.3,-9.084 Q 0,-8.16 0,-7.188" stroke="#302F2C" stroke-width="1.152"/><g transform="translate(12.269 0)"><path d=" M 0,0"/><path d=" M -2.117,0 L 2.117,0 L 3.19,-8.566 L -3.19,-8.566" fill="#F2EDDE"/><path d=" M -2.117,0 L 2.117,0" stroke="#302F2C" stroke-width="1.152"/><path d=" M 0,-10.656 L 3.19,-8.566 L -3.19,-8.566" fill="#302F2C" stroke="#302F2C" stroke-width="1.152"/><path d=" M -2.117,0 L -3.19,-8.566 M 2.117,0 L 3.19,-8.566 M 0,0 L 0,-8.566 M 0,-10.656 L 0,-12.746" stroke="#302F2C" stroke-width="1.152"/></g></g><g><path d=" M 0,0"/><path d=" M 17.472,10.329 L 2.472,10.329 L 2.472,0 L 7.472,0 L 7.472,3.443 L 12.472,3.443 L 12.472,6.886 L 17.472,6.886 L 17.472,10.329" fill="#F2EDDE" stroke="#302F2C" stroke-width="1.152"/></g></g><g><path d=" M 0,0"/><path d=" M 55.208,-128.039 L 18.403,-71.333 L 73.611,-71.333 L 73.611,-128.039 L 55.208,-128.039" fill="#E5D6B7" stroke="#000000" stroke-width="1.152"/><path d=" M 27.006,-75.695 L 29.576,-75.695 M 29.576,-75.695 L 31.169,-75.695 M 34.474,-75.695 L 34.811,-75.695 M 35.302,-75.695 L 35.474,-75.695 M 36.369,-75.695 L 38.182,-75.695 M 38.649,-75.695 L 46.682,-75.695 M 51.123,-75.695 L 52.717,-75.695 M 56.021,-75.695 L 56.359,-75.695 M 56.849,-75.695 L 57.022,-75.695 M 57.917,-75.695 L 59.729,-75.695 M 60.196,-75.695 L 66.465,-75.695 M 66.465,-75.695 L 73.611,-75.695 M 29.837,-80.057 L 34.427,-80.057 M 34.427,-80.057 L 36.859,-80.057 M 41.109,-80.057 L 48.031,-80.057 M 49.115,-80.057 L 51.918,-80.057 M 55.198,-80.057 L 60.004,-80.057 M 62.455,-80.057 L 68.506,-80.057 M 70.265,-80.057 L 73.611,-80.057 M 32.668,-84.419 L 33.874,-84.419 M 33.874,-84.419 L 41.901,-84.419 M 44.3,-84.419 L 52.48,-84.419 M 54.159,-84.419 L 62.39,-84.419 M 64.442,-84.419 L 71.673,-84.419 M 72.744,-84.419 L 73.611,-84.419 M 35.499,-88.781 L 38.032,-88.781 M 38.032,-88.781 L 45.585,-88.781 M 47.303,-88.781 L 50.732,-88.781 M 53.761,-88.781 L 60.068,-88.781 M 63.959,-88.781 L 69.725,-88.781 M 69.725,-88.781 L 73.611,-88.781 M 38.331,-93.143 L 42.546,-93.143 M 42.546,-93.143 L 47.571,-93.143 M 52.323,-93.143 L 52.796,-93.143 M 57.641,-93.143 L 64.755,-93.143 M 65.931,-93.143 L 68.375,-93.143 M 68.375,-93.143 L 73.611,-93.143 M 41.162,-97.505 L 41.205,-97.505 M 41.205,-97.505 L 49.734,-97.505 M 51.856,-97.505 L 52.195,-97.505 M 55.472,-97.505 L 61.23,-97.505 M 65.398,-97.505 L 68.491,-97.505 M 70.084,-97.505 L 73.611,-97.505 M 43.993,-101.867 L 44.068,-101.867 M 44.068,-101.867 L 48.831,-101.867 M 48.947,-101.867 L 55.793,-101.867 M 60.797,-101.867 L 63.754,-101.867 M 64.189,-101.867 L 70.291,-101.867 M 70.885,-101.867 L 73.611,-101.867 M 46.824,-106.229 L 53.586,-106.229 M 53.586,-106.229 L 59.746,-106.229 M 60.098,-106.229 L 68.324,-106.229 M 69.169,-106.229 L 73.611,-106.229 M 49.655,-110.591 L 55.385,-110.591 M 55.385,-110.591 L 63.954,-110.591 M 67.17,-110.591 L 72.035,-110.591 M 72.035,-110.591 L 73.611,-110.591 M 52.487,-114.953 L 55.118,-114.953 M 55.118,-114.953 L 57.882,-114.953 M 61.212,-114.953 L 69.472,-114.953 M 69.472,-114.953 L 73.611,-114.953 M 55.318,-119.315 L 55.781,-119.315 M 55.781,-119.315 L 56.563,-119.315 M 61.415,-119.315 L 63.311,-119.315 M 64.637,-119.315 L 66.858,-119.315 M 69.473,-119.315 L 70.345,-119.315 M 70.345,-119.315 L 73.611,-119.315 M 58.149,-123.677 L 60.954,-123.677 M 60.954,-123.677 L 63.778,-123.677 M 66.558,-123.677 L 71.594,-123.677 M 71.594,-123.677 L 73.611,-123.677" stroke="#000000" stroke-width="1.152"/><path d=" M 0,0 L 0,-83.862 L 8.066,-83.862 L 16.131,-83.862 L 16.131,-71.333 L 28.74,-71.333 L 28.74,-83.862 L 36.806,-83.862 L 44.871,-83.862 L 44.871,-71.333 L 57.48,-71.333 L 57.48,-83.862 L 65.546,-83.862 L 73.611,-83.862 L 73.611,-449.887 L 81.677,-449.887 L 89.742,-449.887 L 89.742,-437.358 L 102.351,-437.358 L 102.351,-449.887 L 110.417,-449.887 L 118.483,-449.887 L 118.483,-437.358 L 131.091,-437.358 L 131.091,-449.887 L 139.157,-449.887 L 147.223,-449.887 L 147.223,0" fill="#F2EDDE" stroke="#000000" stroke-width="1.152"/><path d=" M -2.472,0 L 149.694,0 L 149.694,-18.996 L -2.472,-18.996 L -2.472,0" fill="#E5D6B7"/><path d=" M 0,-18.996 L -2.472,-18.996 L -2.472,0 L 149.694,0 L 149.694,-18.996 L 147.223,-18.996" stroke="#000000" stroke-width="1.152" stroke-linejoin="round" stroke-linecap="square"/><path d=" M 2.304,-18.996 L 144.919,-18.996" stroke="#000000" stroke-width="1.152"/><path d=" M 0,-67.333 L 0.007,-67.333 M 1.604,-67.333 L 4.916,-67.333 M 8.589,-67.333 L 12.656,-67.333 M 17.662,-67.333 L 21.483,-67.333 M 25.11,-67.333 L 25.231,-67.333 M 26.692,-67.333 L 26.699,-67.333 M 28.296,-67.333 L 31.608,-67.333 M 35.281,-67.333 L 39.349,-67.333 M 44.354,-67.333 L 48.176,-67.333 M 51.802,-67.333 L 51.923,-67.333 M 0,-67.333 L 26.026,-67.333 M 147.223,-67.333 L 144.237,-67.333 M 140.508,-67.333 L 136.928,-67.333 M 133.595,-67.333 L 132.866,-67.333 M 127.82,-67.333 L 126.836,-67.333 M 122.745,-67.333 L 118.636,-67.333 M 116.177,-67.333 L 113.192,-67.333 M 109.463,-67.333 L 105.883,-67.333 M 102.549,-67.333 L 101.82,-67.333 M 96.774,-67.333 L 95.791,-67.333 M 147.223,-67.333 L 121.197,-67.333" stroke="#000000" stroke-width="1.152"/><g transform="translate(18.403 -40.831)"><path d=" M 0,0"/><path d=" M -6.421,-10.925 L 6.421,-10.925 L 6.421,10.925 L -6.421,10.925 L -6.421,-10.925" fill="#F2EDDE" stroke="#000000" stroke-width="1.152"/><path d=" M -3.83,-8.334 L 3.83,-8.334 L 3.83,8.334 L -3.83,8.334 L -3.83,-8.334" fill="#000000"/><path d=" M 0,-8.334 L 0,8.334 M -3.83,-2.778 L 3.83,-2.778 M -3.83,2.778 L 3.83,2.778" stroke="#F2EDDE" stroke-width="1.152"/><path d=" M -3.83,-8.334 L 3.83,-8.334 L 3.83,8.334 L -3.83,8.334 L -3.83,-8.334" stroke="#000000" stroke-width="1.152"/></g><g transform="translate(55.208 -40.831)"><path d=" M 0,0"/><path d=" M -6.421,-10.925 L 6.421,-10.925 L 6.421,10.925 L -6.421,10.925 L -6.421,-10.925" fill="#F2EDDE" stroke="#000000" stroke-width="1.152"/><path d=" M -3.83,-8.334 L 3.83,-8.334 L 3.83,8.334 L -3.83,8.334 L -3.83,-8.334" fill="#000000"/><path d=" M 0,-8.334 L 0,8.334 M -3.83,-2.778 L 3.83,-2.778 M -3.83,2.778 L 3.83,2.778" stroke="#F2EDDE" stroke-width="1.152"/><path d=" M -3.83,-8.334 L 3.83,-8.334 L 3.83,8.334 L -3.83,8.334 L -3.83,-8.334" stroke="#000000" stroke-width="1.152"/></g><g transform="translate(92.014 -223.843)"><path d=" M 0,0"/><path d=" M -6.421,-10.925 L 6.421,-10.925 L 6.421,10.925 L -6.421,10.925 L -6.421,-10.925" fill="#F2EDDE" stroke="#000000" stroke-width="1.152"/><path d=" M -3.83,-8.334 L 3.83,-8.334 L 3.83,8.334 L -3.83,8.334 L -3.83,-8.334" fill="#000000"/><path d=" M 0,-8.334 L 0,8.334 M -3.83,-2.778 L 3.83,-2.778 M -3.83,2.778 L 3.83,2.778" stroke="#F2EDDE" stroke-width="1.152"/><path d=" M -3.83,-8.334 L 3.83,-8.334 L 3.83,8.334 L -3.83,8.334 L -3.83,-8.334" stroke="#000000" stroke-width="1.152"/></g><g transform="translate(92.014 -345.852)"><path d=" M 0,0"/><path d=" M -6.421,-10.925 L 6.421,-10.925 L 6.421,10.925 L -6.421,10.925 L -6.421,-10.925" fill="#F2EDDE" stroke="#000000" stroke-width="1.152"/><path d=" M -3.83,-8.334 L 3.83,-8.334 L 3.83,8.334 L -3.83,8.334 L -3.83,-8.334" fill="#000000"/><path d=" M 0,-8.334 L 0,8.334 M -3.83,-2.778 L 3.83,-2.778 M -3.83,2.778 L 3.83,2.778" stroke="#F2EDDE" stroke-width="1.152"/><path d=" M -3.83,-8.334 L 3.83,-8.334 L 3.83,8.334 L -3.83,8.334 L -3.83,-8.334" stroke="#000000" stroke-width="1.152"/></g><g transform="translate(92.014 -406.856)"><path d=" M 0,0"/><path d=" M -6.421,-10.925 L 6.421,-10.925 L 6.421,10.925 L -6.421,10.925 L -6.421,-10.925" fill="#F2EDDE" stroke="#000000" stroke-width="1.152"/><path d=" M -3.83,-8.334 L 3.83,-8.334 L 3.83,8.334 L -3.83,8.334 L -3.83,-8.334" fill="#000000"/><path d=" M 0,-8.334 L 0,8.334 M -3.83,-2.778 L 3.83,-2.778 M -3.83,2.778 L 3.83,2.778" stroke="#F2EDDE" stroke-width="1.152"/><path d=" M -3.83,-8.334 L 3.83,-8.334 L 3.83,8.334 L -3.83,8.334 L -3.83,-8.334" stroke="#000000" stroke-width="1.152"/></g></g><g><path d=" M 0,0"/><path d=" M -3.256,-0.101 L -2.121,0.101 L -1.706,-2.839 L -1.421,-4.447 L -1.127,-5.716 L -0.67,-7.297 L 0.262,-10.143 L -0.099,-10.276 L -1.238,-7.495 L -1.818,-5.923 L -2.215,-4.64 L -2.625,-3.019 L -3.256,-0.101" fill="#000000"/><path d=" M -8.014,-0.033 L -6.864,0.033 L -6.871,-1.698 L -6.865,-2.654 L -6.846,-3.418 L -6.806,-4.376 L -6.713,-6.107 L -7.094,-6.151 L -7.402,-4.442 L -7.563,-3.487 L -7.678,-2.718 L -7.805,-1.757 L -8.014,-0.033" fill="#000000"/><path d=" M -15.717,0.109 L -14.586,-0.109 L -15.085,-2.137 L -15.409,-3.266 L -15.72,-4.16 L -16.17,-5.247 L -17.048,-7.159 L -17.405,-7.017 L -16.733,-5.035 L -16.407,-3.938 L -16.199,-3.059 L -16.002,-1.943 L -15.717,0.109" fill="#000000"/><path d=" M -17.307,0.219 L -16.241,-0.219 L -17.402,-2.763 L -18.165,-4.144 L -18.91,-5.184 L -19.987,-6.371 L -22.084,-8.364 L -22.359,-8.096 L -20.436,-5.965 L -19.493,-4.749 L -18.876,-3.731 L -18.256,-2.372 L -17.307,0.219" fill="#000000"/><path d=" M -27.126,0.248 L -26.087,-0.248 L -27.313,-2.567 L -28.12,-3.814 L -28.905,-4.731 L -30.032,-5.744 L -32.215,-7.4 L -32.459,-7.103 L -30.437,-5.292 L -29.447,-4.243 L -28.799,-3.347 L -28.142,-2.124 L -27.126,0.248" fill="#000000"/><path d=" M 150.232,-0.038 L 151.381,0.038 L 151.389,-1.694 L 151.405,-2.651 L 151.434,-3.414 L 151.489,-4.371 L 151.612,-6.103 L 151.232,-6.154 L 150.894,-4.447 L 150.718,-3.493 L 150.592,-2.724 L 150.455,-1.763 L 150.232,-0.038" fill="#000000"/><path d=" M 151.52,-0.053 L 152.668,0.053 L 152.819,-2.76 L 152.931,-4.313 L 153.054,-5.55 L 153.252,-7.099 L 153.662,-9.893 L 153.284,-9.964 L 152.661,-7.203 L 152.342,-5.659 L 152.121,-4.414 L 151.887,-2.855 L 151.52,-0.053" fill="#000000"/><path d=" M 162.705,-0.223 L 163.767,0.223 L 164.575,-1.973 L 165.101,-3.119 L 165.625,-3.974 L 166.432,-4.998 L 168.082,-6.794 L 167.811,-7.066 L 165.989,-5.411 L 165.049,-4.418 L 164.395,-3.54 L 163.724,-2.372 L 162.705,-0.223" fill="#000000"/><path d=" M 168.231,-0.275 L 169.244,0.275 L 170.09,-1.505 L 170.629,-2.402 L 171.156,-3.041 L 171.972,-3.78 L 173.652,-5.04 L 173.439,-5.359 L 171.611,-4.27 L 170.657,-3.575 L 169.982,-2.915 L 169.286,-1.995 L 168.231,-0.275" fill="#000000"/><path d=" M -55.208,0 L -51.755,0 M -48.187,0 L -47.281,0 M -44.691,0 L -41.599,0 M -34.338,0 L -27.623,0 M -24.028,0 L -20.506,0 M -18.446,0 L -14.993,0 M -11.425,0 L -10.519,0 M -7.929,0 L -4.837,0 M 2.424,0 L 9.139,0 M 12.734,0 L 16.256,0 M 18.316,0 L 21.769,0 M 25.337,0 L 26.243,0 M 28.833,0 L 31.925,0 M 39.186,0 L 45.901,0 M 49.496,0 L 53.018,0 M 55.078,0 L 58.531,0 M 62.099,0 L 63.005,0 M 65.595,0 L 68.687,0 M 75.948,0 L 82.664,0 M 86.258,0 L 89.78,0 M 91.84,0 L 95.293,0 M 98.861,0 L 99.768,0 M 102.357,0 L 105.449,0 M 112.71,0 L 119.426,0 M 123.02,0 L 126.543,0 M 128.602,0 L 132.055,0 M 135.623,0 L 136.53,0 M 139.12,0 L 142.211,0 M 149.472,0 L 156.188,0 M 159.782,0 L 163.305,0 M 165.364,0 L 168.817,0 M 172.385,0 L 173.292,0 M 175.882,0 L 178.973,0 M 186.234,0 L 192.95,0 M 196.545,0 L 200.067,0 M 202.126,0 L 202.431,0 M -18.403,0 L 165.625,0" stroke="#000000" stroke-width="1.152"/></g><g transform="translate(147.223 0)"><path d=" M 0,0"/><path d=" M -24.555,0 L 24.555,0 L 24.555,-18.996 L -24.555,-18.996 L -24.555,0" fill="#E5D6B7"/><path d=" M -22.083,-18.996 L 22.083,-18.996 L 22.083,-437.358 L -22.083,-437.358 L -22.083,-18.996" fill="#F2EDDE"/><path d=" M -24.555,0 L -24.555,-18.996 L -22.083,-18.996 L -22.083,-437.358 L 22.083,-437.358 L 22.083,-18.996 L 24.555,-18.996 L 24.555,0" stroke="#000000" stroke-width="1.152"/><path d=" M -19.779,-18.996 L 19.779,-18.996" stroke="#000000" stroke-width="1.152"/><path d=" M -22.083,-67.333 L -20.621,-67.333 M -19.731,-67.333 L -19.346,-67.333 M -18.875,-67.333 L -17.855,-67.333 M -16.86,-67.333 L -16.725,-67.333 M -15.907,-67.333 L -15.608,-67.333 M -14.141,-67.333 L -12.679,-67.333 M -11.788,-67.333 L -11.403,-67.333 M -10.933,-67.333 L -10.306,-67.333 M -22.083,-67.333 L -17.667,-67.333 M 22.083,-67.333 L 21.775,-67.333 M 21.699,-67.333 L 21.177,-67.333 M 20.782,-67.333 L 20.769,-67.333 M 20.079,-67.333 L 19.433,-67.333 M 18.085,-67.333 L 17.781,-67.333 M 16.41,-67.333 L 16.102,-67.333 M 16.025,-67.333 L 15.503,-67.333 M 15.109,-67.333 L 15.096,-67.333 M 14.406,-67.333 L 13.76,-67.333 M 12.411,-67.333 L 12.108,-67.333 M 10.737,-67.333 L 10.428,-67.333 M 10.352,-67.333 L 10.306,-67.333 M 22.083,-67.333 L 17.667,-67.333 M -22.083,-128.337 L -21.674,-128.337 M -20.426,-128.337 L -19.475,-128.337 M -19.182,-128.337 L -18.891,-128.337 M -17.744,-128.337 L -17.528,-128.337 M -16.325,-128.337 L -15.072,-128.337 M -14.787,-128.337 L -14.377,-128.337 M -13.129,-128.337 L -12.179,-128.337 M -11.886,-128.337 L -11.594,-128.337 M -10.448,-128.337 L -10.306,-128.337 M -22.083,-128.337 L -17.667,-128.337 M 22.083,-128.337 L 21.597,-128.337 M 21.415,-128.337 L 21.313,-128.337 M 20.588,-128.337 L 20.333,-128.337 M 19.444,-128.337 L 18.359,-128.337 M 17.24,-128.337 L 16.78,-128.337 M 15.926,-128.337 L 15.44,-128.337 M 15.257,-128.337 L 15.156,-128.337 M 14.43,-128.337 L 14.176,-128.337 M 13.287,-128.337 L 12.201,-128.337 M 11.083,-128.337 L 10.622,-128.337 M 22.083,-128.337 L 17.667,-128.337 M -22.083,-189.341 L -20.802,-189.341 M -20.39,-189.341 L -19.286,-189.341 M -18.072,-189.341 L -17.074,-189.341 M -16.063,-189.341 L -15.961,-189.341 M -14.707,-189.341 L -13.918,-189.341 M -13.834,-189.341 L -12.552,-189.341 M -12.14,-189.341 L -11.036,-189.341 M -22.083,-189.341 L -17.667,-189.341 M 22.083,-189.341 L 20.637,-189.341 M 19.881,-189.341 L 18.59,-189.341 M 17.626,-189.341 L 17.268,-189.341 M 17.249,-189.341 L 16.107,-189.341 M 15.02,-189.341 L 14.411,-189.341 M 13.557,-189.341 L 12.11,-189.341 M 11.354,-189.341 L 10.306,-189.341 M 22.083,-189.341 L 17.667,-189.341 M -22.083,-250.346 L -21.484,-250.346 M -20.673,-250.346 L -19.714,-250.346 M -18.579,-250.346 L -17.661,-250.346 M -16.383,-250.346 L -15.491,-250.346 M -14.864,-250.346 L -14.721,-250.346 M -13.549,-250.346 L -12.949,-250.346 M -12.138,-250.346 L -11.18,-250.346 M -22.083,-250.346 L -17.667,-250.346 M 22.083,-250.346 L 21.738,-250.346 M 20.41,-250.346 L 19.834,-250.346 M 19.481,-250.346 L 18.709,-250.346 M 18.431,-250.346 L 17.678,-250.346 M 17.128,-250.346 L 16.69,-250.346 M 16.068,-250.346 L 15.722,-250.346 M 14.395,-250.346 L 13.819,-250.346 M 13.465,-250.346 L 12.694,-250.346 M 12.415,-250.346 L 11.663,-250.346 M 11.113,-250.346 L 10.675,-250.346 M 22.083,-250.346 L 17.667,-250.346 M -22.083,-311.35 L -21.981,-311.35 M -21.121,-311.35 L -20.809,-311.35 M -20.772,-311.35 L -20.002,-311.35 M -18.625,-311.35 L -18.1,-311.35 M -17.969,-311.35 L -17.524,-311.35 M -16.639,-311.35 L -16.536,-311.35 M -15.677,-311.35 L -15.365,-311.35 M -15.327,-311.35 L -14.557,-311.35 M -13.18,-311.35 L -12.655,-311.35 M -12.525,-311.35 L -12.079,-311.35 M -11.194,-311.35 L -11.092,-311.35 M -22.083,-311.35 L -17.667,-311.35 M 22.083,-311.35 L 21.801,-311.35 M 21.799,-311.35 L 21.415,-311.35 M 20.765,-311.35 L 20.344,-311.35 M 19.581,-311.35 L 18.373,-311.35 M 17.664,-311.35 L 16.211,-311.35 M 14.873,-311.35 L 14.591,-311.35 M 14.589,-311.35 L 14.205,-311.35 M 13.555,-311.35 L 13.133,-311.35 M 12.37,-311.35 L 11.162,-311.35 M 10.453,-311.35 L 10.306,-311.35 M 22.083,-311.35 L 17.667,-311.35 M -22.083,-372.354 L -21.836,-372.354 M -21.245,-372.354 L -21.098,-372.354 M -20.086,-372.354 L -20.042,-372.354 M -19.739,-372.354 L -18.567,-372.354 M -17.645,-372.354 L -16.74,-372.354 M -15.522,-372.354 L -15.275,-372.354 M -14.684,-372.354 L -14.536,-372.354 M -13.524,-372.354 L -13.48,-372.354 M -13.177,-372.354 L -12.006,-372.354 M -11.083,-372.354 L -10.306,-372.354 M -22.083,-372.354 L -17.667,-372.354 M 22.083,-372.354 L 20.7,-372.354 M 19.315,-372.354 L 18.946,-372.354 M 18.61,-372.354 L 18.086,-372.354 M 16.63,-372.354 L 15.366,-372.354 M 14.413,-372.354 L 13.15,-372.354 M 12.417,-372.354 L 11.033,-372.354 M 22.083,-372.354 L 17.667,-372.354 M -22.083,-433.358 L -20.473,-433.358 M -20.369,-433.358 L -18.665,-433.358 M -17.211,-433.358 L -16.138,-433.358 M -15.887,-433.358 L -15.837,-433.358 M -15.629,-433.358 L -13.434,-433.358 M -12.34,-433.358 L -10.73,-433.358 M -10.626,-433.358 L -8.922,-433.358 M -7.468,-433.358 L -6.395,-433.358 M -6.144,-433.358 L -6.094,-433.358 M -5.886,-433.358 L -3.691,-433.358 M -2.597,-433.358 L -0.987,-433.358 M -0.883,-433.358 L 0,-433.358 M -22.083,-433.358 L -11.042,-433.358 M 22.083,-433.358 L 20.848,-433.358 M 19.789,-433.358 L 18.129,-433.358 M 17.461,-433.358 L 16.543,-433.358 M 15.544,-433.358 L 15.139,-433.358 M 14.433,-433.358 L 13.144,-433.358 M 12.445,-433.358 L 11.209,-433.358 M 10.15,-433.358 L 8.49,-433.358 M 7.823,-433.358 L 6.904,-433.358 M 5.905,-433.358 L 5.5,-433.358 M 4.795,-433.358 L 3.505,-433.358 M 2.806,-433.358 L 1.57,-433.358 M 0.511,-433.358 L 0,-433.358 M 22.083,-433.358 L 11.042,-433.358" stroke="#000000" stroke-width="1.152"/><path d=" M 24.555,-437.358 L -24.555,-437.358 L -20.585,-443.475 L 0,-537.577 L 20.585,-443.475 L 24.555,-437.358" fill="#E5D6B7" stroke="#000000" stroke-width="1.152"/><path d=" M -24.555,-437.358 L -20.714,-437.358 M -20.714,-437.358 L -17.767,-437.358 M -13.226,-437.358 L -11.804,-437.358 M -8.02,-437.358 L -4.569,-437.358 M 0.334,-437.358 L 2.099,-437.358 M 3.835,-437.358 L 4.185,-437.358 M 6.454,-437.358 L 9.402,-437.358 M 13.942,-437.358 L 15.364,-437.358 M 19.148,-437.358 L 22.6,-437.358 M 23.846,-437.358 L 24.555,-437.358 M -20.585,-443.475 L -14.592,-443.475 M -14.592,-443.475 L -10.258,-443.475 M -7.503,-443.475 L -4.325,-443.475 M 0.13,-443.475 L 0.606,-443.475 M 2.035,-443.475 L 4.612,-443.475 M 7.5,-443.475 L 10.935,-443.475 M 11.359,-443.475 L 20.585,-443.475 M -19.649,-447.753 L -14.271,-447.753 M -14.271,-447.753 L -11.232,-447.753 M -7.837,-447.753 L -7.349,-447.753 M -3.353,-447.753 L 0.212,-447.753 M 1.448,-447.753 L 3.863,-447.753 M 5.082,-447.753 L 5.971,-447.753 M 6.971,-447.753 L 10.01,-447.753 M 11.085,-447.753 L 19.649,-447.753 M -18.713,-452.03 L -14.553,-452.03 M -14.553,-452.03 L -12.02,-452.03 M -9.36,-452.03 L -7.899,-452.03 M -4.981,-452.03 L -2.989,-452.03 M -2.038,-452.03 L 0.941,-452.03 M 2.339,-452.03 L 2.722,-452.03 M 5.077,-452.03 L 7.609,-452.03 M 10.269,-452.03 L 11.73,-452.03 M 14.649,-452.03 L 15.225,-452.03 M 15.225,-452.03 L 18.713,-452.03 M -17.778,-456.307 L -5.75,-456.307 M -5.75,-456.307 L -4.503,-456.307 M -2.21,-456.307 L -0.857,-456.307 M 3.692,-456.307 L 5.674,-456.307 M 10.578,-456.307 L 14.743,-456.307 M 15.419,-456.307 L 17.778,-456.307 M -16.842,-460.585 L -7.9,-460.585 M -7.9,-460.585 L -6.443,-460.585 M -5.534,-460.585 L -1.278,-460.585 M 0.63,-460.585 L 1.485,-460.585 M 2.752,-460.585 L 5.964,-460.585 M 8.855,-460.585 L 12.188,-460.585 M 15.049,-460.585 L 16.842,-460.585 M -15.906,-464.862 L -4.874,-464.862 M -4.874,-464.862 L -1.522,-464.862 M -0.353,-464.862 L 3.409,-464.862 M 7.659,-464.862 L 12.263,-464.862 M 13.886,-464.862 L 15.906,-464.862 M -14.971,-469.139 L -13.244,-469.139 M -13.244,-469.139 L -8.784,-469.139 M -5.039,-469.139 L -1.153,-469.139 M 3.303,-469.139 L 6.425,-469.139 M 6.825,-469.139 L 10.68,-469.139 M 13.919,-469.139 L 14.148,-469.139 M 14.273,-469.139 L 14.971,-469.139 M -14.035,-473.417 L -12.795,-473.417 M -12.795,-473.417 L -12.204,-473.417 M -10.048,-473.417 L -6.598,-473.417 M -2.167,-473.417 L 0.803,-473.417 M 4.616,-473.417 L 4.933,-473.417 M 9.114,-473.417 L 13.255,-473.417 M 13.434,-473.417 L 14.035,-473.417 M -13.099,-477.694 L -4.966,-477.694 M -4.966,-477.694 L -1.099,-477.694 M 1.796,-477.694 L 4.601,-477.694 M 8.307,-477.694 L 12.542,-477.694 M 12.632,-477.694 L 13.099,-477.694 M -12.164,-481.971 L -10.34,-481.971 M -10.34,-481.971 L -7.172,-481.971 M -3.961,-481.971 L -1.157,-481.971 M 1.39,-481.971 L 6.119,-481.971 M 7.777,-481.971 L 8.865,-481.971 M 10.763,-481.971 L 12.164,-481.971 M -11.228,-486.249 L -10.61,-486.249 M -10.61,-486.249 L -8.958,-486.249 M -6.137,-486.249 L -4.708,-486.249 M -0.947,-486.249 L 0.067,-486.249 M 4.51,-486.249 L 5.59,-486.249 M 8.149,-486.249 L 9.455,-486.249 M 9.688,-486.249 L 11.228,-486.249 M -10.292,-490.526 L -9.409,-490.526 M -9.409,-490.526 L -7.204,-490.526 M -3.027,-490.526 L 0.735,-490.526 M 3.718,-490.526 L 5.791,-490.526 M 7.277,-490.526 L 10.292,-490.526 M -9.357,-494.803 L -5.087,-494.803 M -5.087,-494.803 L -1.94,-494.803 M 2.474,-494.803 L 4.449,-494.803 M 7.356,-494.803 L 7.506,-494.803 M 7.506,-494.803 L 9.357,-494.803 M -8.421,-499.081 L -6.539,-499.081 M -6.539,-499.081 L -5.912,-499.081 M -3.721,-499.081 L -1.505,-499.081 M 1.398,-499.081 L 2.932,-499.081 M 6.248,-499.081 L 8.399,-499.081 M 8.399,-499.081 L 8.421,-499.081 M -7.485,-503.358 L -3.308,-503.358 M -3.308,-503.358 L -0.916,-503.358 M 0.545,-503.358 L 4.958,-503.358 M 6.827,-503.358 L 7.485,-503.358 M -6.55,-507.635 L -4.67,-507.635 M -4.67,-507.635 L -1.555,-507.635 M 3.026,-507.635 L 5.962,-507.635 M 6.448,-507.635 L 6.55,-507.635 M -5.614,-511.913 L -4.004,-511.913 M -4.004,-511.913 L -2.09,-511.913 M 1.844,-511.913 L 1.997,-511.913 M 2.301,-511.913 L 3.078,-511.913 M 3.664,-511.913 L 5.614,-511.913 M -4.678,-516.19 L -3.588,-516.19 M -3.588,-516.19 L 0.609,-516.19 M 2.178,-516.19 L 3.65,-516.19 M 3.65,-516.19 L 4.678,-516.19 M -3.743,-520.467 L -3.642,-520.467 M -3.642,-520.467 L -0.621,-520.467 M 1.121,-520.467 L 2.872,-520.467 M 3.591,-520.467 L 3.743,-520.467 M -2.807,-524.745 L -2.187,-524.745 M -2.187,-524.745 L -0.902,-524.745 M 2.423,-524.745 L 2.807,-524.745 M -1.871,-529.022 L -1.517,-529.022 M -1.517,-529.022 L 1.859,-529.022 M 1.859,-529.022 L 1.871,-529.022 M -0.936,-533.299 L -0.622,-533.299 M -0.622,-533.299 L 0.724,-533.299 M 0.724,-533.299 L 0.936,-533.299" stroke="#000000" stroke-width="1.152"/><g transform="translate(15.615 -71.333)"><path d=" M 0,0"/><path d=" M -2.708,-8.334 L 2.708,-8.334 L 2.708,8.334 L -2.708,8.334 L -2.708,-8.334" fill="#F2EDDE" stroke="#000000" stroke-width="1.152"/><path d=" M -2.708,-8.334 L 2.708,-8.334 L 2.708,8.334 L -2.708,8.334 L -2.708,-8.334" fill="#000000"/><path d=" M 0,-8.334 L 0,8.334 M -2.708,-2.778 L 2.708,-2.778 M -2.708,2.778 L 2.708,2.778" stroke="#F2EDDE" stroke-width="1.152"/><path d=" M -2.708,-8.334 L 2.708,-8.334 L 2.708,8.334 L -2.708,8.334 L -2.708,-8.334" stroke="#000000" stroke-width="1.152"/></g><g transform="translate(15.615 -132.337)"><path d=" M 0,0"/><path d=" M -2.708,-8.334 L 2.708,-8.334 L 2.708,8.334 L -2.708,8.334 L -2.708,-8.334" fill="#F2EDDE" stroke="#000000" stroke-width="1.152"/><path d=" M -2.708,-8.334 L 2.708,-8.334 L 2.708,8.334 L -2.708,8.334 L -2.708,-8.334" fill="#000000"/><path d=" M 0,-8.334 L 0,8.334 M -2.708,-2.778 L 2.708,-2.778 M -2.708,2.778 L 2.708,2.778" stroke="#F2EDDE" stroke-width="1.152"/><path d=" M -2.708,-8.334 L 2.708,-8.334 L 2.708,8.334 L -2.708,8.334 L -2.708,-8.334" stroke="#000000" stroke-width="1.152"/></g><g transform="translate(15.615 -193.341)"><path d=" M 0,0"/><path d=" M -2.708,-8.334 L 2.708,-8.334 L 2.708,8.334 L -2.708,8.334 L -2.708,-8.334" fill="#F2EDDE" stroke="#000000" stroke-width="1.152"/><path d=" M -2.708,-8.334 L 2.708,-8.334 L 2.708,8.334 L -2.708,8.334 L -2.708,-8.334" fill="#000000"/><path d=" M 0,-8.334 L 0,8.334 M -2.708,-2.778 L 2.708,-2.778 M -2.708,2.778 L 2.708,2.778" stroke="#F2EDDE" stroke-width="1.152"/><path d=" M -2.708,-8.334 L 2.708,-8.334 L 2.708,8.334 L -2.708,8.334 L -2.708,-8.334" stroke="#000000" stroke-width="1.152"/></g><g transform="translate(15.615 -254.346)"><path d=" M 0,0"/><path d=" M -2.708,-8.334 L 2.708,-8.334 L 2.708,8.334 L -2.708,8.334 L -2.708,-8.334" fill="#F2EDDE" stroke="#000000" stroke-width="1.152"/><path d=" M -2.708,-8.334 L 2.708,-8.334 L 2.708,8.334 L -2.708,8.334 L -2.708,-8.334" fill="#000000"/><path d=" M 0,-8.334 L 0,8.334 M -2.708,-2.778 L 2.708,-2.778 M -2.708,2.778 L 2.708,2.778" stroke="#F2EDDE" stroke-width="1.152"/><path d=" M -2.708,-8.334 L 2.708,-8.334 L 2.708,8.334 L -2.708,8.334 L -2.708,-8.334" stroke="#000000" stroke-width="1.152"/></g><g transform="translate(15.615 -315.35)"><path d=" M 0,0"/><path d=" M -2.708,-8.334 L 2.708,-8.334 L 2.708,8.334 L -2.708,8.334 L -2.708,-8.334" fill="#F2EDDE" stroke="#000000" stroke-width="1.152"/><path d=" M -2.708,-8.334 L 2.708,-8.334 L 2.708,8.334 L -2.708,8.334 L -2.708,-8.334" fill="#000000"/><path d=" M 0,-8.334 L 0,8.334 M -2.708,-2.778 L 2.708,-2.778 M -2.708,2.778 L 2.708,2.778" stroke="#F2EDDE" stroke-width="1.152"/><path d=" M -2.708,-8.334 L 2.708,-8.334 L 2.708,8.334 L -2.708,8.334 L -2.708,-8.334" stroke="#000000" stroke-width="1.152"/></g><g transform="translate(15.615 -376.354)"><path d=" M 0,0"/><path d=" M -2.708,-8.334 L 2.708,-8.334 L 2.708,8.334 L -2.708,8.334 L -2.708,-8.334" fill="#F2EDDE" stroke="#000000" stroke-width="1.152"/><path d=" M -2.708,-8.334 L 2.708,-8.334 L 2.708,8.334 L -2.708,8.334 L -2.708,-8.334" fill="#000000"/><path d=" M 0,-8.334 L 0,8.334 M -2.708,-2.778 L 2.708,-2.778 M -2.708,2.778 L 2.708,2.778" stroke="#F2EDDE" stroke-width="1.152"/><path d=" M -2.708,-8.334 L 2.708,-8.334 L 2.708,8.334 L -2.708,8.334 L -2.708,-8.334" stroke="#000000" stroke-width="1.152"/></g><g transform="translate(0 -537.577)"><path d=" M 0,0"/><path d=" M 1.152,-3.456 Q 1.152,-2.979 0.815,-2.641 Q 0.477,-2.304 0,-2.304 L 0,-2.304 Q -0.477,-2.304 -0.815,-2.641 Q -1.152,-2.979 -1.152,-3.456 L -1.152,-3.456 Q -1.152,-3.933 -0.815,-4.271 Q -0.477,-4.608 0,-4.608 L 0,-4.608 Q 0.477,-4.608 0.815,-4.271 Q 1.152,-3.933 1.152,-3.456 L 1.152,-3.456" stroke="#000000" stroke-width="1.152"/><path d=" M 0,-10.162 L 4.742,-8.581 M 5.318,-8.581 Q 5.318,-8.343 5.149,-8.174 Q 4.98,-8.005 4.742,-8.005 L 4.742,-8.005 Q 4.503,-8.005 4.334,-8.174 Q 4.166,-8.343 4.166,-8.581 L 4.166,-8.581 Q 4.166,-8.82 4.334,-8.989 Q 4.503,-9.157 4.742,-9.157 L 4.742,-9.157 Q 4.98,-9.157 5.149,-8.989 Q 5.318,-8.82 5.318,-8.581 L 5.318,-8.581 M 0,-10.162 L -4.742,-8.581 M -4.166,-8.581 Q -4.166,-8.343 -4.334,-8.174 Q -4.503,-8.005 -4.742,-8.005 L -4.742,-8.005 Q -4.98,-8.005 -5.149,-8.174 Q -5.318,-8.343 -5.318,-8.581 L -5.318,-8.581 Q -5.318,-8.82 -5.149,-8.989 Q -4.98,-9.157 -4.742,-9.157 L -4.742,-9.157 Q -4.503,-9.157 -4.334,-8.989 Q -4.166,-8.82 -4.166,-8.581 L -4.166,-8.581 M 0,-10.162 L -4.742,-11.742 M -4.166,-11.742 Q -4.166,-11.504 -4.334,-11.335 Q -4.503,-11.166 -4.742,-11.166 L -4.742,-11.166 Q -4.98,-11.166 -5.149,-11.335 Q -5.318,-11.504 -5.318,-11.742 L -5.318,-11.742 Q -5.318,-11.981 -5.149,-12.15 Q -4.98,-12.318 -4.742,-12.318 L -4.742,-12.318 Q -4.503,-12.318 -4.334,-12.15 Q -4.166,-11.981 -4.166,-11.742 L -4.166,-11.742 M 0,-10.162 L 4.742,-11.742 M 5.318,-11.742 Q 5.318,-11.504 5.149,-11.335 Q 4.98,-11.166 4.742,-11.166 L 4.742,-11.166 Q 4.503,-11.166 4.334,-11.335 Q 4.166,-11.504 4.166,-11.742 L 4.166,-11.742 Q 4.166,-11.981 4.334,-12.15 Q 4.503,-12.318 4.742,-12.318 L 4.742,-12.318 Q 4.98,-12.318 5.149,-12.15 Q 5.318,-11.981 5.318,-11.742 L 5.318,-11.742" stroke="#000000" stroke-width="1.152"/><path d=" M -7.378,-17.54 L 7.378,-17.54 L 3.689,-19.384 M 7.378,-17.54 L 3.689,-15.695 M -7.378,-19.384 L -5.533,-17.54 L -7.378,-15.695 M -5.533,-19.384 L -3.689,-17.54 L -5.533,-15.695" stroke="#000000" stroke-width="1.152"/><path d=" M -0.576,0 L 0.576,0 L 0.576,-40.374 L -0.576,-40.374 L -0.576,0" fill="#000000"/><path d=" M 0.576,-40.374 Q 0.576,-40.135 0.407,-39.966 Q 0.239,-39.798 0,-39.798 L 0,-39.798 Q -0.239,-39.798 -0.407,-39.966 Q -0.576,-40.135 -0.576,-40.374 L -0.576,-40.374 Q -0.576,-40.612 -0.407,-40.781 Q -0.239,-40.95 0,-40.95 L 0,-40.95 Q 0.239,-40.95 0.407,-40.781 Q 0.576,-40.612 0.576,-40.374 L 0.576,-40.374" stroke="#000000" stroke-width="1.152"/></g></g></g><style/><defs/></svg>