<?xml version="1.0" encoding="UTF-8" standalone="no"?><svg width="347.223" height="694.065" xmlns="http://www.w3.org/2000/svg" stroke-linejoin="round" stroke-linecap="round" fill-rule="evenodd" fill="none"><rect x="0" y="0" width="347.223" height="694.065" fill="#F2EDDE"/><g transform="translate(100 594.065)"><path d=" M 0,0"/><g><path d=" M 0,0"/><path d=" M -24.555,0 L 24.555,0 L 24.555,-18.996 L -24.555,-18.996 L -24.555,0" fill="#EEE6D3"/><path d=" M -22.083,-18.996 L 22.083,-18.996 L 22.083,-437.358 L -22.083,-437.358 L -22.083,-18.996" fill="#F2EDDE"/><path d=" M -24.555,0 L -24.555,-18.996 L -22.083,-18.996 L -22.083,-437.358 L 22.083,-437.358 L 22.083,-18.996 L 24.555,-18.996 L 24.555,0" stroke="#B2AEA3" stroke-width="1.152"/><path d=" M -19.779,-18.996 L 19.779,-18.996" stroke="#B2AEA3" stroke-width="1.152"/><path d=" M -22.083,-67.333 L -22.066,-67.333 M -21.032,-67.333 L -19.862,-67.333 M -19.042,-67.333 L -19.01,-67.333 M -17.837,-67.333 L -16.951,-67.333 M -15.509,-67.333 L -14.476,-67.333 M -13.026,-67.333 L -13.009,-67.333 M -11.975,-67.333 L -10.805,-67.333 M -22.083,-67.333 L -17.667,-67.333 M 22.083,-67.333 L 21.127,-67.333 M 20.362,-67.333 L 20.018,-67.333 M 18.87,-67.333 L 18.514,-67.333 M 17.047,-67.333 L 16.929,-67.333 M 15.668,-67.333 L 15.423,-67.333 M 14.382,-67.333 L 13.426,-67.333 M 12.661,-67.333 L 12.317,-67.333 M 11.169,-67.333 L 10.813,-67.333 M 22.083,-67.333 L 17.667,-67.333 M -22.083,-128.337 L -20.847,-128.337 M -20.403,-128.337 L -20.011,-128.337 M -19.723,-128.337 L -18.554,-128.337 M -18.245,-128.337 L -16.791,-128.337 M -16.612,-128.337 L -16.051,-128.337 M -14.816,-128.337 L -13.579,-128.337 M -13.135,-128.337 L -12.744,-128.337 M -12.455,-128.337 L -11.286,-128.337 M -10.977,-128.337 L -10.306,-128.337 M -22.083,-128.337 L -17.667,-128.337 M 22.083,-128.337 L 21.253,-128.337 M 19.791,-128.337 L 19.345,-128.337 M 19.013,-128.337 L 18.125,-128.337 M 16.874,-128.337 L 15.766,-128.337 M 15.655,-128.337 L 14.985,-128.337 M 14.674,-128.337 L 13.844,-128.337 M 12.382,-128.337 L 11.936,-128.337 M 11.604,-128.337 L 10.716,-128.337 M 22.083,-128.337 L 17.667,-128.337 M -22.083,-189.341 L -20.903,-189.341 M -20.543,-189.341 L -19.724,-189.341 M -19.389,-189.341 L -18.228,-189.341 M -17.554,-189.341 L -16.16,-189.341 M -15.636,-189.341 L -14.257,-189.341 M -13.578,-189.341 L -12.398,-189.341 M -12.038,-189.341 L -11.219,-189.341 M -10.884,-189.341 L -10.306,-189.341 M -22.083,-189.341 L -17.667,-189.341 M 22.083,-189.341 L 21.289,-189.341 M 19.904,-189.341 L 19.176,-189.341 M 17.753,-189.341 L 17.621,-189.341 M 17.286,-189.341 L 16.648,-189.341 M 15.734,-189.341 L 15.12,-189.341 M 14.74,-189.341 L 13.946,-189.341 M 12.561,-189.341 L 11.833,-189.341 M 10.41,-189.341 L 10.306,-189.341 M 22.083,-189.341 L 17.667,-189.341 M -22.083,-250.346 L -21.909,-250.346 M -20.947,-250.346 L -19.771,-250.346 M -18.925,-250.346 L -18.687,-250.346 M -17.824,-250.346 L -17.555,-250.346 M -17.311,-250.346 L -16.218,-250.346 M -16.135,-250.346 L -15.961,-250.346 M -14.999,-250.346 L -13.823,-250.346 M -12.977,-250.346 L -12.739,-250.346 M -11.876,-250.346 L -11.607,-250.346 M -11.363,-250.346 L -10.306,-250.346 M -22.083,-250.346 L -17.667,-250.346 M 22.083,-250.346 L 21.662,-250.346 M 20.754,-250.346 L 20.284,-250.346 M 19.06,-250.346 L 18.498,-250.346 M 17.462,-250.346 L 16.159,-250.346 M 14.989,-250.346 L 14.451,-250.346 M 13.965,-250.346 L 13.544,-250.346 M 12.636,-250.346 L 12.165,-250.346 M 10.941,-250.346 L 10.38,-250.346 M 22.083,-250.346 L 17.667,-250.346 M -22.083,-311.35 L -21.791,-311.35 M -20.999,-311.35 L -19.802,-311.35 M -18.604,-311.35 L -18.208,-311.35 M -17.868,-311.35 L -17.285,-311.35 M -15.832,-311.35 L -15.734,-311.35 M -14.674,-311.35 L -14.381,-311.35 M -13.589,-311.35 L -12.392,-311.35 M -11.195,-311.35 L -10.798,-311.35 M -10.459,-311.35 L -10.306,-311.35 M -22.083,-311.35 L -17.667,-311.35 M 22.083,-311.35 L 21.059,-311.35 M 20.405,-311.35 L 20.39,-311.35 M 19.046,-311.35 L 18.701,-311.35 M 17.397,-311.35 L 17.234,-311.35 M 16.795,-311.35 L 16.477,-311.35 M 15.821,-311.35 L 14.797,-311.35 M 14.143,-311.35 L 14.127,-311.35 M 12.784,-311.35 L 12.438,-311.35 M 11.135,-311.35 L 10.972,-311.35 M 10.533,-311.35 L 10.306,-311.35 M 22.083,-311.35 L 17.667,-311.35 M -22.083,-372.354 L -21.736,-372.354 M -20.358,-372.354 L -19.547,-372.354 M -18.967,-372.354 L -18.182,-372.354 M -17.935,-372.354 L -16.804,-372.354 M -16.134,-372.354 L -16.057,-372.354 M -14.61,-372.354 L -14.262,-372.354 M -12.884,-372.354 L -12.073,-372.354 M -11.493,-372.354 L -10.708,-372.354 M -10.461,-372.354 L -10.306,-372.354 M -22.083,-372.354 L -17.667,-372.354 M 22.083,-372.354 L 20.838,-372.354 M 20.336,-372.354 L 18.96,-372.354 M 18.167,-372.354 L 17.173,-372.354 M 16.309,-372.354 L 15.662,-372.354 M 14.451,-372.354 L 13.538,-372.354 M 13.535,-372.354 L 12.289,-372.354 M 11.787,-372.354 L 10.412,-372.354 M 22.083,-372.354 L 17.667,-372.354 M -22.083,-433.358 L -21.561,-433.358 M -20.144,-433.358 L -18.944,-433.358 M -18.079,-433.358 L -16.681,-433.358 M -15.204,-433.358 L -14.259,-433.358 M -12.236,-433.358 L -10.355,-433.358 M -8.651,-433.358 L -8.129,-433.358 M -6.711,-433.358 L -5.512,-433.358 M -4.647,-433.358 L -3.249,-433.358 M -1.772,-433.358 L -0.827,-433.358 M -22.083,-433.358 L -11.042,-433.358 M 22.083,-433.358 L 21.837,-433.358 M 20.046,-433.358 L 18.068,-433.358 M 16.035,-433.358 L 15.727,-433.358 M 15.345,-433.358 L 15.203,-433.358 M 13.873,-433.358 L 13.087,-433.358 M 12.807,-433.358 L 12.561,-433.358 M 10.77,-433.358 L 8.792,-433.358 M 6.759,-433.358 L 6.451,-433.358 M 6.069,-433.358 L 5.926,-433.358 M 4.597,-433.358 L 3.811,-433.358 M 3.531,-433.358 L 3.284,-433.358 M 1.494,-433.358 L 0,-433.358 M 22.083,-433.358 L 11.042,-433.358" stroke="#B2AEA3" stroke-width="1.152"/><path d=" M 24.555,-437.358 L -24.555,-437.358 L -20.585,-443.475 L 0,-537.577 L 20.585,-443.475 L 24.555,-437.358" fill="#EEE6D3" stroke="#B2AEA3" stroke-width="1.152"/><path d=" M -24.555,-437.358 L -17.568,-437.358 M -17.568,-437.358 L -14.598,-437.358 M -11.867,-437.358 L -11.511,-437.358 M -11.319,-437.358 L -10.066,-437.358 M -5.842,-437.358 L -1.485,-437.358 M 0.247,-437.358 L 5.045,-437.358 M 5.109,-437.358 L 8.078,-437.358 M 10.809,-437.358 L 11.165,-437.358 M 11.357,-437.358 L 12.61,-437.358 M 16.834,-437.358 L 21.192,-437.358 M 22.924,-437.358 L 24.377,-437.358 M 24.377,-437.358 L 24.555,-437.358 M -20.585,-443.475 L -12.974,-443.475 M -12.974,-443.475 L -12.45,-443.475 M -10.943,-443.475 L -6.374,-443.475 M -3.818,-443.475 L -0.619,-443.475 M 0.197,-443.475 L 3.352,-443.475 M 7.798,-443.475 L 10.303,-443.475 M 10.303,-443.475 L 20.585,-443.475 M -19.649,-447.753 L -16.763,-447.753 M -16.763,-447.753 L -13.234,-447.753 M -12.932,-447.753 L -8.833,-447.753 M -4.161,-447.753 L -4.09,-447.753 M -1.065,-447.753 L 2.023,-447.753 M 4.759,-447.753 L 6.907,-447.753 M 10.744,-447.753 L 14.273,-447.753 M 14.576,-447.753 L 15.185,-447.753 M 15.185,-447.753 L 19.649,-447.753 M -18.713,-452.03 L -8.263,-452.03 M -8.263,-452.03 L -4.326,-452.03 M -1.42,-452.03 L -1.18,-452.03 M -0.665,-452.03 L 3.772,-452.03 M 6.034,-452.03 L 7.232,-452.03 M 7.677,-452.03 L 10.629,-452.03 M 10.629,-452.03 L 18.713,-452.03 M -17.778,-456.307 L -14.065,-456.307 M -14.065,-456.307 L -11.613,-456.307 M -7.529,-456.307 L -6.591,-456.307 M -3.524,-456.307 L 1.086,-456.307 M 2.541,-456.307 L 2.992,-456.307 M 7.605,-456.307 L 12.076,-456.307 M 14.248,-456.307 L 16.614,-456.307 M 16.614,-456.307 L 17.778,-456.307 M -16.842,-460.585 L -15.646,-460.585 M -15.646,-460.585 L -13.176,-460.585 M -9.351,-460.585 L -8.687,-460.585 M -6.4,-460.585 L -5.948,-460.585 M -4.085,-460.585 L 0.462,-460.585 M 0.993,-460.585 L 4.66,-460.585 M 4.952,-460.585 L 7.421,-460.585 M 11.247,-460.585 L 11.911,-460.585 M 13.689,-460.585 L 16.842,-460.585 M -15.906,-464.862 L -12.411,-464.862 M -12.411,-464.862 L -9.608,-464.862 M -8.834,-464.862 L -6.679,-464.862 M -3.555,-464.862 L 0.355,-464.862 M 1.046,-464.862 L 2.116,-464.862 M 2.922,-464.862 L 5.574,-464.862 M 8.162,-464.862 L 15.906,-464.862 M -14.971,-469.139 L -6.435,-469.139 M -6.435,-469.139 L -4.526,-469.139 M -3.878,-469.139 L -2.099,-469.139 M -0.753,-469.139 L 3.303,-469.139 M 3.515,-469.139 L 5.592,-469.139 M 6.573,-469.139 L 14.971,-469.139 M -14.035,-473.417 L -9.368,-473.417 M -9.368,-473.417 L -8.436,-473.417 M -5.381,-473.417 L -2.998,-473.417 M 0.812,-473.417 L 4.929,-473.417 M 8.341,-473.417 L 14.035,-473.417 M -13.099,-477.694 L -11.298,-477.694 M -11.298,-477.694 L -10.763,-477.694 M -9.334,-477.694 L -4.71,-477.694 M -2.405,-477.694 L 0.147,-477.694 M 2.923,-477.694 L 3.226,-477.694 M 6.336,-477.694 L 7.231,-477.694 M 10.656,-477.694 L 11.191,-477.694 M 11.877,-477.694 L 13.099,-477.694 M -12.164,-481.971 L -10.064,-481.971 M -10.064,-481.971 L -6.317,-481.971 M -4.384,-481.971 L -4.354,-481.971 M 0.164,-481.971 L 4.207,-481.971 M 9.19,-481.971 L 9.843,-481.971 M 9.843,-481.971 L 12.164,-481.971 M -11.228,-486.249 L -5.118,-486.249 M -5.118,-486.249 L -2.929,-486.249 M -2.582,-486.249 L -1.641,-486.249 M 1.701,-486.249 L 3.44,-486.249 M 7.548,-486.249 L 8.633,-486.249 M 8.633,-486.249 L 11.228,-486.249 M -10.292,-490.526 L -9.071,-490.526 M -9.071,-490.526 L -5.461,-490.526 M -2.4,-490.526 L -0.014,-490.526 M 2.481,-490.526 L 3.941,-490.526 M 8.46,-490.526 L 8.755,-490.526 M 8.755,-490.526 L 10.292,-490.526 M -9.357,-494.803 L -5.33,-494.803 M -5.33,-494.803 L -1.393,-494.803 M 0.53,-494.803 L 2.111,-494.803 M 4.566,-494.803 L 9.357,-494.803 M -8.421,-499.081 L -6.752,-499.081 M -6.752,-499.081 L -6.652,-499.081 M -1.953,-499.081 L 0.882,-499.081 M 3.682,-499.081 L 4.936,-499.081 M 4.936,-499.081 L 8.421,-499.081 M -7.485,-503.358 L -3.836,-503.358 M -3.836,-503.358 L -0.61,-503.358 M 3.43,-503.358 L 6.794,-503.358 M 6.794,-503.358 L 7.485,-503.358 M -6.55,-507.635 L -4.071,-507.635 M -4.071,-507.635 L -1.263,-507.635 M 1.811,-507.635 L 2.136,-507.635 M 2.156,-507.635 L 3.729,-507.635 M 3.729,-507.635 L 6.55,-507.635 M -5.614,-511.913 L -4.834,-511.913 M -4.834,-511.913 L -1.131,-511.913 M -0.899,-511.913 L 0.465,-511.913 M 0.508,-511.913 L 1.056,-511.913 M 3.562,-511.913 L 5.614,-511.913 M -4.678,-516.19 L -3.113,-516.19 M -3.113,-516.19 L -1.322,-516.19 M 1.05,-516.19 L 1.815,-516.19 M 1.815,-516.19 L 4.678,-516.19 M -3.743,-520.467 L -2.457,-520.467 M -2.457,-520.467 L 0.833,-520.467 M 2.169,-520.467 L 3.743,-520.467 M -2.807,-524.745 L -2.442,-524.745 M -2.442,-524.745 L -0.11,-524.745 M 2.345,-524.745 L 2.692,-524.745 M 2.692,-524.745 L 2.807,-524.745 M -1.871,-529.022 L -0.673,-529.022 M -0.673,-529.022 L 1.757,-529.022 M 1.757,-529.022 L 1.871,-529.022 M -0.936,-533.299 L -0.749,-533.299 M -0.749,-533.299 L 0.873,-533.299 M 0.873,-533.299 L 0.936,-533.299" stroke="#B2AEA3" stroke-width="1.152"/><g transform="translate(0 -537.577)"><path d=" M 0,0"/><path d=" M 1.152,-3.456 Q 1.152,-2.979 0.815,-2.641 Q 0.477,-2.304 0,-2.304 L 0,-2.304 Q -0.477,-2.304 -0.815,-2.641 Q -1.152,-2.979 -1.152,-3.456 L -1.152,-3.456 Q -1.152,-3.933 -0.815,-4.271 Q -0.477,-4.608 0,-4.608 L 0,-4.608 Q 0.477,-4.608 0.815,-4.271 Q 1.152,-3.933 1.152,-3.456 L 1.152,-3.456" stroke="#B2AEA3" stroke-width="1.152"/><path d=" M 0,-10.162 L 4.742,-8.581 M 5.318,-8.581 Q 5.318,-8.343 5.149,-8.174 Q 4.98,-8.005 4.742,-8.005 L 4.742,-8.005 Q 4.503,-8.005 4.334,-8.174 Q 4.166,-8.343 4.166,-8.581 L 4.166,-8.581 Q 4.166,-8.82 4.334,-8.989 Q 4.503,-9.157 4.742,-9.157 L 4.742,-9.157 Q 4.98,-9.157 5.149,-8.989 Q 5.318,-8.82 5.318,-8.581 L 5.318,-8.581 M 0,-10.162 L -4.742,-8.581 M -4.166,-8.581 Q -4.166,-8.343 -4.334,-8.174 Q -4.503,-8.005 -4.742,-8.005 L -4.742,-8.005 Q -4.98,-8.005 -5.149,-8.174 Q -5.318,-8.343 -5.318,-8.581 L -5.318,-8.581 Q -5.318,-8.82 -5.149,-8.989 Q -4.98,-9.157 -4.742,-9.157 L -4.742,-9.157 Q -4.503,-9.157 -4.334,-8.989 Q -4.166,-8.82 -4.166,-8.581 L -4.166,-8.581 M 0,-10.162 L -4.742,-11.742 M -4.166,-11.742 Q -4.166,-11.504 -4.334,-11.335 Q -4.503,-11.166 -4.742,-11.166 L -4.742,-11.166 Q -4.98,-11.166 -5.149,-11.335 Q -5.318,-11.504 -5.318,-11.742 L -5.318,-11.742 Q -5.318,-11.981 -5.149,-12.15 Q -4.98,-12.318 -4.742,-12.318 L -4.742,-12.318 Q -4.503,-12.318 -4.334,-12.15 Q -4.166,-11.981 -4.166,-11.742 L -4.166,-11.742 M 0,-10.162 L 4.742,-11.742 M 5.318,-11.742 Q 5.318,-11.504 5.149,-11.335 Q 4.98,-11.166 4.742,-11.166 L 4.742,-11.166 Q 4.503,-11.166 4.334,-11.335 Q 4.166,-11.504 4.166,-11.742 L 4.166,-11.742 Q 4.166,-11.981 4.334,-12.15 Q 4.503,-12.318 4.742,-12.318 L 4.742,-12.318 Q 4.98,-12.318 5.149,-12.15 Q 5.318,-11.981 5.318,-11.742 L 5.318,-11.742" stroke="#B2AEA3" stroke-width="1.152"/><path d=" M -7.378,-17.54 L 7.378,-17.54 L 3.689,-19.384 M 7.378,-17.54 L 3.689,-15.695 M -7.378,-19.384 L -5.533,-17.54 L -7.378,-15.695 M -5.533,-19.384 L -3.689,-17.54 L -5.533,-15.695" stroke="#B2AEA3" stroke-width="1.152"/><path d=" M -0.576,0 L 0.576,0 L 0.576,-40.374 L -0.576,-40.374 L -0.576,0" fill="#B2AEA3"/><path d=" M 0.576,-40.374 Q 0.576,-40.135 0.407,-39.966 Q 0.239,-39.798 0,-39.798 L 0,-39.798 Q -0.239,-39.798 -0.407,-39.966 Q -0.576,-40.135 -0.576,-40.374 L -0.576,-40.374 Q -0.576,-40.612 -0.407,-40.781 Q -0.239,-40.95 0,-40.95 L 0,-40.95 Q 0.239,-40.95 0.407,-40.781 Q 0.576,-40.612 0.576,-40.374 L 0.576,-40.374" stroke="#B2AEA3" stroke-width="1.152"/></g></g><g transform="translate(147.223 -10.329)"><path d=" M 0,0"/><g transform="translate(0 -38.836)"><path d=" M 0,0"/><path d=" M 0,-13.322 L 12.269,-13.322" stroke="#A29F95" stroke-width="1.152"/><path d=" M 6.134,-13.322 Q 5.163,-13.322 4.239,-13.022 Q 3.315,-12.722 2.529,-12.151 Q 1.743,-11.58 1.172,-10.794 Q 0.6,-10.008 0.3,-9.084 Q 0,-8.16 0,-7.188" stroke="#A29F95" stroke-width="1.152"/><g transform="translate(12.269 0)"><path d=" M 0,0"/><path d=" M -2.117,0 L 2.117,0 L 3.19,-8.566 L -3.19,-8.566" fill="#F2EDDE"/><path d=" M -2.117,0 L 2.117,0" stroke="#A29F95" stroke-width="1.152"/><path d=" M 0,-10.656 L 3.19,-8.566 L -3.19,-8.566" fill="#A29F95" stroke="#A29F95" stroke-width="1.152"/><path d=" M -2.117,0 L -3.19,-8.566 M 2.117,0 L 3.19,-8.566 M 0,0 L 0,-8.566 M 0,-10.656 L 0,-12.746" stroke="#A29F95" stroke-width="1.152"/></g></g><g><path d=" M 0,0"/><path d=" M 17.472,10.329 L 2.472,10.329 L 2.472,0 L 7.472,0 L 7.472,3.443 L 12.472,3.443 L 12.472,6.886 L 17.472,6.886 L 17.472,10.329" fill="#F2EDDE" stroke="#A29F95" stroke-width="1.152"/></g></g><g><path d=" M 0,0"/><path d=" M 73.611,-128.039 L 73.611,-71.333 L 128.82,-71.333 L 92.014,-128.039 L 73.611,-128.039" fill="#EBE1CA" stroke="#76736C" stroke-width="1.152"/><path d=" M 73.611,-75.695 L 79.062,-75.695 M 79.062,-75.695 L 87.352,-75.695 M 91.942,-75.695 L 95.357,-75.695 M 98.351,-75.695 L 103.697,-75.695 M 106.013,-75.695 L 109.032,-75.695 M 111.518,-75.695 L 112.62,-75.695 M 116.591,-75.695 L 120.217,-75.695 M 73.611,-80.057 L 88.132,-80.057 M 88.132,-80.057 L 94.242,-80.057 M 97.722,-80.057 L 105.16,-80.057 M 108.841,-80.057 L 111.039,-80.057 M 114.458,-80.057 L 115.437,-80.057 M 115.437,-80.057 L 117.386,-80.057 M 73.611,-84.419 L 86.118,-84.419 M 86.118,-84.419 L 94.077,-84.419 M 97.672,-84.419 L 107.135,-84.419 M 109.044,-84.419 L 114.554,-84.419 M 73.611,-88.781 L 75.695,-88.781 M 75.695,-88.781 L 83.327,-88.781 M 84.709,-88.781 L 86.734,-88.781 M 90.806,-88.781 L 91.371,-88.781 M 91.605,-88.781 L 93.06,-88.781 M 95.883,-88.781 L 101.801,-88.781 M 102.08,-88.781 L 108.449,-88.781 M 108.449,-88.781 L 111.723,-88.781 M 73.611,-93.143 L 77.644,-93.143 M 77.644,-93.143 L 83.062,-93.143 M 85.256,-93.143 L 86.135,-93.143 M 88.074,-93.143 L 92.577,-93.143 M 93.449,-93.143 L 101.434,-93.143 M 102.764,-93.143 L 108.892,-93.143 M 73.611,-97.505 L 78.624,-97.505 M 78.624,-97.505 L 86.216,-97.505 M 90.421,-97.505 L 93.78,-97.505 M 95.018,-97.505 L 95.621,-97.505 M 96.736,-97.505 L 100.137,-97.505 M 102.826,-97.505 L 106.061,-97.505 M 73.611,-101.867 L 79.338,-101.867 M 79.338,-101.867 L 88.009,-101.867 M 89.66,-101.867 L 91.755,-101.867 M 94.111,-101.867 L 94.546,-101.867 M 95.217,-101.867 L 100.039,-101.867 M 100.039,-101.867 L 103.23,-101.867 M 73.611,-106.229 L 74.76,-106.229 M 74.76,-106.229 L 80.195,-106.229 M 80.852,-106.229 L 80.894,-106.229 M 81.292,-106.229 L 88.927,-106.229 M 92.745,-106.229 L 92.852,-106.229 M 92.852,-106.229 L 100.398,-106.229 M 73.611,-110.591 L 75.207,-110.591 M 75.207,-110.591 L 76.457,-110.591 M 76.709,-110.591 L 77.553,-110.591 M 79.311,-110.591 L 80.06,-110.591 M 84.236,-110.591 L 85.103,-110.591 M 85.797,-110.591 L 94.522,-110.591 M 96.572,-110.591 L 96.618,-110.591 M 96.618,-110.591 L 97.567,-110.591 M 73.611,-114.953 L 75.074,-114.953 M 75.074,-114.953 L 78.225,-114.953 M 80.959,-114.953 L 88.231,-114.953 M 89.004,-114.953 L 94.736,-114.953 M 73.611,-119.315 L 74.829,-119.315 M 74.829,-119.315 L 79.45,-119.315 M 82.614,-119.315 L 87.879,-119.315 M 89.954,-119.315 L 91.905,-119.315 M 73.611,-123.677 L 78.074,-123.677 M 78.074,-123.677 L 85.86,-123.677 M 87.408,-123.677 L 87.527,-123.677 M 87.527,-123.677 L 89.074,-123.677" stroke="#76736C" stroke-width="1.152"/><path d=" M 0,0 L 0,-449.887 L 8.066,-449.887 L 16.131,-449.887 L 16.131,-437.358 L 28.74,-437.358 L 28.74,-449.887 L 36.806,-449.887 L 44.871,-449.887 L 44.871,-437.358 L 57.48,-437.358 L 57.48,-449.887 L 65.546,-449.887 L 73.611,-449.887 L 73.611,-83.862 L 81.677,-83.862 L 89.742,-83.862 L 89.742,-71.333 L 102.351,-71.333 L 102.351,-83.862 L 110.417,-83.862 L 118.483,-83.862 L 118.483,-71.333 L 131.091,-71.333 L 131.091,-83.862 L 139.157,-83.862 L 147.223,-83.862 L 147.223,0" fill="#F2EDDE" stroke="#76736C" stroke-width="1.152"/><path d=" M -2.472,0 L 149.694,0 L 149.694,-18.996 L -2.472,-18.996 L -2.472,0" fill="#EBE1CA"/><path d=" M 0,-18.996 L -2.472,-18.996 L -2.472,0 L 149.694,0 L 149.694,-18.996 L 147.223,-18.996" stroke="#76736C" stroke-width="1.152" stroke-linejoin="round" stroke-linecap="square"/><path d=" M 2.304,-18.996 L 144.919,-18.996" stroke="#76736C" stroke-width="1.152"/><path d=" M 0,-67.333 L 2.825,-67.333 M 6.089,-67.333 L 10.678,-67.333 M 15.128,-67.333 L 20.278,-67.333 M 22.957,-67.333 L 25.712,-67.333 M 27.548,-67.333 L 30.231,-67.333 M 32.862,-67.333 L 35.688,-67.333 M 38.951,-67.333 L 43.54,-67.333 M 47.991,-67.333 L 52.051,-67.333 M 0,-67.333 L 26.026,-67.333 M 147.223,-67.333 L 147.202,-67.333 M 144.561,-67.333 L 141.857,-67.333 M 137.694,-67.333 L 132.656,-67.333 M 128.42,-67.333 L 124.345,-67.333 M 122.974,-67.333 L 121.526,-67.333 M 116.768,-67.333 L 116.748,-67.333 M 114.106,-67.333 L 111.403,-67.333 M 107.239,-67.333 L 102.202,-67.333 M 97.965,-67.333 L 95.172,-67.333 M 147.223,-67.333 L 121.197,-67.333" stroke="#76736C" stroke-width="1.152"/><g transform="translate(18.403 -345.852)"><path d=" M 0,0"/><path d=" M -6.421,-10.925 L 6.421,-10.925 L 6.421,10.925 L -6.421,10.925 L -6.421,-10.925" fill="#F2EDDE" stroke="#76736C" stroke-width="1.152"/><path d=" M -3.83,-8.334 L 3.83,-8.334 L 3.83,8.334 L -3.83,8.334 L -3.83,-8.334" fill="#76736C"/><path d=" M 0,-8.334 L 0,8.334 M -3.83,-2.778 L 3.83,-2.778 M -3.83,2.778 L 3.83,2.778" stroke="#F2EDDE" stroke-width="1.152"/><path d=" M -3.83,-8.334 L 3.83,-8.334 L 3.83,8.334 L -3.83,8.334 L -3.83,-8.334" stroke="#76736C" stroke-width="1.152"/></g><g transform="translate(18.403 -406.856)"><path d=" M 0,0"/><path d=" M -6.421,-10.925 L 6.421,-10.925 L 6.421,10.925 L -6.421,10.925 L -6.421,-10.925" fill="#F2EDDE" stroke="#76736C" stroke-width="1.152"/><path d=" M -3.83,-8.334 L 3.83,-8.334 L 3.83,8.334 L -3.83,8.334 L -3.83,-8.334" fill="#76736C"/><path d=" M 0,-8.334 L 0,8.334 M -3.83,-2.778 L 3.83,-2.778 M -3.83,2.778 L 3.83,2.778" stroke="#F2EDDE" stroke-width="1.152"/><path d=" M -3.83,-8.334 L 3.83,-8.334 L 3.83,8.334 L -3.83,8.334 L -3.83,-8.334" stroke="#76736C" stroke-width="1.152"/></g><g transform="translate(55.208 -345.852)"><path d=" M 0,0"/><path d=" M -6.421,-10.925 L 6.421,-10.925 L 6.421,10.925 L -6.421,10.925 L -6.421,-10.925" fill="#F2EDDE" stroke="#76736C" stroke-width="1.152"/><path d=" M -3.83,-8.334 L 3.83,-8.334 L 3.83,8.334 L -3.83,8.334 L -3.83,-8.334" fill="#76736C"/><path d=" M 0,-8.334 L 0,8.334 M -3.83,-2.778 L 3.83,-2.778 M -3.83,2.778 L 3.83,2.778" stroke="#F2EDDE" stroke-width="1.152"/><path d=" M -3.83,-8.334 L 3.83,-8.334 L 3.83,8.334 L -3.83,8.334 L -3.83,-8.334" stroke="#76736C" stroke-width="1.152"/></g><g transform="translate(55.208 -406.856)"><path d=" M 0,0"/><path d=" M -6.421,-10.925 L 6.421,-10.925 L 6.421,10.925 L -6.421,10.925 L -6.421,-10.925" fill="#F2EDDE" stroke="#76736C" stroke-width="1.152"/><path d=" M -3.83,-8.334 L 3.83,-8.334 L 3.83,8.334 L -3.83,8.334 L -3.83,-8.334" fill="#76736C"/><path d=" M 0,-8.334 L 0,8.334 M -3.83,-2.778 L 3.83,-2.778 M -3.83,2.778 L 3.83,2.778" stroke="#F2EDDE" stroke-width="1.152"/><path d=" M -3.83,-8.334 L 3.83,-8.334 L 3.83,8.334 L -3.83,8.334 L -3.83,-8.334" stroke="#76736C" stroke-width="1.152"/></g></g><g><path d=" M 0,0"/><path d=" M -4.195,-0.012 L -3.043,0.012 L -3.111,-1.896 L -3.145,-2.954 L -3.166,-3.801 L -3.187,-4.86 L -3.215,-6.77 L -3.598,-6.786 L -3.786,-4.884 L -3.886,-3.826 L -3.961,-2.977 L -4.047,-1.917 L -4.195,-0.012" fill="#76736C"/><path d=" M -8.13,0.028 L -6.98,-0.028 L -7.205,-2.403 L -7.343,-3.726 L -7.469,-4.783 L -7.645,-6.1 L -7.986,-8.462 L -8.369,-8.424 L -8.243,-6.044 L -8.186,-4.725 L -8.157,-3.672 L -8.139,-2.353 L -8.13,0.028" fill="#76736C"/><path d=" M -11.996,0.12 L -10.869,-0.12 L -11.411,-2.152 L -11.762,-3.283 L -12.102,-4.176 L -12.593,-5.256 L -13.552,-7.15 L -13.903,-6.994 L -13.148,-5.023 L -12.782,-3.931 L -12.548,-3.055 L -12.323,-1.939 L -11.996,0.12" fill="#76736C"/><path d=" M -16.571,0.05 L -15.423,-0.05 L -15.761,-2.671 L -15.975,-4.13 L -16.177,-5.296 L -16.467,-6.741 L -17.032,-9.326 L -17.41,-9.26 L -17.059,-6.642 L -16.89,-5.192 L -16.786,-4.034 L -16.693,-2.581 L -16.571,0.05" fill="#76736C"/><path d=" M -25.448,0.187 L -24.359,-0.187 L -25.221,-2.373 L -25.787,-3.575 L -26.339,-4.498 L -27.137,-5.576 L -28.69,-7.415 L -28.994,-7.181 L -27.627,-5.223 L -26.96,-4.123 L -26.527,-3.221 L -26.098,-2.04 L -25.448,0.187" fill="#76736C"/><path d=" M -28.592,0.275 L -27.58,-0.275 L -28.714,-2.139 L -29.461,-3.134 L -30.186,-3.848 L -31.213,-4.601 L -33.187,-5.785 L -33.4,-5.466 L -31.574,-4.11 L -30.685,-3.313 L -30.108,-2.62 L -29.518,-1.649 L -28.592,0.275" fill="#76736C"/><path d=" M 149.901,-0.069 L 151.045,0.069 L 151.273,-2.726 L 151.435,-4.265 L 151.608,-5.487 L 151.882,-7.017 L 152.444,-9.776 L 152.071,-9.867 L 151.297,-7.152 L 150.902,-5.629 L 150.629,-4.396 L 150.344,-2.849 L 149.901,-0.069" fill="#76736C"/><path d=" M 152.139,-0.106 L 153.272,0.106 L 153.605,-2.265 L 153.835,-3.558 L 154.075,-4.577 L 154.45,-5.848 L 155.218,-8.14 L 154.86,-8.279 L 153.885,-6.054 L 153.386,-4.794 L 153.043,-3.76 L 152.687,-2.454 L 152.139,-0.106" fill="#76736C"/><path d=" M 156.158,-0.079 L 157.299,0.079 L 157.44,-1.726 L 157.544,-2.714 L 157.659,-3.498 L 157.846,-4.48 L 158.235,-6.26 L 157.866,-6.364 L 157.266,-4.636 L 156.957,-3.66 L 156.742,-2.865 L 156.514,-1.867 L 156.158,-0.079" fill="#76736C"/><path d=" M 160.094,-0.083 L 161.234,0.083 L 161.473,-2.317 L 161.641,-3.633 L 161.821,-4.676 L 162.104,-5.981 L 162.687,-8.336 L 162.319,-8.445 L 161.526,-6.143 L 161.12,-4.846 L 160.84,-3.791 L 160.548,-2.465 L 160.094,-0.083" fill="#76736C"/><path d=" M 162.775,-0.077 L 163.916,0.077 L 164.086,-1.989 L 164.21,-3.122 L 164.344,-4.02 L 164.559,-5.146 L 165.005,-7.182 L 164.635,-7.284 L 163.978,-5.298 L 163.64,-4.179 L 163.406,-3.269 L 163.16,-2.126 L 162.775,-0.077" fill="#76736C"/><path d=" M 177.145,-0.219 L 178.211,0.219 L 178.775,-1.433 L 179.142,-2.291 L 179.51,-2.932 L 180.085,-3.709 L 181.273,-5.085 L 180.998,-5.354 L 179.636,-4.115 L 178.928,-3.368 L 178.431,-2.704 L 177.92,-1.824 L 177.145,-0.219" fill="#76736C"/><path d=" M 186.137,-0.281 L 187.143,0.281 L 188.008,-1.484 L 188.558,-2.369 L 189.094,-2.997 L 189.925,-3.717 L 191.634,-4.938 L 191.428,-5.262 L 189.574,-4.215 L 188.605,-3.541 L 187.919,-2.894 L 187.211,-1.985 L 186.137,-0.281" fill="#76736C"/><path d=" M -55.208,0 L -47.906,0 M -45.41,0 L -41.088,0 M -36.098,0 L -35.056,0 M -28.831,0 L -27.074,0 M -22.648,0 L -21.915,0 M -20.21,0 L -12.907,0 M -10.412,0 L -6.09,0 M -1.099,0 L -0.058,0 M 6.167,0 L 7.925,0 M 12.35,0 L 13.083,0 M 14.788,0 L 22.091,0 M 24.587,0 L 28.909,0 M 33.899,0 L 34.941,0 M 41.166,0 L 42.923,0 M 47.349,0 L 48.082,0 M 49.787,0 L 57.09,0 M 59.585,0 L 63.907,0 M 68.898,0 L 69.939,0 M 76.164,0 L 77.921,0 M 82.347,0 L 83.08,0 M 84.785,0 L 92.088,0 M 94.584,0 L 98.906,0 M 103.896,0 L 104.938,0 M 111.163,0 L 112.92,0 M 117.346,0 L 118.079,0 M 119.784,0 L 127.087,0 M 129.582,0 L 133.904,0 M 138.895,0 L 139.936,0 M 146.161,0 L 147.918,0 M 152.344,0 L 153.077,0 M 154.782,0 L 162.085,0 M 164.581,0 L 168.903,0 M 173.893,0 L 174.935,0 M 181.16,0 L 182.917,0 M 187.343,0 L 188.076,0 M 189.781,0 L 197.083,0 M 199.579,0 L 202.431,0 M -18.403,0 L 165.625,0" stroke="#76736C" stroke-width="1.152"/></g><g><path d=" M 0,0"/><path d=" M 73.611,-189.044 L 73.611,-132.337 L 128.82,-132.337 L 92.014,-189.044 L 73.611,-189.044" fill="#E9DEC5" stroke="#57554F" stroke-width="1.152"/><path d=" M 73.611,-136.699 L 80.599,-136.699 M 80.599,-136.699 L 86.248,-136.699 M 86.835,-136.699 L 91.401,-136.699 M 95.358,-136.699 L 98.451,-136.699 M 99.424,-136.699 L 102.555,-136.699 M 106.837,-136.699 L 120.217,-136.699 M 73.611,-141.061 L 81.047,-141.061 M 81.047,-141.061 L 83.365,-141.061 M 83.969,-141.061 L 93.059,-141.061 M 97.338,-141.061 L 99.273,-141.061 M 102.58,-141.061 L 104.326,-141.061 M 108.653,-141.061 L 114.27,-141.061 M 114.848,-141.061 L 115.321,-141.061 M 115.321,-141.061 L 117.386,-141.061 M 73.611,-145.423 L 76.707,-145.423 M 76.707,-145.423 L 79.577,-145.423 M 83.726,-145.423 L 93.309,-145.423 M 96.373,-145.423 L 99.519,-145.423 M 100.197,-145.423 L 109.074,-145.423 M 109.841,-145.423 L 112.48,-145.423 M 112.929,-145.423 L 114.158,-145.423 M 114.158,-145.423 L 114.554,-145.423 M 73.611,-149.785 L 83.432,-149.785 M 83.432,-149.785 L 87.499,-149.785 M 92.094,-149.785 L 93.945,-149.785 M 94.275,-149.785 L 98.825,-149.785 M 100.447,-149.785 L 104.21,-149.785 M 108.514,-149.785 L 111.723,-149.785 M 73.611,-154.147 L 76.027,-154.147 M 76.027,-154.147 L 85.128,-154.147 M 88.496,-154.147 L 89.36,-154.147 M 91.315,-154.147 L 92.226,-154.147 M 95.656,-154.147 L 98.812,-154.147 M 98.812,-154.147 L 108.892,-154.147 M 73.611,-158.509 L 74.397,-158.509 M 74.397,-158.509 L 81.572,-158.509 M 83.198,-158.509 L 85.527,-158.509 M 87.588,-158.509 L 90.872,-158.509 M 93.043,-158.509 L 95.297,-158.509 M 99.063,-158.509 L 106.061,-158.509 M 73.611,-162.871 L 74.599,-162.871 M 74.599,-162.871 L 76.994,-162.871 M 79.446,-162.871 L 89,-162.871 M 91.808,-162.871 L 96.237,-162.871 M 97.267,-162.871 L 99.431,-162.871 M 99.431,-162.871 L 103.23,-162.871 M 73.611,-167.233 L 75.899,-167.233 M 75.899,-167.233 L 80.882,-167.233 M 81.624,-167.233 L 82.887,-167.233 M 87.862,-167.233 L 91.797,-167.233 M 94.061,-167.233 L 95.231,-167.233 M 98.408,-167.233 L 100.398,-167.233 M 73.611,-171.595 L 75.27,-171.595 M 75.27,-171.595 L 75.483,-171.595 M 78.451,-171.595 L 83.667,-171.595 M 85.123,-171.595 L 89.639,-171.595 M 91.156,-171.595 L 97.539,-171.595 M 97.539,-171.595 L 97.567,-171.595 M 73.611,-175.957 L 76.47,-175.957 M 76.47,-175.957 L 83.145,-175.957 M 83.429,-175.957 L 84.945,-175.957 M 89.469,-175.957 L 90.157,-175.957 M 91.367,-175.957 L 92.92,-175.957 M 92.92,-175.957 L 94.736,-175.957 M 73.611,-180.319 L 75.925,-180.319 M 75.925,-180.319 L 82.352,-180.319 M 86.257,-180.319 L 87.497,-180.319 M 87.497,-180.319 L 91.905,-180.319 M 73.611,-184.682 L 76.142,-184.682 M 76.142,-184.682 L 76.777,-184.682 M 77.11,-184.682 L 78.899,-184.682 M 79.678,-184.682 L 86.595,-184.682 M 87.46,-184.682 L 89.074,-184.682" stroke="#57554F" stroke-width="1.152"/><path d=" M 0,0 L 0,-266.875 L 8.066,-266.875 L 16.131,-266.875 L 16.131,-254.346 L 28.74,-254.346 L 28.74,-266.875 L 36.806,-266.875 L 44.871,-266.875 L 44.871,-254.346 L 57.48,-254.346 L 57.48,-266.875 L 65.546,-266.875 L 73.611,-266.875 L 73.611,-144.866 L 81.677,-144.866 L 89.742,-144.866 L 89.742,-132.337 L 102.351,-132.337 L 102.351,-144.866 L 110.417,-144.866 L 118.483,-144.866 L 118.483,-132.337 L 131.091,-132.337 L 131.091,-144.866 L 139.157,-144.866 L 147.223,-144.866 L 147.223,0" fill="#F2EDDE" stroke="#57554F" stroke-width="1.152"/><path d=" M -2.472,0 L 149.694,0 L 149.694,-18.996 L -2.472,-18.996 L -2.472,0" fill="#E9DEC5"/><path d=" M 0,-18.996 L -2.472,-18.996 L -2.472,0 L 149.694,0 L 149.694,-18.996 L 147.223,-18.996" stroke="#57554F" stroke-width="1.152" stroke-linejoin="round" stroke-linecap="square"/><path d=" M 2.304,-18.996 L 144.919,-18.996" stroke="#57554F" stroke-width="1.152"/><path d=" M 0,-67.333 L 2.913,-67.333 M 6.877,-67.333 L 10.001,-67.333 M 10.584,-67.333 L 11.813,-67.333 M 12.316,-67.333 L 14.421,-67.333 M 17.457,-67.333 L 18.457,-67.333 M 19.378,-67.333 L 22.291,-67.333 M 26.254,-67.333 L 29.378,-67.333 M 29.962,-67.333 L 31.191,-67.333 M 31.693,-67.333 L 33.799,-67.333 M 36.835,-67.333 L 37.835,-67.333 M 38.755,-67.333 L 41.668,-67.333 M 45.632,-67.333 L 48.756,-67.333 M 49.34,-67.333 L 50.569,-67.333 M 51.071,-67.333 L 52.051,-67.333 M 0,-67.333 L 26.026,-67.333 M 147.223,-67.333 L 145.563,-67.333 M 144.416,-67.333 L 142.136,-67.333 M 140.379,-67.333 L 137.311,-67.333 M 136.977,-67.333 L 135.809,-67.333 M 131.568,-67.333 L 130.462,-67.333 M 126.087,-67.333 L 124.427,-67.333 M 123.281,-67.333 L 121,-67.333 M 119.244,-67.333 L 116.176,-67.333 M 115.841,-67.333 L 114.673,-67.333 M 110.433,-67.333 L 109.326,-67.333 M 104.952,-67.333 L 103.292,-67.333 M 102.145,-67.333 L 99.865,-67.333 M 98.109,-67.333 L 95.172,-67.333 M 147.223,-67.333 L 121.197,-67.333" stroke="#57554F" stroke-width="1.152"/><g transform="translate(18.403 -223.843)"><path d=" M 0,0"/><path d=" M -6.421,-10.925 L 6.421,-10.925 L 6.421,10.925 L -6.421,10.925 L -6.421,-10.925" fill="#F2EDDE" stroke="#57554F" stroke-width="1.152"/><path d=" M -3.83,-8.334 L 3.83,-8.334 L 3.83,8.334 L -3.83,8.334 L -3.83,-8.334" fill="#57554F"/><path d=" M 0,-8.334 L 0,8.334 M -3.83,-2.778 L 3.83,-2.778 M -3.83,2.778 L 3.83,2.778" stroke="#F2EDDE" stroke-width="1.152"/><path d=" M -3.83,-8.334 L 3.83,-8.334 L 3.83,8.334 L -3.83,8.334 L -3.83,-8.334" stroke="#57554F" stroke-width="1.152"/></g><g transform="translate(55.208 -223.843)"><path d=" M 0,0"/><path d=" M -6.421,-10.925 L 6.421,-10.925 L 6.421,10.925 L -6.421,10.925 L -6.421,-10.925" fill="#F2EDDE" stroke="#57554F" stroke-width="1.152"/><path d=" M -3.83,-8.334 L 3.83,-8.334 L 3.83,8.334 L -3.83,8.334 L -3.83,-8.334" fill="#57554F"/><path d=" M 0,-8.334 L 0,8.334 M -3.83,-2.778 L 3.83,-2.778 M -3.83,2.778 L 3.83,2.778" stroke="#F2EDDE" stroke-width="1.152"/><path d=" M -3.83,-8.334 L 3.83,-8.334 L 3.83,8.334 L -3.83,8.334 L -3.83,-8.334" stroke="#57554F" stroke-width="1.152"/></g></g><g><path d=" M 0,0"/><path d=" M -3.748,0.033 L -2.598,-0.033 L -2.797,-1.636 L -2.918,-2.53 L -3.027,-3.245 L -3.179,-4.134 L -3.468,-5.724 L -3.85,-5.68 L -3.775,-4.069 L -3.744,-3.178 L -3.732,-2.468 L -3.731,-1.578 L -3.748,0.033" fill="#57554F"/><path d=" M -6.107,0.089 L -4.969,-0.089 L -5.449,-2.458 L -5.759,-3.777 L -6.057,-4.824 L -6.488,-6.109 L -7.332,-8.387 L -7.698,-8.269 L -7.063,-5.934 L -6.754,-4.641 L -6.558,-3.607 L -6.372,-2.299 L -6.107,0.089" fill="#57554F"/><path d=" M -14.098,0.045 L -12.95,-0.045 L -13.272,-2.764 L -13.475,-4.278 L -13.666,-5.488 L -13.94,-6.99 L -14.475,-9.678 L -14.854,-9.618 L -14.534,-6.901 L -14.381,-5.395 L -14.287,-4.192 L -14.205,-2.684 L -14.098,0.045" fill="#57554F"/><path d=" M -16.991,0.114 L -15.861,-0.114 L -16.396,-2.222 L -16.743,-3.395 L -17.078,-4.322 L -17.563,-5.448 L -18.51,-7.426 L -18.864,-7.278 L -18.122,-5.226 L -17.762,-4.09 L -17.532,-3.179 L -17.311,-2.019 L -16.991,0.114" fill="#57554F"/><path d=" M -24.705,0.259 L -23.676,-0.259 L -24.856,-2.364 L -25.633,-3.493 L -26.388,-4.316 L -27.467,-5.209 L -29.549,-6.648 L -29.781,-6.342 L -27.855,-4.741 L -26.913,-3.808 L -26.299,-3.007 L -25.675,-1.902 L -24.705,0.259" fill="#57554F"/><path d=" M -31.319,0.288 L -30.322,-0.288 L -31.243,-1.67 L -31.854,-2.41 L -32.443,-2.931 L -33.268,-3.461 L -34.832,-4.265 L -35.029,-3.935 L -33.605,-2.953 L -32.92,-2.375 L -32.482,-1.872 L -32.033,-1.157 L -31.319,0.288" fill="#57554F"/><path d=" M 149.732,-0.035 L 150.882,0.035 L 150.887,-1.844 L 150.902,-2.883 L 150.928,-3.712 L 150.981,-4.751 L 151.098,-6.629 L 150.717,-6.675 L 150.384,-4.82 L 150.212,-3.783 L 150.088,-2.949 L 149.953,-1.906 L 149.732,-0.035" fill="#57554F"/><path d=" M 152.469,-0.075 L 153.611,0.075 L 153.831,-2.427 L 153.988,-3.802 L 154.156,-4.894 L 154.422,-6.259 L 154.97,-8.724 L 154.599,-8.823 L 153.84,-6.407 L 153.452,-5.048 L 153.184,-3.946 L 152.905,-2.562 L 152.469,-0.075" fill="#57554F"/><path d=" M 158.018,-0.076 L 159.16,0.076 L 159.459,-3.003 L 159.668,-4.696 L 159.888,-6.041 L 160.231,-7.72 L 160.933,-10.748 L 160.563,-10.848 L 159.649,-7.869 L 159.184,-6.196 L 158.864,-4.841 L 158.532,-3.138 L 158.018,-0.076" fill="#57554F"/><path d=" M 168.896,-0.164 L 170,0.164 L 170.551,-2.061 L 170.919,-3.251 L 171.292,-4.17 L 171.87,-5.301 L 173.054,-7.325 L 172.732,-7.534 L 171.355,-5.615 L 170.649,-4.502 L 170.161,-3.564 L 169.66,-2.354 L 168.896,-0.164" fill="#57554F"/><path d=" M 173.388,-0.303 L 174.367,0.303 L 175.125,-1.122 L 175.598,-1.82 L 176.057,-2.302 L 176.775,-2.845 L 178.266,-3.753 L 178.088,-4.093 L 176.465,-3.372 L 175.607,-2.881 L 174.991,-2.383 L 174.352,-1.662 L 173.388,-0.303" fill="#57554F"/><path d=" M -55.208,0 L -52.308,0 M -50.787,0 L -47.945,0 M -45.43,0 L -38.835,0 M -32.284,0 L -24.958,0 M -21.569,0 L -21.074,0 M -16.657,0 L -13.757,0 M -12.236,0 L -9.394,0 M -6.879,0 L -0.285,0 M 6.267,0 L 13.593,0 M 16.982,0 L 17.477,0 M 21.893,0 L 24.794,0 M 26.315,0 L 29.157,0 M 31.672,0 L 38.266,0 M 44.818,0 L 52.144,0 M 55.533,0 L 56.028,0 M 60.444,0 L 63.345,0 M 64.866,0 L 67.708,0 M 70.223,0 L 76.817,0 M 83.369,0 L 90.695,0 M 94.084,0 L 94.579,0 M 98.995,0 L 101.896,0 M 103.417,0 L 106.259,0 M 108.774,0 L 115.368,0 M 121.92,0 L 129.246,0 M 132.635,0 L 133.13,0 M 137.546,0 L 140.447,0 M 141.968,0 L 144.81,0 M 147.325,0 L 153.919,0 M 160.471,0 L 167.797,0 M 171.185,0 L 171.681,0 M 176.097,0 L 178.998,0 M 180.519,0 L 183.361,0 M 185.876,0 L 192.47,0 M 199.022,0 L 202.431,0 M -18.403,0 L 165.625,0" stroke="#57554F" stroke-width="1.152"/></g><g><path d=" M 0,0"/><path d=" M 55.208,-250.048 L 18.403,-193.341 L 128.82,-193.341 L 92.014,-250.048 L 55.208,-250.048" fill="#E5D6B7" stroke="#000000" stroke-width="1.152"/><path d=" M 27.006,-197.703 L 36.773,-197.703 M 36.773,-197.703 L 42.838,-197.703 M 44.975,-197.703 L 49.63,-197.703 M 51.678,-197.703 L 54.315,-197.703 M 54.711,-197.703 L 56.684,-197.703 M 58.387,-197.703 L 66.299,-197.703 M 66.361,-197.703 L 72.426,-197.703 M 74.563,-197.703 L 79.217,-197.703 M 81.266,-197.703 L 83.903,-197.703 M 84.299,-197.703 L 86.272,-197.703 M 87.974,-197.703 L 95.887,-197.703 M 95.948,-197.703 L 102.013,-197.703 M 104.15,-197.703 L 108.805,-197.703 M 110.853,-197.703 L 113.49,-197.703 M 113.886,-197.703 L 115.859,-197.703 M 117.562,-197.703 L 118.924,-197.703 M 118.924,-197.703 L 120.217,-197.703 M 29.837,-202.065 L 33.323,-202.065 M 33.323,-202.065 L 38.894,-202.065 M 42.039,-202.065 L 42.285,-202.065 M 46.13,-202.065 L 48.821,-202.065 M 52.733,-202.065 L 55.848,-202.065 M 56.062,-202.065 L 57.768,-202.065 M 61.262,-202.065 L 66.833,-202.065 M 69.977,-202.065 L 70.224,-202.065 M 74.068,-202.065 L 76.759,-202.065 M 80.671,-202.065 L 83.787,-202.065 M 84.001,-202.065 L 85.707,-202.065 M 89.2,-202.065 L 94.771,-202.065 M 97.916,-202.065 L 98.162,-202.065 M 102.006,-202.065 L 104.698,-202.065 M 108.61,-202.065 L 108.701,-202.065 M 108.701,-202.065 L 117.386,-202.065 M 32.668,-206.427 L 37.361,-206.427 M 37.361,-206.427 L 45.401,-206.427 M 46.537,-206.427 L 50.219,-206.427 M 53.121,-206.427 L 61.332,-206.427 M 65.863,-206.427 L 74.78,-206.427 M 77.142,-206.427 L 77.853,-206.427 M 79.857,-206.427 L 87.898,-206.427 M 89.034,-206.427 L 92.715,-206.427 M 95.618,-206.427 L 100.692,-206.427 M 100.692,-206.427 L 114.554,-206.427 M 35.499,-210.789 L 36.129,-210.789 M 36.129,-210.789 L 42.811,-210.789 M 43.827,-210.789 L 49.834,-210.789 M 51.478,-210.789 L 52.182,-210.789 M 56.121,-210.789 L 56.153,-210.789 M 58.088,-210.789 L 60.365,-210.789 M 65.257,-210.789 L 71.94,-210.789 M 72.956,-210.789 L 78.963,-210.789 M 80.606,-210.789 L 81.31,-210.789 M 85.25,-210.789 L 85.282,-210.789 M 87.217,-210.789 L 89.493,-210.789 M 94.386,-210.789 L 94.497,-210.789 M 94.497,-210.789 L 111.723,-210.789 M 38.331,-215.151 L 42.141,-215.151 M 42.141,-215.151 L 51.27,-215.151 M 51.972,-215.151 L 52.318,-215.151 M 54.595,-215.151 L 57.198,-215.151 M 59.794,-215.151 L 62.227,-215.151 M 62.5,-215.151 L 69.542,-215.151 M 70.339,-215.151 L 79.467,-215.151 M 80.169,-215.151 L 80.515,-215.151 M 82.793,-215.151 L 85.395,-215.151 M 87.991,-215.151 L 90.425,-215.151 M 90.697,-215.151 L 97.488,-215.151 M 97.488,-215.151 L 108.892,-215.151 M 41.162,-219.514 L 51.705,-219.514 M 51.705,-219.514 L 51.784,-219.514 M 54.687,-219.514 L 63.349,-219.514 M 63.698,-219.514 L 67.79,-219.514 M 68.632,-219.514 L 70.86,-219.514 M 71.185,-219.514 L 79.958,-219.514 M 84.937,-219.514 L 85.016,-219.514 M 87.918,-219.514 L 96.58,-219.514 M 96.929,-219.514 L 101.021,-219.514 M 101.863,-219.514 L 102.245,-219.514 M 102.245,-219.514 L 106.061,-219.514 M 43.993,-223.876 L 66.342,-223.876 M 66.342,-223.876 L 70.973,-223.876 M 74.338,-223.876 L 83.383,-223.876 M 83.894,-223.876 L 91.511,-223.876 M 92.906,-223.876 L 103.23,-223.876 M 46.824,-228.238 L 49.761,-228.238 M 49.761,-228.238 L 50.611,-228.238 M 51.592,-228.238 L 59.374,-228.238 M 59.382,-228.238 L 62.105,-228.238 M 65.069,-228.238 L 65.997,-228.238 M 68.632,-228.238 L 74.338,-228.238 M 78.374,-228.238 L 79.224,-228.238 M 80.205,-228.238 L 87.987,-228.238 M 87.995,-228.238 L 90.718,-228.238 M 93.423,-228.238 L 100.398,-228.238 M 49.655,-232.6 L 55.166,-232.6 M 55.166,-232.6 L 61.29,-232.6 M 64.059,-232.6 L 69.813,-232.6 M 72.181,-232.6 L 80.57,-232.6 M 81.293,-232.6 L 84.452,-232.6 M 84.452,-232.6 L 97.567,-232.6 M 52.487,-236.962 L 61.526,-236.962 M 61.526,-236.962 L 68.467,-236.962 M 72.52,-236.962 L 73.132,-236.962 M 77.639,-236.962 L 79.104,-236.962 M 80.217,-236.962 L 81.83,-236.962 M 86.587,-236.962 L 87.663,-236.962 M 88.842,-236.962 L 94.736,-236.962 M 55.318,-241.324 L 57.674,-241.324 M 57.674,-241.324 L 65.692,-241.324 M 70.049,-241.324 L 74.845,-241.324 M 79.351,-241.324 L 84.134,-241.324 M 85.549,-241.324 L 85.862,-241.324 M 87.87,-241.324 L 88.82,-241.324 M 88.82,-241.324 L 91.905,-241.324 M 58.149,-245.686 L 64.473,-245.686 M 64.473,-245.686 L 72.953,-245.686 M 75.717,-245.686 L 83.058,-245.686 M 84.372,-245.686 L 84.588,-245.686 M 88.16,-245.686 L 88.499,-245.686 M 89.053,-245.686 L 89.074,-245.686" stroke="#000000" stroke-width="1.152"/><path d=" M 0,0 L 0,-205.87 L 9.058,-205.87 L 18.116,-205.87 L 18.116,-193.341 L 32.277,-193.341 L 32.277,-205.87 L 41.335,-205.87 L 50.393,-205.87 L 50.393,-193.341 L 64.553,-193.341 L 64.553,-205.87 L 73.611,-205.87 L 82.669,-205.87 L 82.669,-193.341 L 96.83,-193.341 L 96.83,-205.87 L 105.888,-205.87 L 114.946,-205.87 L 114.946,-193.341 L 129.106,-193.341 L 129.106,-205.87 L 138.164,-205.87 L 147.223,-205.87 L 147.223,0" fill="#F2EDDE" stroke="#000000" stroke-width="1.152"/><path d=" M -2.472,0 L 149.694,0 L 149.694,-18.996 L -2.472,-18.996 L -2.472,0" fill="#E5D6B7"/><path d=" M 0,-18.996 L -2.472,-18.996 L -2.472,0 L 149.694,0 L 149.694,-18.996 L 147.223,-18.996" stroke="#000000" stroke-width="1.152" stroke-linejoin="round" stroke-linecap="square"/><path d=" M 2.304,-18.996 L 144.919,-18.996" stroke="#000000" stroke-width="1.152"/><path d=" M 0,-67.333 L 1.898,-67.333 M 6.48,-67.333 L 9.788,-67.333 M 9.973,-67.333 L 14.623,-67.333 M 16.34,-67.333 L 18.368,-67.333 M 20.329,-67.333 L 24.443,-67.333 M 28.815,-67.333 L 30.713,-67.333 M 35.295,-67.333 L 38.603,-67.333 M 38.788,-67.333 L 43.438,-67.333 M 45.155,-67.333 L 47.183,-67.333 M 49.143,-67.333 L 52.051,-67.333 M 0,-67.333 L 26.026,-67.333 M 147.223,-67.333 L 145.992,-67.333 M 144.221,-67.333 L 141.909,-67.333 M 139.573,-67.333 L 136.2,-67.333 M 134.968,-67.333 L 132.932,-67.333 M 130.019,-67.333 L 125.898,-67.333 M 123.141,-67.333 L 121.91,-67.333 M 120.139,-67.333 L 117.828,-67.333 M 115.491,-67.333 L 112.119,-67.333 M 110.887,-67.333 L 108.85,-67.333 M 105.938,-67.333 L 101.816,-67.333 M 99.06,-67.333 L 97.829,-67.333 M 96.058,-67.333 L 95.172,-67.333 M 147.223,-67.333 L 121.197,-67.333" stroke="#000000" stroke-width="1.152"/><g transform="translate(18.403 -162.839)"><path d=" M 0,0"/><path d=" M -6.421,-10.925 L 6.421,-10.925 L 6.421,10.925 L -6.421,10.925 L -6.421,-10.925" fill="#F2EDDE" stroke="#000000" stroke-width="1.152"/><path d=" M -3.83,-8.334 L 3.83,-8.334 L 3.83,8.334 L -3.83,8.334 L -3.83,-8.334" fill="#000000"/><path d=" M 0,-8.334 L 0,8.334 M -3.83,-2.778 L 3.83,-2.778 M -3.83,2.778 L 3.83,2.778" stroke="#F2EDDE" stroke-width="1.152"/><path d=" M -3.83,-8.334 L 3.83,-8.334 L 3.83,8.334 L -3.83,8.334 L -3.83,-8.334" stroke="#000000" stroke-width="1.152"/></g><g transform="translate(55.208 -162.839)"><path d=" M 0,0"/><path d=" M -6.421,-10.925 L 6.421,-10.925 L 6.421,10.925 L -6.421,10.925 L -6.421,-10.925" fill="#F2EDDE" stroke="#000000" stroke-width="1.152"/><path d=" M -3.83,-8.334 L 3.83,-8.334 L 3.83,8.334 L -3.83,8.334 L -3.83,-8.334" fill="#000000"/><path d=" M 0,-8.334 L 0,8.334 M -3.83,-2.778 L 3.83,-2.778 M -3.83,2.778 L 3.83,2.778" stroke="#F2EDDE" stroke-width="1.152"/><path d=" M -3.83,-8.334 L 3.83,-8.334 L 3.83,8.334 L -3.83,8.334 L -3.83,-8.334" stroke="#000000" stroke-width="1.152"/></g><g transform="translate(92.014 -162.839)"><path d=" M 0,0"/><path d=" M -6.421,-10.925 L 6.421,-10.925 L 6.421,10.925 L -6.421,10.925 L -6.421,-10.925" fill="#F2EDDE" stroke="#000000" stroke-width="1.152"/><path d=" M -3.83,-8.334 L 3.83,-8.334 L 3.83,8.334 L -3.83,8.334 L -3.83,-8.334" fill="#000000"/><path d=" M 0,-8.334 L 0,8.334 M -3.83,-2.778 L 3.83,-2.778 M -3.83,2.778 L 3.83,2.778" stroke="#F2EDDE" stroke-width="1.152"/><path d=" M -3.83,-8.334 L 3.83,-8.334 L 3.83,8.334 L -3.83,8.334 L -3.83,-8.334" stroke="#000000" stroke-width="1.152"/></g><g transform="translate(128.82 -162.839)"><path d=" M 0,0"/><path d=" M -6.421,-10.925 L 6.421,-10.925 L 6.421,10.925 L -6.421,10.925 L -6.421,-10.925" fill="#F2EDDE" stroke="#000000" stroke-width="1.152"/><path d=" M -3.83,-8.334 L 3.83,-8.334 L 3.83,8.334 L -3.83,8.334 L -3.83,-8.334" fill="#000000"/><path d=" M 0,-8.334 L 0,8.334 M -3.83,-2.778 L 3.83,-2.778 M -3.83,2.778 L 3.83,2.778" stroke="#F2EDDE" stroke-width="1.152"/><path d=" M -3.83,-8.334 L 3.83,-8.334 L 3.83,8.334 L -3.83,8.334 L -3.83,-8.334" stroke="#000000" stroke-width="1.152"/></g></g><g><path d=" M 0,0"/><path d=" M -3.578,-0.015 L -2.427,0.015 L -2.482,-1.968 L -2.508,-3.067 L -2.521,-3.946 L -2.529,-5.046 L -2.532,-7.031 L -2.916,-7.051 L -3.128,-5.076 L -3.24,-3.977 L -3.323,-3.096 L -3.418,-1.995 L -3.578,-0.015" fill="#000000"/><path d=" M -6.221,0.06 L -5.075,-0.06 L -5.508,-3.16 L -5.786,-4.885 L -6.052,-6.26 L -6.437,-7.965 L -7.193,-11.009 L -7.569,-10.929 L -7.026,-7.846 L -6.762,-6.137 L -6.595,-4.77 L -6.439,-3.053 L -6.221,0.06" fill="#000000"/><path d=" M -8.909,0.029 L -7.758,-0.029 L -7.956,-1.831 L -8.075,-2.835 L -8.183,-3.639 L -8.333,-4.638 L -8.619,-6.429 L -9.002,-6.391 L -8.93,-4.582 L -8.901,-3.58 L -8.89,-2.781 L -8.89,-1.78 L -8.909,0.029" fill="#000000"/><path d=" M -11.136,0.118 L -10.008,-0.118 L -10.431,-1.611 L -10.705,-2.445 L -10.966,-3.104 L -11.341,-3.899 L -12.066,-5.285 L -12.418,-5.131 L -11.897,-3.669 L -11.647,-2.863 L -11.491,-2.22 L -11.344,-1.4 L -11.136,0.118" fill="#000000"/><path d=" M -18.868,0.099 L -17.734,-0.099 L -18.232,-2.32 L -18.554,-3.557 L -18.864,-4.537 L -19.313,-5.734 L -20.19,-7.849 L -20.552,-7.719 L -19.882,-5.54 L -19.556,-4.333 L -19.349,-3.367 L -19.151,-2.143 L -18.868,0.099" fill="#000000"/><path d=" M -30.636,0.166 L -29.532,-0.166 L -30.543,-3.158 L -31.208,-4.803 L -31.857,-6.078 L -32.804,-7.596 L -34.661,-10.226 L -34.982,-10.015 L -33.318,-7.279 L -32.499,-5.743 L -31.964,-4.488 L -31.433,-2.862 L -30.636,0.166" fill="#000000"/><path d=" M -39.975,0.238 L -38.925,-0.238 L -39.986,-2.32 L -40.684,-3.447 L -41.364,-4.284 L -42.339,-5.217 L -44.224,-6.751 L -44.48,-6.465 L -42.761,-4.781 L -41.921,-3.815 L -41.375,-3 L -40.825,-1.896 L -39.975,0.238" fill="#000000"/><path d=" M 151.203,-0.047 L 152.351,0.047 L 152.412,-2.015 L 152.465,-3.152 L 152.529,-4.059 L 152.637,-5.196 L 152.868,-7.251 L 152.49,-7.313 L 152.044,-5.289 L 151.815,-4.156 L 151.653,-3.243 L 151.48,-2.099 L 151.203,-0.047" fill="#000000"/><path d=" M 159.958,-0.132 L 161.079,0.132 L 161.387,-1.65 L 161.598,-2.61 L 161.818,-3.361 L 162.164,-4.296 L 162.88,-5.986 L 162.536,-6.157 L 161.619,-4.551 L 161.147,-3.629 L 160.819,-2.861 L 160.48,-1.885 L 159.958,-0.132" fill="#000000"/><path d=" M 165.934,-0.306 L 166.909,0.306 L 168.674,-2.7 L 169.794,-4.199 L 170.878,-5.231 L 172.512,-6.346 L 175.815,-8.147 L 175.641,-8.49 L 172.209,-6.877 L 170.435,-5.816 L 169.192,-4.768 L 167.905,-3.245 L 165.934,-0.306" fill="#000000"/><path d=" M -55.208,0 L -48.107,0 M -45.817,0 L -39.734,0 M -39.117,0 L -33.509,0 M -27.912,0 L -26.486,0 M -25.458,0 L -24.752,0 M -18.629,0 L -11.528,0 M -9.238,0 L -3.155,0 M -2.538,0 L 3.07,0 M 8.667,0 L 10.093,0 M 11.121,0 L 11.827,0 M 17.95,0 L 25.051,0 M 27.341,0 L 33.424,0 M 34.041,0 L 39.649,0 M 45.246,0 L 46.673,0 M 47.7,0 L 48.406,0 M 54.529,0 L 61.63,0 M 63.92,0 L 70.003,0 M 70.62,0 L 76.228,0 M 81.825,0 L 83.252,0 M 84.279,0 L 84.985,0 M 91.108,0 L 98.209,0 M 100.499,0 L 106.582,0 M 107.199,0 L 112.807,0 M 118.404,0 L 119.831,0 M 120.858,0 L 121.564,0 M 127.687,0 L 134.788,0 M 137.078,0 L 143.161,0 M 143.778,0 L 149.387,0 M 154.983,0 L 156.41,0 M 157.437,0 L 158.143,0 M 164.266,0 L 171.367,0 M 173.657,0 L 179.74,0 M 180.357,0 L 185.966,0 M 191.562,0 L 192.989,0 M 194.016,0 L 194.723,0 M 200.845,0 L 202.431,0 M -18.403,0 L 165.625,0" stroke="#000000" stroke-width="1.152"/></g></g><style/><defs/></svg>